<svg xmlns="http://www.w3.org/2000/svg" viewBox="0 0 1600 1200"><g data-name="7" fill="#000000" class="color000 svgShape"><g data-name="Checklist Icon" fill="#000000" class="color000 svgShape"><circle cx="830.01" cy="420.69" r="71.69" fill="#ffffff" class="colorfff svgShape"/><path d="M830 494.88a74.19 74.19 0 1 1 74.19-74.19A74.28 74.28 0 0 1 830 494.88Zm0-143.38a69.19 69.19 0 1 0 69.19 69.19A69.27 69.27 0 0 0 830 351.5Z" fill="#000000" class="color000 svgShape"/><path d="m819.41 457.94-34.67-26.75a7 7 0 0 1-1.27-9.84 7 7 0 0 1 9.84-1.27l24.4 18.82 48.08-53.15a7 7 0 0 1 9.92-.5 7 7 0 0 1 .49 9.92Z" fill="#000000" class="color000 svgShape"/></g><g data-name="Clock icon" fill="#000000" class="color000 svgShape"><circle cx="251.8" cy="323.7" r="77.8" fill="#ffffff" class="colorfff svgShape"/><path d="M251.8 404a80.31 80.31 0 1 1 80.31-80.3A80.39 80.39 0 0 1 251.8 404Zm0-155.61a75.31 75.31 0 1 0 75.31 75.31 75.39 75.39 0 0 0-75.31-75.31Z" fill="#000000" class="color000 svgShape"/><path d="m292.93 284.72-19.37 9.9c-17.27-17.13-36.56-16.71-52.56-6.89-18.36 11.32-28.33 43.44-14.58 68.25 3.07 5.53 7.68 9.78 12.33 13.46a56.92 56.92 0 1 1 74.14-84.72Z" fill="#000000" class="color000 svgShape"/><path d="m303.46 289.09-42.22 21.71a16.6 16.6 0 1 0 6.76 13.35 16.75 16.75 0 0 0-.54-4.21Zm-52.09 42.61a7.55 7.55 0 1 1 7.55-7.55 7.55 7.55 0 0 1-7.55 7.55Z" fill="#000000" class="color000 svgShape"/></g><g data-name="Clouds and Sun" fill="#000000" class="color000 svgShape"><path d="M895 152h-42v-5h40.12c1-3 3.57-8.77 9.08-12.17a19.33 19.33 0 0 1 13.72-2.33c1.77-8.69 8.54-21.5 25.08-21.5 6.49 0 17.79 3.26 21.67 15 3.73-1.39 10.54-3.07 17.2-.36 5.84 2.37 10.18 7.52 12.94 15.32H1014v5h-24.85l-.54-1.76c-2.24-7.27-5.8-12-10.6-13.92-7.45-3-15.74 1.33-15.82 1.38l-3 1.6-.67-3.31c-2.21-11-12.07-14-17.55-14-18.5 0-20.44 18.92-20.51 19.73l-.27 2.94-2.86-.75c-4.93-1.3-9.14-.92-12.5 1.14-5.75 3.53-7.4 10.89-7.42 11l-.42 2Z" fill="#000000" class="color000 svgShape"/><circle cx="1316.5" cy="247.5" r="64" fill="#000000" class="color000 svgShape"/><path fill="#ffffff" d="M1138.5 290.5h245s-8-31-34-21c0 0-10-35-47-18 0 0-52-71-114 19 0 0-29-21-50 20Z" class="colorfff svgShape"/><path d="M1386.73 293h-252.32l1.86-3.64c7.47-14.57 16.81-23.29 27.77-25.92 10.67-2.55 19.76 1.44 23.76 3.69 20.71-29.35 42.62-44.4 65.15-44.72 26.74-.36 45.41 20 50.32 26 11.58-4.93 21.81-5.41 30.45-1.44 10.43 4.79 15.45 14.7 17.31 19.34 6.8-2.09 13-1.7 18.58 1.15 12 6.19 16.14 21.74 16.31 22.4Zm-244-5H1380c-1.71-4.45-5.65-12.46-12.72-16.08-4.87-2.5-10.55-2.53-16.9-.09l-2.55 1-.75-2.62c0-.13-4-13.41-15.5-18.67-7.7-3.52-17.14-2.77-28.06 2.25l-1.85.85-1.21-1.64c-.19-.26-19.41-26-47.49-25.57-21.31.32-42.31 15.3-62.43 44.51l-1.45 2.11-2.08-1.51c-.09-.06-10-7.07-21.88-4.2-8.53 2.05-16.07 8.66-22.43 19.66ZM588 227h-50v-5h46.12c1.24-3.78 4.69-12 12.09-15 4.89-2 10.45-1.37 16.56 1.88 2.79-5.49 9.56-12.11 21.69-9.84l-.92 4.92c-13.6-2.55-17 8.74-17.14 9.23l-.92 3.22-2.82-1.8c-5.68-3.61-10.58-4.62-14.56-3-7.16 2.94-9.64 13.34-9.66 13.44Z" fill="#000000" class="color000 svgShape"/></g><path fill="#ffffff" d="M326.5 894.5s22 39 174 52c0 0 88 1 101-44l-5-31-260-9Z" class="colorfff svgShape"/><path d="M501.29 949h-1c-151.58-13-175-51.62-176-53.26l-.53-.94 10.89-34.85 1.91.06 262.05 9.07 5.42 33.59-.16.53c-12.81 44.46-93 45.8-102.58 45.8Zm-.67-5c3.16 0 85.63-.14 98.32-41.67l-4.58-28.4-256-8.87-9.07 29c2 2.53 9.34 10.62 29.26 19.72 22.14 10.15 64.79 23.6 142.07 30.22ZM575.79 407.64s31.42 7.62 43.64-15.87c2.78-5.35 2.92-11.21-.14-16.4-3.24-5.49-10.25-11.3-25.68-8.38-6.85 1.3-19.49 3.9-24.5 13.92Z" fill="#000000" class="color000 svgShape"/><path d="M587.1 411.26a56.75 56.75 0 0 1-11.89-1.19l-1.47-.35-7.28-29.1.42-.83c5.67-11.36 19.58-14 26.27-15.26 16.84-3.19 24.68 3.45 28.29 9.57 3.43 5.81 3.5 12.49.21 18.82-8 15.36-23.65 18.34-34.55 18.34Zm-9.26-5.75c6.14 1.14 29.51 4.06 39.37-14.9a14 14 0 0 0-.07-14c-4.07-6.9-11.83-9.32-23.06-7.19-5.72 1.08-17.44 3.3-22.31 11.79Z" fill="#000000" class="color000 svgShape"/><path d="M581.54 383.55s2.52 41.06-13.81 59.83l-3.3-58.73Z" fill="#000000" class="color000 svgShape"/><path fill="#ffffff" d="m468.08 536.73 13.58-84.04 58.91 7.49 1.55 80.94-74.04-4.39z" class="colorfff svgShape"/><path d="m544.67 543.77-79.5-4.71 14.41-89.15L543 458ZM471 534.39l68.58 4.07-1.46-76.08-54.36-6.9Z" fill="#000000" class="color000 svgShape"/><path fill="#ffffff" d="M479.08 458.89s19.08 48.64 59.92 41.16c0 0 32.53-4 34.62-52.26l1.38-68.52-96.46-6.18-3.09 48.23s-15.26 2.05-13.21 17.32 16.84 20.25 16.84 20.25Z" class="colorfff svgShape"/><path d="M530.68 503.32c-14.29 0-27.57-6.6-38.83-19.4a91.93 91.93 0 0 1-14.67-23.09c-3.72-1.56-15.53-7.59-17.44-21.86-1.69-12.59 7.07-18.12 13.32-19.72l3.13-48.81 101.34 6.49-1.41 70.91c-1.12 25.92-10.94 39.37-19 46.11-8.49 7.11-16.76 8.44-17.75 8.58a48.87 48.87 0 0 1-8.69.79Zm-49.82-127.57-3.06 47.78-2 .27c-1.3.19-12.73 2.16-11.08 14.5 1.81 13.49 14.65 18 15.19 18.22l1.1.37.43 1.08c.17.44 16.29 40.35 49.32 40.35a43.84 43.84 0 0 0 7.82-.72h.14c1.24-.16 30.47-4.45 32.43-49.89l1.32-66.06Z" fill="#000000" class="color000 svgShape"/><path fill="#ffffff" d="M494.57 390.26S463 394 463.27 398a120.13 120.13 0 0 0 4.37 25.48s12.95-6 18.4 5.58l7 1.45Z" class="colorfff svgShape"/><path d="m495.39 433.57-11.09-2.31-.53-1.13c-4.23-9-14-4.87-15.09-4.37l-2.63 1.24-.81-2.78a121.73 121.73 0 0 1-4.47-26c-.14-2.06-.43-6.35 33.51-10.4l2.91-.34Zm-7.67-6.71 2.9.61 1.38-34.36c-11.26 1.48-23.35 3.81-26.14 5.54a118.81 118.81 0 0 0 3.5 21.57c5.5-1.6 13.82-1.53 18.36 6.64Z" fill="#000000" class="color000 svgShape"/><path d="M464.19 369.8c6.35-25.2 40.84-41.95 77.56-31.07 22.62 6.71 29.32 23.46 29.32 23.46l-25.37 7.61s-22.17 12.67-34.38 23.14A52.57 52.57 0 0 1 485 405.2c-21.2 3.07-19.92-.09-19.92-.09-3.76-11.11-3.28-25.82-.89-35.31Z" fill="#000000" class="color000 svgShape"/><path d="M470.61 409c-5.8 0-6.74-1.2-7.34-2a3.07 3.07 0 0 1-.64-1.55c-3.91-11.78-3.21-27-.87-36.33 2.81-11.14 10.8-20.94 22.5-27.61 16.5-9.41 37.71-11.31 58.2-5.24 23.51 7 30.64 24.19 30.93 24.92l1 2.54-27.72 8.32c-2.44 1.41-22.53 13.11-33.75 22.72a54.93 54.93 0 0 1-27.54 12.83 108.54 108.54 0 0 1-14.77 1.4Zm-3.29-5.24c1.27.28 5.35.66 17.36-1.07a50 50 0 0 0 25-11.68c12.26-10.51 33.85-22.89 34.77-23.42l.24-.14 22.76-6.82C564.68 356 557 345.87 541 341.13c-19.19-5.69-39-3.94-54.3 4.79-10.51 6-17.66 14.69-20.13 24.49-2.12 8.59-2.79 22.59.75 33.39Z" fill="#000000" class="color000 svgShape"/><path fill="#ffffff" d="M497.08 400.28s43.63 15.16 72-19.37c0 0 15-22.34 43.17-12.28 0 0-13.86-14.05-50.41-3.32-9.86 2.9-21.45 5.28-37.16 15.62-14.77 9.75-22.77 18.67-27.6 19.35Z" class="colorfff svgShape"/><path d="M519.66 406.09a77.72 77.72 0 0 1-23.4-3.45l-9.76-3.39 10.23-1.45c2-.28 5.88-3.37 10.36-6.94 4.26-3.39 9.55-7.61 16.25-12 14-9.24 25.09-12.35 34-14.84l3.84-1.09c37.56-11 52.29 3.33 52.9 3.95l7.69 7.8-10.33-3.68c-26-9.29-40.12 11.12-40.26 11.33l-.14.19c-15.26 18.55-34.8 23-48.5 23.54-.98.02-1.94.03-2.88.03Zm-15.58-6.59a78.78 78.78 0 0 0 18.45 1.5c18.33-.71 33.34-8 44.6-21.65 1-1.34 9.63-12.84 25-15.36-7.33-.65-17.08 0-29.61 3.68l-3.9 1.11c-9 2.53-19.21 5.39-32.58 14.2-6.51 4.28-11.71 8.42-15.88 11.75-2.28 1.9-4.29 3.5-6.08 4.77Z" fill="#000000" class="color000 svgShape"/><path fill="#ffffff" d="M595.36 1097.5 584 866.4l-206.5-10.52c-25.64 50-54.31 241.62-54.31 241.62h131.86l12.44-45.35 6 45.35Z" class="colorfff svgShape"/><path d="M598 1100H471.31l-4.68-35.28L457 1100H320.29l.43-2.87c1.17-7.84 29-192.55 54.55-242.39l.74-1.44L586.38 864Zm-122.29-5h117l-11.1-226.21L379 858.46c-23.28 47.77-49.24 212.69-52.91 236.54h127l15.21-55.42Z" fill="#000000" class="color000 svgShape"/><path d="M545.3 519.75s-1.8 41.75-77.87-7.41L389 539a73.78 73.78 0 0 0-45.73 45l-37.38 104.81 58.77 12-37.55 191S378.5 872.5 457.5 873.5c71.16.9 143.18 27.85 143.18 27.85l-3.43-231.45 69.62 3.6-27.47-84.78a73.82 73.82 0 0 0-39.88-44.54Z" fill="#000000" class="color000 svgShape"/><path d="m603.24 905-3.43-1.28c-.72-.27-72.46-26.81-142.34-27.69-77.6-1-129 18-129.48 18.16l-4.2 1.58 37.94-193-59.17-12.11L341 583.21a75.9 75.9 0 0 1 47.28-46.57l79.54-27.06 1 .66c39.54 25.55 57.77 25.78 66.11 21.47 7.46-3.86 7.9-12 7.9-12.07L543 516l57.59 26a76.44 76.44 0 0 1 41.23 46l28.58 88.23-70.57-3.64Zm-151.58-34h5.87c62 .79 125.38 21.49 140.6 26.78l-3.42-230.51 68.66 3.55L637 589.49a71.45 71.45 0 0 0-38.54-43l-51.28-23.11a19.66 19.66 0 0 1-10 12.8c-13.69 7.08-37.27 0-70.1-21.06l-77.25 26.29a70.87 70.87 0 0 0-44.18 43.51l-36.44 102.02 58.38 11.95-37.19 189.18c13.43-4.33 58.41-17.07 121.26-17.07Z" fill="#000000" class="color000 svgShape"/><path fill="#ffffff" d="M530.18 544.69h430.4v265.2h-430.4z" class="colorfff svgShape"/><path d="M963.08 812.39h-435.4v-270.2h435.4Zm-430.4-5h425.4v-260.2h-425.4Z" fill="#000000" class="color000 svgShape"/><path fill="#ffffff" d="M710.06 544.69h250.52v265.2H710.06z" class="colorfff svgShape"/><path d="M963.08 812.39H707.56v-270.2h255.52Zm-250.52-5h245.52v-260.2H712.56Z" fill="#000000" class="color000 svgShape"/><path fill="#ffffff" d="M592.68 544.69v105.97l23.36-30.43 23.37 30.43V544.69h-46.73z" class="colorfff svgShape"/><path d="M641.91 658 616 624.33 590.18 658V542.19h51.73ZM616 616.12l20.87 27.18v-96.11h-41.69v96.11ZM849.85 604.77v132.31a9 9 0 0 0 9 9 9 9 0 0 0 9-9v-42.35l9.46.11s-.54-47.42-3.58-63c-4.17-21.6-23.88-27.07-23.88-27.07ZM829.36 609.53v25.23h-6.68v-25.23a4.66 4.66 0 0 0-4.66-4.66 4.66 4.66 0 0 0-4.66 4.66v25.23h-6.58v-25.33a4.66 4.66 0 0 0-4.65-4.66 4.66 4.66 0 0 0-4.65 4.66v31.92a20.56 20.56 0 0 0 11.6 18.51V737a9 9 0 0 0 9 9 9 9 0 0 0 9-9v-77.19a20.57 20.57 0 0 0 11.5-18.46v-4.46l.09-27.35a4.66 4.66 0 0 0-4.66-4.67 4.66 4.66 0 0 0-4.65 4.66Z" fill="#000000" class="color000 svgShape"/><path fill="#ffffff" d="M308.68 689.29s-44.52 110.45-3.84 126.64C346.5 832.5 567 813.84 567 813.84l60.23 10.74 55-14.89s0-25.08-28.64-25.08c-20.76 0-56.15-18.46-56.15-18.46s12.66-36.59-6.87-37.81L560.9 765l-169.33-19.55 18.32-41.51Z" class="colorfff svgShape"/><path d="m627.36 827.14-60.47-10.78c-12.89 1.08-221.66 18.33-263 1.89-6.6-2.63-11.53-7.65-14.65-14.94-14.89-34.79 15.77-111.7 17.09-115l.73-1.82 106.42 15.4-18.28 41.42 164.59 19 29.63-36.6 1.29.08a12.49 12.49 0 0 1 10.18 5.58c6.11 9.18 1.43 27.28-.44 33.46 7.52 3.73 35.88 17.23 53.12 17.23 30.78 0 31.14 27.3 31.14 27.58v1.91Zm-60.24-15.82 60 10.7 52.47-14.21c-.65-5.45-4.42-20.7-26-20.7-21.13 0-55.83-18-57.3-18.75l-1.91-1 .7-2c2.13-6.16 6.58-23.78 1.67-31.14a7.26 7.26 0 0 0-5.1-3.21L562 767.64l-1.37-.15-172.7-20 18.37-41.6-96-13.9c-4.58 12-29.28 79.25-16.41 109.31 2.61 6.1 6.5 10.1 11.9 12.25 40.64 16.17 258.82-2.07 261-2.25Z" fill="#000000" class="color000 svgShape"/><path d="M413.48 994.19h142.55v5H413.48z" transform="rotate(-73.08 484.75 996.685)" fill="#000000" class="color000 svgShape"/><path fill="#ffffff" d="M388.55 680.5h51.89v5h-51.89z" transform="rotate(-64.92 414.52 683.008)" class="colorfff svgShape"/><g fill="#000000" class="color000 svgShape"><path d="m1083.98 853.43 45.84 244.07h128.2l-31.19-256.28-142.85 12.21z" fill="#000000" class="color000 svgShape"/><path d="M1260.84 1100h-133.09L1081 851.17l148-12.65Zm-128.95-5h123.3l-30.55-251.09L1087 855.68Z" fill="#000000" class="color000 svgShape"/><path fill="#ffffff" d="M1255.5 680.5s38.9 125.28-76.48 109L1171.5 684Z" class="colorfff svgShape"/><path d="M1198.38 793.5a140.67 140.67 0 0 1-19.71-1.48l-2-.28-7.85-110.08 88.5-3.74.57 1.84c.78 2.51 18.74 61.76-8.67 94-11.17 13.13-28.22 19.74-50.84 19.74Zm-17-6.16c29.75 3.82 51.29-1.84 64-16.83 23.08-27.13 11-77.22 8.23-87.43l-79.46 3.36ZM1175.02 840l-89.13 257.5H961.36l37.85-266.05 175.81 8.55z" fill="#000000" class="color000 svgShape"/><path d="M1087.67 1100H958.48l38.57-271.16 181.42 8.82Zm-123.43-5h119.87l87.45-252.67-170.2-8.27Z" fill="#000000" class="color000 svgShape"/><path fill="#ffffff" d="m964 679.92 46.15 20.89L987 859.53s135.5 59 251.38 0L1220 688.6l41.17-3.66-55.82-125.76-77.91-20.75-42.06 3.15-55.19 23.68A72 72 0 0 0 991 606.61Z" class="colorfff svgShape"/><path d="M1121.29 888.17a350.22 350.22 0 0 1-52.43-4c-48.13-7.34-82.52-22.15-82.86-22.3l-1.75-.76 23.2-158.75-46.56-21.07 27.72-75.49a74.8 74.8 0 0 1 40.55-42.8l55.58-23.85 42.9-3.22.41.11 79.06 21.07 57.73 130-42.12 3.75L1241.05 861l-1.54.78c-39.63 20.15-81.51 26.39-118.22 26.39ZM989.75 858a374.67 374.67 0 0 0 80 21.22c43.34 6.6 107.16 8.22 166-21.11l-18.55-171.77 40.23-3.58-53.92-121.47-76.34-20.29-41.23 3-54.8 23.52a69.8 69.8 0 0 0-37.84 39.91l-26.11 71.17 45.75 20.71Z" fill="#000000" class="color000 svgShape"/><path fill="#ffffff" d="M1060.25 389.48s-44 118.42 18.31 119.65v53.72H1153V398Z" class="colorfff svgShape"/><path d="M1155.54 565.35h-79.48v-53.83c-11.09-.78-19.56-5.36-25.2-13.64-21.44-31.48 5.87-106.11 7.05-109.28l.66-1.79 97 8.93Zm-74.48-5h69.48v-160l-88.54-8.21c-4 11.61-25.22 76.13-7 102.93 5.16 7.56 12.88 11.35 23.62 11.56h2.45Z" fill="#000000" class="color000 svgShape"/><path d="M1252.55 508.51c-17.07-5.47-36.65-3.39-48.84-52.49-8-32.31-18.92-86.08-98.9-89.13-23.8-.91-76.91 4.88-41.51 81.8 0 0 14.76 44.62 8.55 119.65-5.22 63 23.81 200.84 196 128.81 55.15-23.15 115.95-146.51-15.3-188.64Z" fill="#000000" class="color000 svgShape"/><path fill="#ffffff" d="M964.5 677.5 938 755.13 825 795l-55.84-6.56s-3.44 10.89 17.19 21.21h-58.49s16.51 9.43 76.33 24.08c0 0 167.31-24.27 189.31-41.27 16.93-13.09 58-89 58-89Z" class="colorfff svgShape"/><path d="m804.07 836.31-.47-.11c-59.48-14.57-76.29-24-77-24.34l-8.17-4.67h58.8c-13.39-9.69-10.67-19-10.52-19.46l.62-2 57.32 6.72L936 753.17l26.91-78.75 92.25 27.58-1.46 2.7c-1.69 3.12-41.52 76.53-58.67 89.79-22.27 17.2-183.62 40.77-190.48 41.76Zm-64.14-24.12c10.74 4.11 30.6 10.74 64.39 19 9.93-1.46 167-24.73 187.65-40.7 14.55-11.24 48.38-71.91 55.85-85.51l-81.73-24.43L940 757.08l-114.76 40.51-53.77-6.32c.41 3.2 3 9.7 15.95 16.18l9.47 4.74Z" fill="#000000" class="color000 svgShape"/><path fill="#ffffff" d="M1074.89 963.5h119.22v5h-119.22z" transform="rotate(-71.41 1134.568 966.007)" class="colorfff svgShape"/></g><path d="M204.69 1096h1181.42v5H204.69z" fill="#000000" class="color000 svgShape"/></g></svg>