<svg xmlns="http://www.w3.org/2000/svg" viewBox="0 0 1734.421 3000"><path fill="#e4ad9a" d="M483.491,2794.783v-98.055l-231.31-19.584-5.78,93.33s139.996,60.659,237.09,24.308Z" class="colore4ad9a svgShape"/><path fill="#20284a" d="M246.456,1749.388s-1.152,630.409,0,755.597c1.152,125.188-57.976,178.933-57.976,178.933l315.884,13.548s78.568-889.956,83.039-948.078c4.471-58.123,14.419-80.316,14.419-80.316l-355.366,80.316Z" class="color20284a svgShape"/><path fill="#844c2c" d="M480.099,2786.657s7.909-18.44,16.941,38.762,13.166,111.394-8.47,118.921-408.506,54.192-471.73,18.064,69.245-93.33,106.878-139.996c37.633-46.665,107.467-96.341,122.226-78.277s234.155,42.526,234.155,42.526Z" class="color844c2c svgShape"/><path fill="#5e3724" d="M481.858 2856.709c-7.29 7.289-13.481 15.382-18.232 24.55-2.289 4.417-4.368 8.947-6.048 13.632-1.453 4.053-2.385 8.236-3.5 12.372-12.236.354-24.556 1.721-36.737 2.567-14.177.984-28.354 1.969-42.531 2.955-28.682 1.995-57.352 4.166-86.033 6.176-57.544 4.033-115.073 8.281-172.598 12.558-15.617 1.161-31.379 3.619-47.061 3.117-17.298-.553-37.774-6.724-42.365-26.077-.552-2.325-4.099-1.768-3.695.637 1.91 11.376 9.653 20.719 19.284 26.697 12.275 7.619 27.08 8.484 41.145 8.202 30.045-.602 60.158-3.149 90.135-5.161 61.445-4.123 122.912-7.931 184.356-12.073 16.643-1.122 33.285-2.259 49.928-3.391 8.654-.589 17.309-1.178 25.963-1.767 8.857-.603 18.015-.589 26.754-2.122 2.674-.469 4.663-3.609 4.596-6.18-.218-8.47 3.4-17.786 7.298-25.2 4.43-8.424 10.527-15.844 17.632-22.143 6.046-5.36-2.616-15.025-8.29-9.352zM187.162 2792.454c-6.251-23.613-34.549-37.008-56.892-27.132-5.509 2.435-2.733 11.329 2.988 9.017 13.773-5.565 30.888-.87 39.23 11.727 8.686 13.117 4.284 32.151-8.044 41.41-5.84 4.387-13.183 5.9-20.308 5.061 1.031-2.728 1.818-5.648 2.15-8.9 1.135-11.108-3.944-23.121-14.354-28.064-10.49-4.981-24.176-.691-26.729 11.451-2.507 11.924 6.437 23.82 16.001 30.465-1.563.998-3.198 1.862-4.841 2.572-10.942 4.722-23.405 3.752-35.013 4.868-6.888.662-8.529 11.603-1.014 12.662 17.905 2.522 42.513-.059 56.107-13.339 6.082 1.474 12.439 1.75 18.65.62 23.206-4.223 38.016-29.948 32.068-52.418zm-63.037 15.538c6.69 1.472 8.627 10.272 7.401 16.051-.264 1.243-.707 2.408-1.223 3.536-1.212-.786-2.379-1.639-3.461-2.588-2.669-2.342-5.023-5.146-6.524-8.381-1.969-4.243-2.305-9.961 3.807-8.616z" class="color5e3724 svgShape"/><path fill="#e4ad9a" d="M669.253,2794.783v-98.055s231.31-19.584,231.31-19.584l5.78,93.33s-139.996,60.659-237.09,24.308Z" class="colore4ad9a svgShape"/><path fill="#20284a" d="M906.289,1749.388s1.152,630.409,0,755.597c-1.152,125.188,57.976,178.933,57.976,178.933l-315.884,13.548s-78.568-889.956-83.039-948.078c-4.471-58.123-14.419-80.316-14.419-80.316l355.366,80.316Z" class="color20284a svgShape"/><path fill="#844c2c" d="M672.646,2786.657s-7.909-18.44-16.941,38.762c-9.032,57.203-13.166,111.394,8.47,118.921,21.636,7.527,408.506,54.192,471.73,18.064,63.224-36.128-69.245-93.33-106.878-139.996-37.633-46.665-107.467-96.341-122.226-78.277-14.759,18.064-234.155,42.526-234.155,42.526Z" class="color844c2c svgShape"/><path fill="#5e3724" d="M670.887 2856.709c7.29 7.289 13.481 15.382 18.232 24.55 2.289 4.417 4.368 8.947 6.048 13.632 1.453 4.053 2.385 8.236 3.5 12.372 12.236.354 24.556 1.721 36.737 2.567 14.177.984 28.354 1.969 42.531 2.955 28.682 1.995 57.352 4.166 86.033 6.176 57.544 4.033 115.073 8.281 172.598 12.558 15.617 1.161 31.379 3.619 47.061 3.117 17.298-.553 37.774-6.724 42.365-26.077.552-2.325 4.099-1.768 3.695.637-1.91 11.376-9.653 20.719-19.284 26.697-12.275 7.619-27.08 8.484-41.145 8.202-30.045-.602-60.158-3.149-90.135-5.161-61.445-4.123-122.912-7.931-184.356-12.073-16.643-1.122-33.285-2.259-49.928-3.391-8.654-.589-17.309-1.178-25.963-1.767-8.857-.603-18.015-.589-26.754-2.122-2.674-.469-4.663-3.609-4.596-6.18.218-8.47-3.4-17.786-7.298-25.2-4.43-8.424-10.527-15.844-17.632-22.143-6.046-5.36 2.616-15.025 8.29-9.352zM997.651 2844.872c6.212 1.13 12.569.854 18.65-.62 13.593 13.28 38.202 15.861 56.107 13.339 7.515-1.059 5.874-12-1.014-12.662-11.608-1.116-24.071-.147-35.013-4.868-1.644-.709-3.279-1.574-4.841-2.572 9.564-6.646 18.508-18.541 16.001-30.465-2.553-12.142-16.239-16.431-26.729-11.451-10.41 4.942-15.488 16.956-14.354 28.064.332 3.253 1.119 6.173 2.15 8.9-7.125.84-14.468-.674-20.308-5.061-12.327-9.26-16.729-28.293-8.044-41.41 8.341-12.597 25.457-17.292 39.23-11.727 5.722 2.312 8.498-6.581 2.988-9.017-22.343-9.876-50.641 3.519-56.892 27.132-5.948 22.47 8.862 48.195 32.068 52.418zm34.775-28.264c-1.501 3.235-3.855 6.04-6.524 8.381-1.082.95-2.249 1.802-3.461 2.588-.516-1.128-.959-2.293-1.223-3.536-1.226-5.779.711-14.578 7.401-16.051 6.111-1.344 5.775 4.373 3.807 8.616z" class="color5e3724 svgShape"/><path fill="#66aee1" d="M431.558,683.334s-56.45-4.516-110.642,31.612-191.177,292.034-242.358,401.923,0,201.714,73.761,204.725c73.761,3.011,168.597-15.053,168.597-15.053l-18.064,164.834h157.343c25.555,0,53.069-63.224,53.069-63.224l28.935,63.224,340.957-18.064-21.827-363.537s250.211,133.974,281.823-10.537c31.612-144.512-174.191-353-212.577-375.58-38.386-22.58-197.575-33.87-197.575-33.87l-301.442,13.548Z" class="color66aee1 svgShape"/><path fill="#20284a" d="M733.793,515.469c1.129-4.516,45.16-209.994,45.16-209.994,0,0,7.688,5.645,14.57-13.548,6.881-19.193-7.903-98.223-29.865-106.126-21.962-7.903-30.994-49.676-142.765-40.644-111.771,9.032-195.142,14.677-231.922,65.482-36.78,50.805-28.317,71.127-28.317,71.127,0,0,9.839,21.451,24.962,74.514s9.266,63.813,9.266,63.813l338.911,95.375Z" class="color20284a svgShape"/><path fill="#e4ad9a" d="M489.929,597.886s-9.032,57.579-11.29,69.998c-2.258,12.419,12.419,33.87,42.902,59.837,30.483,25.967,60.966,25.967,102.739,0s73.385-55.18,73.385-55.18l-10.537-92.343-197.198,17.688Z" class="colore4ad9a svgShape"/><ellipse cx="388.972" cy="436.933" fill="#e4ad9a" rx="47.316" ry="70.257" transform="rotate(-27.912 388.977 436.937)" class="colore4ad9a svgShape"/><path fill="#e4ad9a" d="M408.642,435.687s-7.838,62.095,13.659,112.9c41.504,98.09,165.963,100.481,226.929,76.772s69.998-29.354,90.32-81.288c20.322-51.934,20.211-128.706,20.211-128.706,0,0,2.634,9.785-25.967-45.913-28.601-55.697-42.149-115.91-42.149-115.91,0,0-33.117,60.213-103.868,72.256-70.751,12.043-69.245-24.085-69.245-24.085,0,0-46.665,21.827-69.245,21.827s-36.128-6.774-36.128-6.774l-4.516,118.921Z" class="colore4ad9a svgShape"/><ellipse cx="769.82" cy="415.859" fill="#e4ad9a" rx="70.257" ry="47.316" transform="rotate(-70.647 769.822 415.859)" class="colore4ad9a svgShape"/><path fill="#c48370" d="M682.593 609.337c-17.129 4.172-33.738 9.862-51.185 12.913-14.326 2.505-28.625 4.424-43.157 5.215-16.103.876-32.207.009-48.208-1.874-9.355-1.101-18.707-2.799-27.871-4.971-7.441-1.764-14.806-4.458-22.385-5.48-4.196-.566-6.232 5.618-2.669 7.771 7.259 4.386 16.393 6.577 24.515 8.816 7.965 2.196 16.023 3.999 24.151 5.485 16.438 3.006 33.215 4.165 49.91 4.126 15.644-.037 31.631-1.422 46.945-4.706 18.098-3.881 37.18-9.14 53.152-18.707 4.34-2.599 2.058-9.868-3.197-8.588zM410.311 456.293c1.282-.209-4.953-17.768-5.734-19.493-2.661-5.88-5.965-11.444-9.696-16.707-2.963-4.179-6.23-8.145-9.766-11.852-3.734-3.915-7.862-8.095-12.57-10.837-3.246-1.89-7.237-1.855-9.871 1.104-2.382 2.677-2.881 7.119-.281 9.928.439.474.878.949 1.318 1.423.418.451.899.813 1.403 1.134 5.385 4.576 10.376 8.959 14.936 14.095-.872.7-1.677 1.494-2.467 2.271-.697.583-.867.722-1.28 1.153.062-.066.124-.132.186-.197-1.252 1.197-2.247 2.171-3.406 3.419.342-.367.683-.734 1.025-1.1-1.314 1.343-2.15 2.237-3.28 3.667.303-.383.606-.767.909-1.15-1.19 1.42-2.075 2.536-3.095 4.041.272-.4.544-.8.815-1.2-1.297 1.814-2.491 3.544-3.539 5.527-1.22 2.309-.576 5.561 1.879 6.816 1.132.578 2.487.873 3.736.488 1.353-.418 2.267-1.211 3.08-2.367.333-.474.726-.925 1.122-1.373.639-.674 1.28-1.345 1.923-2.015 1.361-1.221 2.719-2.421 4.174-3.541.521-.336 1.041-.674 1.564-1.008.28-.149.561-.299.84-.451 1.26-.472 2.554-.944 3.754-1.539.125-.062.195-.121.305-.181 4.797 7.853 8.349 16.223 12.342 24.553 1.148 2.394 4.69 2.975 6.844 1.908 1.077-.534 1.954-1.291 2.513-2.395.257-.507.963-4.227.315-4.122zM789.887 416.492c-5.454-2.801-11.315-4.957-17.131-6.855-1.446-.472-2.91-.909-4.373-1.339 1.209-4.419 2.482-8.872 4.211-13.082 1.984-4.835 4.72-8.233 9.908-9.376 3.856-.85 6.255-5.115 5.315-8.867-1.158-4.622-4.893-5.274-8.867-5.315-5.627-.058-11.775 4.445-15.31 9.367-4.751 6.613-6.509 14.698-8.568 22.424-1.929 7.24-3.535 14.589-4.695 21.992-1.351 8.623-2.436 17.586-1.515 26.288.372 3.52 5.797 4.854 7.182 1.246 2.472-6.436 3.886-13.022 5.65-19.677 1.222-4.611 2.458-9.219 3.688-13.828.421.21.844.416 1.262.63 2.079 1.064 4.127 2.195 6.22 3.232 3.52 1.744 6.892 3.761 10.383 5.554 3.268 1.678 7.853.588 9.517-2.877 1.626-3.384.626-7.718-2.877-9.517z" class="colorc48370 svgShape"/><path fill="#66aee1" d="M398.441,199.57s55.978-14.028,124.847-18.544c68.869-4.516,240.37,4.775,240.37,4.775,0,0-2.364-92.837,0-101.869,2.364-9.032-117.229-68.869-186.138-80.159-68.909-11.29-138.907,65.482-152.455,75.643-13.548,10.161-35.184,55.152-26.624,120.154Z" class="color66aee1 svgShape"/><path fill="#3a769b" d="M765.399,171.262c-45.825-1.885-90.94-10.301-136.437-15.415-11.79-1.325-23.611-2.422-35.449-3.2-5.048-.332-10.103-.613-15.16-.752-2.761-.076-5.606,.109-8.351-.127-.728-.063-1.416-.205-2.105-.346,.062-.329,.199-.595,.212-.964,.835-23.925-.275-48.088-.586-72.027-.303-23.406-.915-46.822-.93-70.229-.007-10.235-16.204-11.189-15.764-1.163,1.056,24.05,1.662,48.119,2.58,72.174,.894,23.448,.804,47.212,2.92,70.589-23.237,.221-46.742,3.334-69.605,7.16-28.196,4.718-56.399,10.487-83.795,18.713-2.768,.831-2.021,4.741,.878,4.412,23.798-2.702,47.41-7.022,71.111-10.475,24.877-3.625,49.981-6.021,75.131-6.27,3.097-.031,6.193-.067,9.289-.068,2.723,0,4.562-.82,7.048-1.501,5.232-1.434,12.085,.013,17.489,.3,11.337,.604,22.639,1.602,33.922,2.851,22.942,2.539,45.783,5.912,68.652,9.017,25.923,3.52,51.914,6.645,78.069,7.721,6.687,.275,7.618-10.121,.882-10.398Z" class="color3a769b svgShape"/><path fill="#c48370" d="M571.95 376.886c.228-3.699-5.216-4.235-5.72-.563-1.756 12.78-4.983 25.304-6.674 38.118-1.318 9.987-2.287 20.193-3.706 30.267-.614-.507-1.191-1.029-1.857-1.518-4.207-3.084-9.219-4.664-14.216-5.931-3.285-.833-7.596 1.805-7.932 5.305-1.146 11.936-1.605 23.671.146 35.58.778 5.291 1.797 10.546 3.227 15.7 1.7 6.126 3.392 12.85 7.458 17.813 2.435 2.972 7.42 1.942 9.455-.77 1.043-1.391 1.431-2.903 1.196-4.624-.043-.863-.304-1.665-.784-2.407-.577-.955-1.35-1.709-2.318-2.262.159-2.507-.242-4.881-1.202-7.119-.355-.983-.696-1.971-1.022-2.964-.653-1.99-1.247-4-1.779-6.026-.983-3.748-1.734-7.527-2.215-11.373-.806-6.441-.935-13.002-.335-19.481 4.127 2.995 7.711 6.68 10.425 11.122 3.93 6.433 13.923 2.839 13.615-4.405-.551-12.975 1.679-26.454 2.569-39.414 1.032-15.018.746-30.053 1.668-45.049zM644.663 497.504c-2.684-1.794-7.127-1.71-9.2 1.147-13.519 18.63-30.613 35.615-52.547 43.833-7.066 2.647-14.587 4.084-22.143 4.342-13.003-1.535-25.58-6.694-35.955-14.856-7.638-6.009-16.343 6.847-8.424 12.635 22.626 16.537 52.491 21.677 79.093 12.605 23.388-7.976 43.492-27.345 51.639-50.766 1.171-3.367.7-6.825-2.463-8.939zM597.817 576.923c-1.787-3.456-6.125-4.496-9.364-2.332l-.484.356c-.097.06-.193.12-.29.18-2.964 1.673-5.94 3.324-8.841 5.106.403-.246.805-.492 1.208-.739-2.942 1.654-5.896 3.288-8.766 5.064-.94.582-1.699 2.225-1.758 3.29-.061 1.091.162 2.08.739 3.013 1.291 2.088 3.817 2.833 6.09 1.919 4.461-1.795 9.006-3.384 13.445-5.232-.482.174-.964.349-1.446.523 1.556-.556 3.096-1.123 4.626-1.738.449-.139.898-.277 1.347-.416 3.727-1.151 5.187-5.72 3.495-8.994z" class="colorc48370 svgShape"/><ellipse cx="460.195" cy="445.681" fill="#d38989" rx="34.327" ry="23.79" class="colord38989 svgShape"/><ellipse cx="660.238" cy="445.681" fill="#d38989" rx="34.327" ry="23.79" class="colord38989 svgShape"/><path fill="#fcebee" d="M485.286 637.821s-34.536 11.884-45.826 25.877c-11.29 13.992-4.516 25.282-7.903 19.637-3.387-5.645 92.578 118.545 92.578 118.545l36.128-54.683 65.647 63.715s81.123-64.706 93.542-86.545c12.419-21.839 13.548-54.58 13.548-54.58l-38.435-31.966s-89.141 89.544-137.688 79.383c-48.547-10.161-71.59-79.383-71.59-79.383zM317.194 1340.498s-45.955 124.103-66.277 239.26c-20.322 115.158-42.902 510.307-24.838 505.791s309.345-2.181 392.891.038c83.546 2.22 313.861-11.328 313.861-11.328l-56.498-778.713s-320.587-9.327-404.133 10.995c-83.546 20.322-155.007 33.957-155.007 33.957z" class="colorfcebee svgShape"/><path fill="#d37360" d="M748.519,755.59s-116.957-152.194-258.732-140.45c-141.775,11.744-21.407,280.446-104.171,345.927-82.764,65.482-36.78,180.64,74.579,264.185,111.359,83.546,211.955-72.256,200.043-124.19-11.912-51.934,166.469-45.16,170.985-126.448,4.516-81.288-82.704-219.026-82.704-219.026Z" class="colord37360 svgShape"/><path fill="#f29181" d="M720.448,786.308s-96.587-125.686-213.668-115.988c-117.082,9.699-17.678,231.6-86.027,285.677-68.349,54.077-30.374,149.178,61.589,218.172,91.963,68.995,175.039-59.671,165.201-102.56s137.475-37.294,141.205-104.424c3.729-67.13-68.3-180.878-68.3-180.878Z" class="colorf29181 svgShape"/><path fill="#e4ad9a" d="M374.157 1293.41s-17.738-91.802-18.867-105.35c-1.129-13.548-7.903-41.773 19.193-53.063 27.096-11.29 58.708-47.418 71.127-40.644 12.419 6.774 11.29 16.935 11.29 16.935 0 0 39.515-18.064 53.063-32.741 13.548-14.677 23.709-5.645 27.096 0 3.387 5.645 14.763 44.031 14.763 44.031 0 0 13.462 11.29 13.462 18.064s-13.462 37.257-13.462 37.257c0 0 20.236-13.548 13.462 7.903-6.774 21.451-38.386 90.32-53.063 99.352-14.677 9.032-138.063 8.256-138.063 8.256zM858.374 941.723s41.565-117.252 40.588-130.812-19.222-48.778-47.737-55.749c-28.514-6.971-65.325-37.785-76.549-29.174-11.224 8.61-8.54 18.475-8.54 18.475 0 0-41.83-11.746-57.482-24.155-15.652-12.409-24.296-1.917-26.771 4.184-2.475 6.1-7.787 45.782-7.787 45.782 0 0-11.557 13.233-10.511 19.926s19.053 34.732 19.053 34.732c0 0-22.085-10.261-12.08 9.887 10.005 20.148 51.871 83.31 67.767 89.967 15.896 6.657 120.05 16.938 120.05 16.938z" class="colore4ad9a svgShape"/><ellipse cx="595.827" cy="889.59" fill="#fcebee" rx="41.208" ry="53.841" class="colorfcebee svgShape"/><path fill="#3a769b" d="M366.581 1135.857c-20.197-4.196-40.635-5.859-61.201-7.2-21.778-1.421-43.765-1.593-65.537-.02-40.41 2.92-81.64 13.724-115.222 37.217-3.614 2.528.166 8.461 4.075 6.514 33.86-16.856 70.385-25.357 107.84-29.555 21.077-2.363 42.267-2.742 63.454-2.463 4.88.064 9.758.203 14.634.36-.317.498-.573 1.037-.675 1.628-.096.556-.117 1.123-.183 1.684-4.715-1.393-10.973 2.08-9.58 8.363 5.119 23.08 9.642 46.289 13.512 69.611.352 2.119.651 4.243.985 6.363 2.339 21.899 5.443 43.687 8.963 65.435.02.126.069.228.095.349-.429.588-.795 1.216-1.023 1.903-2.994.932-5.988 1.864-8.976 2.811-5.331 1.689-3.133 9.645 2.316 8.37 3.765-.881 7.542-1.715 11.315-2.561 1.001.319 2.078.422 3.192.173 7.784-1.745 15.512-3.641 23.228-5.66-.04-.085-.08-.17-.12-.255 1.85-1.052 3.143-2.949 3.208-5.355.099-3.694-3.206-7.19-7.085-6.609-4.242.635-8.458 1.469-12.664 2.354-1.892-23.091-5.545-46.209-9.235-69.053-1.929-11.942-4.029-23.855-6.29-35.737-.209-2.068-.463-4.133-.649-6.203-.531-5.912-1.015-11.823-1.425-17.745-.25-3.612-.343-7.344-.649-11.029 2.475 1.196 5.273-1.965 3.126-4.095-1.481-1.441-2.877-2.964-4.257-4.503 14.819.517 29.629 1.054 44.457.349 3.139-.149 3.421-4.807.371-5.441zM1011.054 1077.698l.053-.035c-4.958-6.09-11.077-11.388-16.711-16.854-.293-.284-.595-.557-.888-.84-3.706-3.74-7.45-7.444-11.407-10.948-.53-.469-1.085-.907-1.617-1.373-1.507-1.407-2.977-2.852-4.492-4.25-12.116-11.177-24.25-22.373-36.703-33.176-19.37-16.803-39.025-33.101-59.178-48.845-6.598-7.48-12.754-15.319-18.178-23.759-5.382-8.375-18.642.053-13.038 8.256 19.965 29.223 46.952 51.702 74.559 73.369 12.823 10.064 25.806 19.93 38.364 30.325.964.798 1.905 1.623 2.864 2.427.516.502 1.04.995 1.555 1.498 11.393 11.119 22.36 22.986 34.336 33.47 6.375 5.58 14.56-3.023 10.481-9.266z" class="color3a769b svgShape"/><path fill="#3a769b" d="M1072.805 919.217c-51.952-43.87-108.701-84.178-169.905-114.147-4.412-2.16-8.335 3.204-5.578 6.389-3.466 3.048-4.622 8.595.289 11.705 8.958 5.671 17.889 11.385 26.826 17.088-.313.38-.6.806-.819 1.33-15.258 36.584-29.73 73.589-45.835 109.809-3.587 8.066 8.243 13.178 12.377 5.572 9.047-16.645 17.147-33.869 24.771-51.205 3.728-8.477 7.304-17.02 10.734-25.622 3.588-8.999 8.614-18.776 10.188-28.332.313-1.898-.097-3.561-.939-4.879 43.495 27.828 86.804 55.956 130.153 84.006 6.77 4.381 13.724-6.66 7.739-11.714zM384.42 921.476c-.193-11.839-.388-23.679-.583-35.519-.385-23.352-.773-46.703-1.165-70.055-.164-9.763-15.309-10.237-15.246-.373.123 19.432.55 38.863.681 58.295.061 8.998.209 17.991.489 26.985.059 1.913.109 3.826.163 5.739.058 3.921.116 7.843.174 11.765.162 10.861 1.071 21.984-1.455 32.644-2.293 9.674 12.663 13.019 15.057 3.381 2.667-10.735 2.065-21.896 1.886-32.862z" class="color3a769b svgShape"/><path fill="#dbb9c0" d="M868.63,1338.613c-38.191,1.131-76.401,1.389-114.594,2.4-35.555,.941-71.128,2.693-106.634,4.768-72.127,4.216-144.196,9.355-216.166,15.719-24.05,2.126-48.249,4.098-72.341,6.743-1.46-.533-3.128-.431-4.346,.474-14.899,1.69-29.751,3.659-44.492,6.121-4.437,.741-3.674,7.026,.773,6.893,13.79-.412,27.578-1.217,41.361-2.201-8.668,90.065-15.119,180.37-22.158,270.572-7.084,90.78-14.231,181.555-21.153,272.347-3.908,51.258-7.945,102.509-11.403,153.798-.508,7.535,12.483,8.824,13.266,1.233,4.707-45.598,7.221-91.504,10.653-137.214,3.477-46.309,6.83-92.626,10.276-138.936,6.841-91.96,13.545-183.93,20.156-275.906,3.51-48.836,7.221-97.699,9.763-146.598,21.128-1.622,42.243-3.563,63.336-5.125,13.432-.995,26.866-1.956,40.3-2.914-6.468,46.533-9.654,93.715-13.555,140.508-3.81,45.715-7.183,91.468-10.34,137.232-6.393,92.66-11.255,185.441-14.814,278.252-2.002,52.227-3.709,104.465-4.933,156.717-.211,9.02,13.81,9.011,13.995,0,1.91-92.936,5.092-185.831,9.518-278.682,4.448-93.31,10.21-186.551,17.059-279.715,2.016-27.414,4.016-54.837,6.25-82.234,1.974-24.207,4.302-48.429,5.385-72.697,19.014-1.342,38.03-2.64,57.053-3.854,56.476-3.601,112.989-6.183,169.506-8.848-2.116,45.248-2.93,90.592-4.109,135.867-1.231,47.284-2.655,94.562-3.939,141.845-2.6,95.809-5.111,191.622-7.508,287.436-1.338,53.487-3.054,106.982-4.003,160.476-.16,9.047,13.009,9.29,13.905,.45,.946-9.322,1.862-18.646,2.751-27.973,.221-2.323-.603-4.201-1.913-5.558,2.092-83.597,3.402-167.23,5.073-250.831,1.916-95.875,3.898-191.751,5.434-287.633,.824-51.46,2.78-102.996,2.519-154.471,11.515-.545,23.03-1.084,34.545-1.651,6.671-.328,13.345-.673,20.018-1.015-.621,22.147-.175,44.352-.307,66.5-.141,23.733-.23,47.468-.503,71.199-.555,48.086-1.226,96.163-2.287,144.241-2.12,95.999-5.979,191.983-11.447,287.849-2.793,48.964-6.172,97.882-9.642,146.8-.276,.702-.476,1.472-.513,2.366-.156,3.773-.308,7.546-.455,11.319-.356,9.153,13.353,8.558,14.047-.308,7.408-94.526,12.326-189.276,16.117-284.01,3.799-94.937,5.892-189.962,5.952-284.977,.034-53.783-.181-107.67-2.359-161.415,31.902-1.632,63.821-3.208,95.753-3.67,7.513-.109,8.654-11.911,1.151-11.689Z" class="colordbb9c0 svgShape"/><path fill="#dbb9c0" d="M851.576,1435.258c-.083-12.696-.096-25.397-.339-38.091-.267-13.984,.437-28.426-2.387-42.163-.603-2.932-4.887-3.565-5.51-.24-2.413,12.882-1.872,26.138-2.053,39.212-.17,12.282-.176,24.567-.248,36.851-.134,23.008-.271,46.015-.484,69.022-.423,45.674-.811,91.354-1.566,137.024-1.549,93.743-3.667,187.465-6.614,281.176-1.633,51.938-3.358,103.87-5.276,155.799-.335,9.064,13.695,8.662,14.053-.345,3.667-92.294,6.218-184.629,7.931-276.98,1.742-93.939,2.728-187.894,2.75-281.85,.006-26.471-.084-52.944-.257-79.414Z" class="colordbb9c0 svgShape"/><path fill="#3a769b" d="M581.998,1232.947c-.064,.263-.106,.533-.166,.797-2.715-1.905-6.726-1.777-8.907,1.243-3.176,4.4-2.644,11.088-2.965,16.307-.299,4.853-.439,9.718-.408,14.581,.069,10.828-.009,22.909,2.716,33.462,1.577,6.107,11.992,5.035,12.41-1.211,.748-11.185,2.253-22.333,3.65-33.459,.555-4.423,1.078-8.849,1.587-13.278,.654-5.681,1.75-11.455,1.917-17.175,.165-5.665-8.49-6.794-9.834-1.268Z" class="color3a769b svgShape"/><path fill="#c48370" d="M458.768 1114.992c-1.328-1.096-2.766-1.662-4.211-1.793-.471-2.853-5.079-4.489-6.796-1.702l-.236.384c-.276.143-.482.338-.709.517-.306-.595-.925-.452-1.865.45-.287.248-.573.497-.859.745-.856.745-1.705 1.495-2.533 2.27-1.347 1.262-2.675 2.538-3.982 3.842-2.468 2.462-4.938 4.922-7.395 7.394-5.274 5.307-10.401 10.934-16.019 15.884-.06.042-.118.088-.178.13.007.005.014.01.021.015-.069.061-.135.127-.204.188-2.793 2.436-4.285 6.626-1.776 9.905 2.452 3.206 6.511 3.869 9.905 1.776 6.799-4.191 13.174-9.337 19.424-14.297 6.149-4.88 12.124-9.973 17.939-15.247 2.875-2.608 2.349-8.087-.524-10.46zM548.633 1124.078c-13.541 14.972-26.825 29.88-43.227 41.856-15.819 11.55-32.738 20.195-51.188 26.671-8.678 3.046-2.376 16.589 6.342 13.036 19.749-8.048 38.088-19.228 54.491-32.81 15.221-12.603 29.445-28.023 38.26-45.832 1.44-2.908-2.616-5.2-4.677-2.921zM560.728 1181.318c-14.656 6.961-28.311 16.218-42.117 24.75-13.64 8.429-27.96 16.54-40.856 26.067-6.22 4.595.678 15.272 7.468 11.467 7.882-4.417 15.173-10.298 22.635-15.399 5.498-3.759 10.971-7.559 16.395-11.425 13.739-9.79 28.046-19.099 40.688-30.262 3.091-2.729-1.04-6.706-4.213-5.2zM537.857 1244.105c-1.643-2.476-4.34-2.908-6.903-1.722-8.33 3.854-17.018 6.995-25.181 11.213-2.885 1.491-4.575 5.231-2.971 8.277 1.558 2.958 5.139 4.485 8.277 2.971 8.578-4.141 16.74-9.2 25.056-13.836 2.298-1.282 3.19-4.691 1.722-6.903zM762.066 796.848c-12.5-8.012-24.73-16.339-36.708-25.116-13.396-9.816-25.96-20.664-38.925-31.023-4.126-3.297-9.381 3.451-5.773 7.125 22.521 22.94 48.137 43.433 74.765 61.408 3.149 2.125 7.853.223 9.517-2.877 1.913-3.563.33-7.462-2.877-9.517zM729.857 825.741c-8.404-5.754-16.702-11.744-25.308-17.197-4.966-3.147-9.769-6.573-14.85-9.534-5.549-3.235-11.233-5.937-16.957-8.834-2.418-1.224-4.663 1.929-2.733 3.836 4.24 4.188 8.358 8.424 12.894 12.298 4.281 3.655 8.767 7.049 13.195 10.524 8.631 6.771 17.519 13.229 26.349 19.739 6.783 5.001 14.409-6.038 7.41-10.83zM722.47 849.427c-.938-.256-1.877-.492-2.821-.726l1.005.248c-1.268-.354-2.546-.758-3.829-1.073-1.889-.464-3.824-.762-5.732-1.135-.693-.136-1.385-.261-2.078-.4-.493-.099-.979-.202-1.48-.121-2.446.397-2.68 4.093-.177 4.633.03.158.144.243.341.255.211.114.421.229.632.345.605.329 1.218.64 1.824.967 1.245.671 2.491 1.355 3.762 1.976 1.842.901 3.763 1.625 5.629 2.47 2.192.993 4.734.306 5.668-2.067.89-2.262-.404-4.732-2.744-5.373zM805.575 771.297c-3.237-1.703-6.353-3.596-9.418-5.586-3.387-2.199-6.84-4.373-10.059-6.819-2.407-1.829-4.764-3.711-7.101-5.628-1.814-1.488-3.959-4.308-6.624-4.171-1.756.09-3.347 1.294-3.901 2.951-.6 1.794-.052 3.4 1.208 4.753 2.363 2.537 4.589 5.185 7.067 7.621 2.458 2.416 4.99 4.724 7.57 7.006 4.459 3.943 9.505 7.325 14.539 10.482 2.786 1.747 6.968 1.004 8.664-1.946 1.584-2.755 1.158-7.031-1.946-8.664z" class="colorc48370 svgShape"/><polygon fill="#5e3724" points="906.343 2631.232 1665.176 2608.652 1665.176 2665.854 895.68 2677.144 906.343 2631.232" class="color5e3724 svgShape"/><path fill="#844c2c" d="M757.594,1249.415s267.816-9.221,480.068-20.079c212.252-10.857,496.759-23.107,496.759-23.107v70.957s-643.529,26.491-695.463,30.18c-51.934,3.69-316.345,0-316.345,0l-17.026-62.961,52.007,5.008Z" class="color844c2c svgShape"/><path fill="#844c2c" d="M737.516,1307.367l89.578,1174.46s450.083,6.774,551.693,0c101.61-6.774,355.634-23.709,355.634-23.709l-30.384-1179.677-966.521,28.926Z" class="color844c2c svgShape"/><path fill="#5e3724" d="M1681.677,1275.84c-110.13,3.004-220.245,6.774-330.36,10.313-7.712-.283-15.415-.544-23.108-.764-122.756-3.517-245.603-2.862-368.301,2.352-67.964,2.888-135.867,7.121-203.665,12.658-4.287,.35-8.045,3.139-8.159,7.768-.006,.227,.041,.46,.06,.69-3.545,1.015-2.658,6.557,1.377,6.641,.964,.02,1.929,.004,2.893,.021,1.043,.576,2.201,.91,3.438,.807,3.05-.253,6.103-.471,9.154-.718,26.519,.075,53.052-.854,79.564-1.324,31.387-.556,62.765-1.406,94.149-2.136,61.178-1.424,122.353-3.03,183.525-4.728,75.102-2.085,150.2-4.343,225.297-6.632,46.615,1.561,93.215,3.698,139.848,4.45,65.69,1.06,131.756-1.505,196.236-14.985,8.175-1.709,6.33-14.639-1.947-14.413Z" class="color5e3724 svgShape"/><path fill="#bce4e5" d="M771.726 1353.972s34.659 313.849 34.659 345.461l808.362-49.676s29.354-297.142 15.806-311.147c-13.548-14.005-858.828 15.362-858.828 15.362zM806.555 1768.986s67.163 607.845 67.163 639.457l808.362-49.676s-3.15-591.138-16.698-605.143c-13.548-14.005-858.828 15.362-858.828 15.362z" class="colorbce4e5 svgShape"/><path fill="#5e3724" d="M878.632,2482.528l-51.538,508.478s79.249,20.237,79.249,0,57.922-508.478,57.922-508.478h-85.634Z" class="color5e3724 svgShape"/><polygon fill="#5e3724" points="1682.08 2461.608 1734.421 2975.963 1648.617 2966.168 1618.624 2465.839 1682.08 2461.608" class="color5e3724 svgShape"/><path fill="#fcebee" d="M1507.869,1113.859s97.094,21.827,108.384,24.838c11.29,3.011,39.139-65.482,76.772-48.171,37.633,17.311,.033,85.804-4.123,84.299-4.156-1.505,35.735,27.849,17.671,47.418-18.064,19.569-64.729-3.763-69.998-21.075l-119.674-3.763-9.032-83.546Z" class="colorfcebee svgShape"/><path fill="#d37360" d="M1544.749,1206.23s27.096-105.167-18.064-135.649-209.469-202.944-323.76-256.709c-114.291-53.765-143.645-23.971-143.645-23.971,0,0,11.783,244.171,15.801,298.865s-42.802,150.038-42.802,150.038c0,0,485.373,17.272,512.469-32.574Z" class="colord37360 svgShape"/><path fill="#f29181" d="M1059.28,789.9s-48.923,25.589-54.945,92.733c-6.021,67.144-23.894,372.732,27.944,356.17,51.838-16.561,140.653-349.864,27-448.903Z" class="colorf29181 svgShape"/><ellipse cx="1041.216" cy="994.297" fill="#fcebee" rx="22.58" ry="52.574" class="colorfcebee svgShape"/><path fill="#fcebee" d="M1104.879,2280.722s-92.008,37.924-102.626,42.8c-10.619,4.876-49.643-57.924-83.809-34.501-34.166,23.423,14.471,84.575,18.312,82.389,3.842-2.186-30.514,33.488-9.402,49.723,21.112,16.235,63.162-14.65,65.429-32.603l117.316-23.937-5.219-83.87Z" class="colorfcebee svgShape"/><path fill="#d37360" d="M1084.142,2377.998s-44.482-99.074-5.124-136.751c39.358-37.677,172.153-235.429,275.712-307.738s137.527-47.905,137.527-47.905c0,0,29.657,242.649,34.941,297.236,5.284,54.587,67.546,140.645,67.546,140.645,0,0-475.47,99.063-510.602,54.514Z" class="colord37360 svgShape"/><path fill="#f29181" d="M1492.257,1885.603s52.544,16.952,69.828,82.112c17.284,65.16,86.55,363.33,32.659,355.769-53.892-7.561-197.764-321.056-102.487-437.881Z" class="colorf29181 svgShape"/><ellipse cx="1544.609" cy="2084.006" fill="#fcebee" rx="22.58" ry="52.574" transform="rotate(-9.731 1544.613 2084.014)" class="colorfcebee svgShape"/><path fill="#d37360" d="M865.559,1660.11s13.353-80.535,107.401-92.578c94.048-12.043,123.656,13.548,119.592,53.439-4.064,39.891-30.769,28.601-63.279,18.064-32.51-10.537-98.112,7.527-105.659,21.075-7.547,13.548-34.252,29.354-48.766,20.322-14.514-9.032-9.289-20.322-9.289-20.322Z" class="colord37360 svgShape"/><path fill="#f29181" d="M1087.85,1614.457s48.206-53.662,128.718,10.501c80.512,64.162,92.15,107.759,70.303,136.339-21.847,28.58-37.846-1.353-58.819-35.238-20.973-33.886-81.641-70.945-93.971-66.075-12.331,4.87-40.971-3.485-48.315-22.059-7.344-18.574,2.084-23.467,2.084-23.467Z" class="colorf29181 svgShape"/><path fill="#d37360" d="M1236.445,1487.716s63.536-.382,92.8,116.121c29.263,116.503,16.341,159.488-14.582,162.906-30.924,3.418-28.152-32.821-27.194-76.249,.958-43.429-26.734-122.619-38.56-129.266-11.826-6.648-29.467-37.07-25.779-57.387,3.688-20.317,13.315-16.125,13.315-16.125Z" class="colord37360 svgShape"/><path fill="#d37360" d="M1227.034,1483.02s45.68-57.256,128.971,.636c83.291,57.892,96.894,100.522,76.385,130.723-20.508,30.201-37.841,1.545-60.32-30.678s-84.727-64.576-96.815-58.771c-12.088,5.805-41.058-.345-49.234-18.325-8.176-17.98,1.013-23.586,1.013-23.586Z" class="colord37360 svgShape"/><path fill="#f29181" d="M1633.881 1603.734s2.591 73.199-98.322 83.467c-100.913 10.268-138.988-13.241-143.078-49.517-4.09-36.276 27.722-25.804 65.76-15.975 38.039 9.83 106.354-6.128 111.752-18.403 5.398-12.275 31.393-26.464 49.304-18.137s14.584 18.564 14.584 18.564zM1050.599 1636.657s2.591 73.199-98.322 83.467c-100.913 10.268-138.988-13.241-143.078-49.517-4.09-36.276 27.722-25.804 65.76-15.975 38.039 9.83 106.354-6.128 111.752-18.403 5.398-12.275 31.393-26.464 49.304-18.137 17.91 8.327 14.584 18.564 14.584 18.564z" class="colorf29181 svgShape"/><path fill="#994739" d="M1100.221 1605.492c-.7-1.742-2.311-3.542-4.09-4.235-4.273-1.663-8.141.172-10.303 3.986-3.609 6.367-5.502 13.847-6.066 21.124-.361 4.661-.105 9.522 1.168 14.036.693 2.459 3.146 4.111 5.71 3.73 2.927-.434 4.565-3.091 4.369-5.89-.116-1.651.475-3.438.753-5.046.214-1.232.418-2.46.665-3.687.425-2.12.963-4.188 1.662-6.235 1.401-4.104 3.79-8.012 6.029-11.716.971-1.607.769-4.415.104-6.068zM1307.182 1758.036c-.236-1.759-1.275-3.521-2.699-4.58-.969-.714-2.051-1.146-3.244-1.297-.114-.014-.223.01-.336.002 1.029-.272 1.083-.584.14-.937-.242-.108-.483-.217-.723-.33-.42-.197-.836-.401-1.248-.613-.601-.308-1.175-.662-1.758-1.001-2.413-1.611-4.659-3.441-6.677-5.53.443.469.887.939 1.33 1.408-.459-.485-.917-.971-1.376-1.456.107-1.063.324-2.113.775-3.095 1.081-2.353-.412-5.249-2.528-6.351-2.209-1.15-5.226-.602-6.649 1.584-1.022 2.6-2.044 5.2-3.066 7.801-.022.134-.044.267-.065.401-.03.184-.051.369-.075.555-1.318 1.907-1.903 4.462-.976 6.624.891 2.078 1.9 3.881 3.015 5.663.435.98.931 1.933 1.498 2.841 2.738 4.383 6.984 7.768 11.811 9.582 3.225 1.211 6.917-.602 8.355-3.573.079-.164.121-.327.186-.491 2.792-1.125 4.747-3.956 4.311-7.206zM1296.799 1527.42c-.169-.755-.368-1.518-.548-2.276-.38-1.991-.867-4.003-1.542-5.994-3.537-12.767-8.926-25.384-18.802-34.372-5.735-5.219-12.655-8.66-20.312-9.862-3.675-.577-7.557-.486-11.208.196-4.731.884-9.313 2.513-11.638 6.968-1.867 3.577-.392 9.59 4.311 10.226 1.98-.22 3.959-.441 5.939-.661.491.801 1.34 1.405 2.553 1.377 9.457-.221 19.369 4.217 26.181 10.644.326.308.623.641.939.957 1.265 1.97 2.401 4.026 3.4 6.155 2.863 6.101 4.505 12.603 6.91 18.869 1.248 3.252 3.879 5.673 7.597 5.17 3.122-.422 6.533-3.31 6.163-6.816-.02-.185-.075-.382-.098-.569.051-.004.103-.008.154-.012zM1439.549 1606.61c-1.205-2.517-4.516-4.357-7.303-3.167-4.784 2.042-9.919 3.118-15.123 3.151-4.302.027-8.492-.418-12.641-1.74-2.258-.719-4.472-1.144-6.377.761-2.35 2.35-1.625 5.637.636 7.427-.826 1.131-1.311 2.554-1.278 4.25.09 4.565 3.884 7.191 8.179 6.971 11.29-.578 22.088-4.285 31.787-9.98 2.601-1.527 3.361-5.08 2.12-7.673zM1636.649 1594.292c-.738-.534-1.587-.984-2.353-1.44l1.422.848c-3.504-2.228-6.965-4.498-10.628-6.46.448.24.896.481 1.343.721-1.713-1.019-3.396-2.009-5.146-2.957.435.236.869.473 1.304.71-.976-.58-1.945-1.173-2.924-1.747-2.395-1.405-5.912-.718-7.285 1.825-.654 1.21-.999 2.664-.596 4.021.424 1.43 1.235 2.369 2.421 3.264.972.734 1.874 1.6 2.843 2.35-.369-.315-.738-.629-1.107-.944 2.852 2.441 5.756 4.821 8.768 7.061 1.359 1.103 2.73 2.255 4.181 3.214 1.414.934 3.043 1.455 4.755 1.222 1.602-.218 3.434-1.212 4.356-2.576 1.956-2.896 1.599-6.973-1.354-9.111zM830.931 1643.656c-2.275-2.892-6.276-3.628-9.493-1.81-15.722 8.884-22.497 29.447-16.851 46.226 1.249 3.711 6.065 5.842 9.653 4.279 3.835-1.671 5.62-5.697 4.279-9.653-.137-.404-.271-.809-.393-1.218-.067-.226-.116-.357-.156-.451-.158-.631-.235-1.347-.315-1.925-.106-.756-.18-1.517-.227-2.278-.006-.104-.007-.208-.013-.312.312-1.536.687-3.063 1.07-4.534.33-1.27.721-2.532 1.111-3.785.607-1.951 1.429-3.902 2.472-5.663 2.202-3.715 5.022-6.558 8.391-9.223 2.863-2.265 2.487-7.09.471-9.653zM1051.949 1636.795c-.452-1.353-1.253-2.352-2.402-2.999-.275-.192-.555-.375-.84-.55-.079-.047-.19-.095-.284-.144-1.191-.68-2.296-1.29-3.53-1.881.451.216.903.433 1.354.649-2.26-1.287-4.468-2.658-6.745-3.915.367.203.733.406 1.099.609-.644-.375-1.279-.765-1.905-1.169-.906-.584-2.496-.739-3.509-.407-1.021.334-1.858.9-2.495 1.771-1.346 1.84-1.213 4.537.515 6.136 1.132 1.048 2.262 2.102 3.412 3.129 1.517 1.354 2.903 2.847 4.413 4.21-.35-.353-.7-.706-1.051-1.058.761.778 1.464 1.525 2.241 2.254.432.287.865.574 1.297.862.729.394 1.499.58 2.309.559.549.106 1.087.068 1.615-.116.806-.094 1.541-.389 2.206-.882.838-.629 1.519-1.416 2.023-2.335.394-.729.58-1.499.559-2.31.123-.82.029-1.625-.282-2.414zM1089.107 2364.302c-2.466-5.148-3.763-10.892-5.485-16.323-1.493-4.71-2.93-9.444-4.469-14.139-.711-6.138-.704-12.335.102-18.488.546-4.167-2.07-8.254-6.334-8.994-.917-.159-1.867-.111-2.795.082-.57-1.381-1.201-2.711-1.94-3.931-2.339-3.86-8.149-1.497-8.066 2.665.099 4.967 2.049 10.399 3.285 15.216-.513 17.763 3.836 35.155 13.201 50.496 4.157 6.81 16.001.726 12.5-6.583zM627.314 860.809c-.506-10.888-3.293-22.83-12.364-29.834-19.847-15.325-46.971 1.343-57.547 19.762-14.911 25.968-7.969 56.512 6.602 80.985 1.501 2.521 3.752 3.548 6.001 3.529 8.676 6.542 20.11 6.396 29.668-.795 10.126-7.619 16.468-20.278 20.896-31.851 5.043-13.179 7.399-27.692 6.744-41.795zm-18.902 31.079c-3.076 10.728-15.964 44.789-31.849 32.214-9.684-16.539-16.822-37.254-10.465-56.281 2.72-8.141 7.341-15.542 14.133-20.88 5.845-4.593 14.615-8.122 22.01-5.471 7.75 2.778 9.315 12.434 9.722 19.571.594 10.407-.682 20.839-3.552 30.846zM1118.244 877.112c-6.397-30.636-19.579-61.536-44.79-81.258-2.936-2.297-6.702 2.344-4.184 4.977 39.777 41.595 43.014 104.865 41.192 159.28-1.982 59.197-11.337 117.341-28.816 173.998-10.197 33.052-22.923 64.437-39.726 94.706-3.557 6.408 6.445 12.047 9.902 5.597 15.028-28.048 28.513-57.319 39.911-87.032 11.665-30.41 19.877-61.929 25.482-93.995 5.104-29.203 8.282-59.11 8.311-88.778.029-29.231-1.291-58.808-7.281-87.495z" class="color994739 svgShape"/><path fill="#994739" d="M1067.403 977.456c-1.847-8.13-.078-16.859-4.18-24.696-4.224-8.069-14.527-13.277-23.226-9.107-8.096 3.881-9.803 12.828-10.018 20.968-.302 11.445-.09 22.932.259 34.373.35 11.454.964 22.899 1.839 34.325.601 7.844.116 19.286 7.559 24.34 9.486 6.44 18.041-2.653 22.904-10.143 5.548-8.545 8.575-18.322 9.819-28.393 1.771-14.342-.559-28.269-4.956-41.666zm-18.001 64.224c-.201.265-.922.968-1.585 1.671-.176-.871-.408-1.782-.445-2.223-.198-2.341-.352-4.686-.535-7.029-.662-8.487-1.179-16.985-1.551-25.489-.357-8.177-.581-16.36-.67-24.545-.081-7.441-.673-15.278.177-22.68.17-1.483.27-4.228 1.986-4.491 2.611-.399 4.109 3.884 4.572 5.657 2.125 8.131.793 16.388 3.977 24.391.811 2.037 2.16 3.236 3.694 3.805 2.897 17.92 1.839 35.855-9.621 50.932zM1557.372 2104.965c-1.803-11.046-4.928-21.99-7.469-32.886-2.622-11.239-4.76-22.672-7.772-33.811-1.329-4.917-3.718-8.712-8.914-10.158-4.886-1.36-10.29.936-13.241 4.964-3.215 4.39-4.04 10.209-5.112 15.416-.747 3.63-1.313 7.292-1.795 10.965-3.295 14.349-3.718 29.253-.939 43.932 1.67 8.821 4.075 18.811 9.584 26.118 5.958 7.902 15.929 10.973 24.749 5.871 11.069-6.404 12.786-18.909 10.908-30.411zm-23.678 18.35c-3.818-2.864-5.662-8.295-7.146-12.627-.208-.608-.338-1.24-.534-1.852 1.63-1.355 2.637-3.446 2.242-6.239-1.594-11.274-2.063-22.602-1.107-33.957.428-5.082 1.104-10.143 2.022-15.16.154-.842.322-1.683.486-2.525.851 3.547 1.703 7.095 2.556 10.642 2.185 9.088 4.323 18.187 6.474 27.283 1.869 7.903 5.22 16.789 4.918 24.972-.176 4.772-3.648 14.161-9.912 9.462zM1184.504 866.818c-5.225 0-10.101 2.788-10.797 8.426-.58 4.698 3.166 10.796 8.426 10.796 5.225 0 10.101-2.788 10.797-8.426.579-4.698-3.166-10.797-8.426-10.797zM1221.892 872.694c-.434-1.732-1.272-3.24-2.509-4.529.336.391 2.044 2.358 1.559 1.791l-.071-.083c-.042-.05-.085-.099-.128-.149-.081-.094-.161-.187-.242-.281-.171-.198-.343-.397-.515-.595-.202-.232-.405-.462-.608-.692-.005-.005-.007-.011-.012-.016-.066-.075-.066-.074-.031-.033-.125-.143-.25-.285-.376-.427-.936-1.01-2.047-1.715-3.332-2.114-1.161-.591-2.407-.862-3.736-.813-1.329-.049-2.575.222-3.736.813-1.285.4-2.396 1.105-3.332 2.114-.542.711-1.084 1.421-1.627 2.132-.862 1.533-1.295 3.179-1.301 4.937.109.845.217 1.691.325 2.536.463 1.742 1.331 3.253 2.603 4.533.782.622 1.571 1.237 2.356 1.854 1.124.715 2.337 1.111 3.639 1.187 1.259.288 2.523.253 3.792-.107.802-.313 1.604-.625 2.406-.938 1.239-.625 2.23-1.504 2.973-2.639.643-.628 1.086-1.375 1.329-2.239.606-1.149.894-2.385.864-3.71-.096-.844-.192-1.687-.287-2.531zM1181.142 823.12c-5.225 0-10.101 2.788-10.797 8.426-.579 4.698 3.166 10.797 8.426 10.797 5.225 0 10.101-2.788 10.797-8.426.579-4.698-3.166-10.797-8.426-10.797zM1333.086 2026.832c-.351-.767-.701-1.533-1.052-2.3-.651-1.124-1.526-2.004-2.625-2.64-.615-.556-1.327-.927-2.135-1.113-.732-.376-1.51-.552-2.333-.528-.809-.18-1.611-.152-2.407.084-1.265.1-2.434.517-3.506 1.251-1.694.911-3.214 1.72-4.661 2.845-.078.062-.157.123-.236.185-.474.353-.856.799-1.146 1.335-.432.543-.807.967-1.152 1.515-.16.254-.319.508-.478.762-.882 1.294-1.38 2.705-1.494 4.233-.369 1.452-.348 2.915.063 4.389.296 1.459.914 2.746 1.856 3.86.751 1.266 1.776 2.278 3.076 3.036.915.418 1.829.835 2.744 1.252 1.944.583 3.904.643 5.877.178.896-.34 1.792-.681 2.688-1.022 1.741-.938 3.144-2.241 4.208-3.909.229-.316.458-.632.686-.948.103-.142.207-.284.308-.427.029-.038.056-.078.081-.12.399-.928.798-1.857 1.197-2.785.105-.596.211-1.193.317-1.789.1-.844.197-1.688.292-2.533l.229-2.401c-.133-.804-.265-1.608-.398-2.412zM1378.397 2007.177c-.494-.987-1.022-1.955-1.584-2.904-.791-1.352-1.923-2.412-3.059-3.482-.653-.393-1.306-.787-1.959-1.18-1.071-.519-2.188-.746-3.352-.681-.796-.124-1.571-.041-2.324.248-1.204.183-2.292.663-3.265 1.441-4.882 4.636-5.666 7.814-6.35 12.482.037 1.05.074 2.099.112 3.149.301.969.602 1.939.903 2.908l1.595 2.546c.947 1.244 2.121 2.173 3.524 2.787.86.619 1.817.981 2.871 1.088 1.008.38 2.044.482 3.108.306 1.055.101 2.065-.069 3.028-.508 1.496-.328 2.829-1.011 4-2.046 4.272-5.618 5.19-11.004 2.753-16.156zM1366.359 1956.846c-.747-.622-1.495-1.243-2.242-1.865-.915-.417-1.829-.835-2.744-1.252-1.465-.505-2.941-.615-4.427-.331-.989-.021-1.921.201-2.794.664-.954.233-1.792.682-2.516 1.345-.871.469-1.572 1.121-2.104 1.955-1.063 1.078-1.791 2.367-2.184 3.865-.394 1.327-.685 1.426-.826 2.241-.008.043-.015.087-.022.13-.02.119-.04.239-.06.358-.037.229-.072.458-.106.688-.15 2.126.24 4.147 1.169 6.062.916 1.847 2.221 3.359 3.913 4.536 1.758 1.201 3.7 1.883 5.825 2.046 2.126.15 4.147-.239 6.062-1.169 1.575-5.643 3.149-11.287 4.724-16.931-.556-.781-1.112-1.562-1.668-2.343z" class="color994739 svgShape"/><path fill="#b6bfbf" d="M1322.524,1241.782h68.656s64.167-93.279,100.529-172.419,0-183.946,0-183.946l-69.709-33.456-99.476,389.821Z" class="colorb6bfbf svgShape"/><path fill="#20284a" d="M1524.584,578.943c-42.904-24.831-67.735-3.399-71.134,40.625-3.399,44.024-31.469,232.395-31.469,232.395l37.266,17.873s3.239-12.035,5.478-36.866c2.279-24.871,37.266-23.711,36.147-43.064-1.159-19.353-9.037-24.671,2.239-39.386,11.316-14.675,15.794-11.276,13.555-40.345-2.239-29.029-11.276-20.592,7.917-40.385,19.193-19.793,42.905-66.016,0-90.847Zm-22.312,51.941c-9.357,0-16.954-7.597-16.954-16.954s7.597-16.954,16.954-16.954,16.914,7.597,16.914,16.954-7.557,16.954-16.914,16.954Z" class="color20284a svgShape"/><path fill="#fcebee" d="M1421.768 937.589c-3.256 10.646-5.275 21.614-7.939 32.426-2.264 9.186-4.688 18.331-7.007 27.504-4.627 18.297-9.825 36.449-14.738 54.67-11.249 41.718-23.73 83.167-34.138 125.098-1.016 4.094 4.838 5.898 6.277 1.911 13.973-38.688 26.099-77.986 37.905-117.391 5.679-18.955 10.851-38.049 16.299-57.07 6.099-21.294 12.997-42.66 17.864-64.243 2.13-9.447-11.786-11.854-14.524-2.904zM1443.178 913.749c-.213-1.149-.971-2.148-1.605-3.099-.054-.099-.107-.197-.161-.296-.367-.504-.733-1.008-1.099-1.512l-1.459-1.168c-.553-.239-1.105-.479-1.658-.718-.877-.285-1.76-.343-2.648-.174-.613-.012-1.19.126-1.731.414-.611.147-1.144.438-1.6.871-.561.306-1.008.733-1.34 1.279-.642.671-1.076 1.467-1.303 2.387-.011.047-.021.094-.03.141-.109.58-.217 1.16-.326 1.741-.002.295-.004.589-.007.883.019.496.011.992-.025 1.487-.05.388-.032.774.055 1.158.069.485.137.97.206 1.455.188.445.376.89.564 1.336.294.383.588.767.882 1.15.523.567 1.145.964 1.866 1.19.378.217.793.289 1.219.323 1.717.904 3.816 1.078 5.639.445 2.375-.824 4.237-2.951 4.655-5.446.204-1.219.138-2.592-.095-3.847z" class="colorfcebee svgShape"/></svg>