<svg xmlns="http://www.w3.org/2000/svg" viewBox="0 0 1600 1200"><g data-name="9" fill="#000000" class="color000 svgShape"><g data-name="Checklist Icon" fill="#000000" class="color000 svgShape"><circle cx="1155.34" cy="351.65" r="84.65" fill="#ffffff" class="colorfff svgShape"/><path d="M1155.34 438.8a87.15 87.15 0 1 1 87.15-87.15 87.25 87.25 0 0 1-87.15 87.15Zm0-169.3a82.15 82.15 0 1 0 82.15 82.15 82.24 82.24 0 0 0-82.15-82.15Z" fill="#000000" class="color000 svgShape"/><path d="m1142.82 395.63-40.94-31.58a8.27 8.27 0 0 1-1.5-11.62 8.27 8.27 0 0 1 11.62-1.5l28.81 22.22 56.78-62.76a8.3 8.3 0 0 1 11.71-.58 8.28 8.28 0 0 1 .58 11.7Z" fill="#000000" class="color000 svgShape"/></g><g data-name="Hand and credit card" fill="#000000" class="color000 svgShape"><path fill="#ffffff" d="M435.73 503.57s29.38-84.86 52.18-81.64 11.44 50.13 11.44 50.13Z" class="colorfff svgShape"/><path d="m431.37 508.52 2-5.76A434 434 0 0 1 451 460.45c14.26-29.11 26.43-42.51 37.24-41a16 16 0 0 1 11.41 7.15c9.66 14.22 2.42 44.75 2.11 46l-.28 1.13Zm55.24-84.18c-14.23 0-35 43-46.45 74.25l57-28.24c1.18-5.52 5.84-29.94-1.64-41a11.05 11.05 0 0 0-8-5 7.46 7.46 0 0 0-.91-.01Z" fill="#000000" class="color000 svgShape"/><path fill="#ffffff" d="M510.33 466.06s10.61-37.76 25.64-40.6c12.76-2.41 16.06 12.14 16.47 19.74Z" class="colorfff svgShape"/><path d="m506.4 470.8 1.52-5.41c1.13-4 11.5-39.34 27.59-42.38a13.57 13.57 0 0 1 11.4 2.47c6.74 5.28 7.85 16.32 8 19.58l.09 1.65Zm32.29-43.11a12.1 12.1 0 0 0-2.25.23c-9.41 1.78-17.9 21.3-22 33.31l35.36-17.52c-.54-5.31-2.33-11.43-6-14.3a8.07 8.07 0 0 0-5.11-1.72Z" fill="#000000" class="color000 svgShape"/><path fill="#ffffff" d="m774 578.16-147.53 73.09-151.81 75.2a19 19 0 0 1-25.4-8.57l-82.6-166.75a19 19 0 0 1 8.57-25.4L643.3 392.94l31.3-15.5A19 19 0 0 1 700 386l82.6 166.75a19 19 0 0 1-8.6 25.41Z" class="colorfff svgShape"/><path d="M466.26 730.93a21.57 21.57 0 0 1-6.88-1.14A21.29 21.29 0 0 1 447 719l-82.6-166.75a21.45 21.45 0 0 1 9.7-28.75l268.09-132.8 31.3-15.5a21.44 21.44 0 0 1 28.75 9.7l82.6 166.75a21.45 21.45 0 0 1-9.7 28.75L475.77 728.69a21.39 21.39 0 0 1-9.51 2.24ZM683 378a16.43 16.43 0 0 0-7.29 1.72l-31.3 15.5L376.34 528a16.45 16.45 0 0 0-7.44 22l82.6 166.75a16.44 16.44 0 0 0 22.05 7.44l299.37-148.27a16.47 16.47 0 0 0 7.44-22l-82.6-166.75a16.37 16.37 0 0 0-9.48-8.29A16.6 16.6 0 0 0 683 378Z" fill="#000000" class="color000 svgShape"/><path d="M402.06 536.4h102.86v8H402.06z" transform="rotate(-26.21 453.445 540.373)" fill="#000000" class="color000 svgShape"/><path d="M621.62 516.13h52.5v8h-52.5z" transform="rotate(-26.35 647.925 520.171)" fill="#000000" class="color000 svgShape"/><path d="M556.1 548.09h54.5v8h-54.5z" transform="rotate(-26.35 583.42 552.136)" fill="#000000" class="color000 svgShape"/><path d="M510.07 575.72h35v8h-35z" transform="rotate(-26.35 527.634 579.767)" fill="#000000" class="color000 svgShape"/><path d="M435.05 609.31h48.86v8h-48.86z" transform="rotate(-26.07 459.483 613.329)" fill="#000000" class="color000 svgShape"/><path d="M444.16 609.87h210.86v8H444.16z" transform="rotate(-26.29 549.57 613.878)" fill="#000000" class="color000 svgShape"/><path d="M457.38 645.34h135.86v8H457.38z" transform="rotate(-26.25 525.358 649.392)" fill="#000000" class="color000 svgShape"/><circle cx="584.21" cy="471.03" r="23" fill="#000000" class="color000 svgShape"/><path d="M584.24 496.55a25.64 25.64 0 0 1-8.18-1.35 25.5 25.5 0 1 1 31-35.48 25.53 25.53 0 0 1-22.82 36.83Zm-.06-46a20.5 20.5 0 1 0 18.4 11.39 20.34 20.34 0 0 0-18.4-11.4Z" fill="#000000" class="color000 svgShape"/><circle cx="559.57" cy="483.24" r="23" fill="#ffffff" class="colorfff svgShape"/><path d="M559.59 508.75a25.52 25.52 0 1 1 11.3-2.66 25.31 25.31 0 0 1-11.3 2.66Zm-.05-46a20.5 20.5 0 1 0 18.4 11.4 20.44 20.44 0 0 0-18.4-11.41Z" fill="#000000" class="color000 svgShape"/><path fill="#ffffff" d="M652.5 1017.5h-195c-5.63-25.48-12.23-50.88-18.87-74.39C420.51 879 402.09 828.8 402.09 828.8c-35.53-67.22-45.69-99-45.69-99-6.58-35.8 33.8-130 33.8-130l45.27 91.4c15.07-21.41 62.43-130.8 62.43-130.8 48.32-3.85 31.93 73.46 31.93 73.46l-10.33 70.4 64.52-32c14.39 39.21 4.16 144.74 4.16 144.74 15.19 67.53 55.9 178 63.2 197.52Z" class="colorfff svgShape"/><path d="M656.09 1020h-200.6l-.43-2c-5.09-23-11.43-48-18.84-74.25C418.83 882.23 401 833 399.8 829.82c-35.16-66.55-45.68-99-45.78-99.27l-.08-.31c-6.64-36.12 32.3-127.57 34-131.45l2.14-5 45.72 92.32c16.82-27.5 59.4-125.71 59.85-126.75l.59-1.38 1.5-.12c11.23-.9 20.14 2.3 26.46 9.49 17.57 20 8.72 64.08 8.13 66.9l-9.62 65.6 62.74-31.08 1 2.62c14.12 38.45 5.11 137.2 4.34 145.39 15.21 67.36 55.15 175.73 63 196.81Zm-196.58-5H648.9c-8.21-22-48-130.21-63.16-197.48l-.09-.39v-.4c.1-1 9.58-100.8-3.12-140.94l-66.2 32.81 11-75.28c.1-.44 9.14-44.29-7-62.64-4.95-5.63-11.93-8.29-20.82-7.9-5.82 13.41-47.77 109.53-62.07 129.84l-2.42 3.44-44.62-90.25c-8.15 19.92-36.94 93.29-31.57 123.37.8 2.43 11.7 34.57 45.47 98.45l.14.31c.18.5 18.66 51 36.6 114.49 7.22 25.57 13.43 49.98 18.47 72.57Z" fill="#000000" class="color000 svgShape"/><path d="m416.37 718.35-3.57-3.51a240.53 240.53 0 0 0 22.2-27.42l4.09 2.87a242 242 0 0 1-22.72 28.06ZM516 810.12l-3.67-3.39 1.83 1.69-1.84-1.69c.09-.09 8.49-9.41 13.14-26.48 4.29-15.75 6.17-41.54-9.26-75l4.54-2.1c16.13 34.94 14.05 62.07 9.47 78.67-4.98 18.18-13.81 27.89-14.21 28.3ZM774 578.16l-147.53 73.09 16.83-258.31 31.3-15.5A19 19 0 0 1 700 386l82.6 166.75a19 19 0 0 1-8.6 25.41Z" fill="#000000" class="color000 svgShape"/><path d="m623.69 655.42 17.21-264.08 32.59-16.14a21.44 21.44 0 0 1 28.75 9.7l82.6 166.75a21.48 21.48 0 0 1-9.7 28.75Zm22-260.88-16.44 252.54 143.67-71.16a16.45 16.45 0 0 0 7.44-22l-82.6-166.75a16.44 16.44 0 0 0-22-7.44ZM652.5 1017.5h-195c-5.63-25.48-12.23-50.88-18.87-74.39 45.88 23.31 129.21 60.44 212.75 71.38Z" fill="#000000" class="color000 svgShape"/><path d="M656.09 1020h-200.6l-.43-2c-5.09-23-11.43-48-18.84-74.25l-1.55-5.5 5.09 2.59c43 21.83 127.61 60.09 211.94 71.13l1.5.2Zm-196.58-5H637.7c-77.32-12.64-153-46-195.13-67.11 6.57 23.6 12.26 46.11 16.94 67.11Z" fill="#000000" class="color000 svgShape"/></g><g data-name="Hands and Mobile" fill="#000000" class="color000 svgShape"><rect width="340.4" height="631.41" x="653" y="226.12" rx="42.9" fill="#000000" class="color000 svgShape"/><path d="M950.5 860H695.9a45.45 45.45 0 0 1-45.4-45.4V269a45.45 45.45 0 0 1 45.4-45.4h254.6a45.44 45.44 0 0 1 45.4 45.4v545.6a45.44 45.44 0 0 1-45.4 45.4ZM695.9 228.62A40.44 40.44 0 0 0 655.5 269v545.6a40.44 40.44 0 0 0 40.4 40.4h254.6a40.44 40.44 0 0 0 40.4-40.4V269a40.44 40.44 0 0 0-40.4-40.4Z" fill="#000000" class="color000 svgShape"/><path fill="#ffffff" d="M980.12 277.61V806a35.67 35.67 0 0 1-35.67 35.66H702a35.68 35.68 0 0 1-35.26-30.29 36.49 36.49 0 0 1-.4-5.37V277.61A35.65 35.65 0 0 1 702 242h36.7v9.86a16.15 16.15 0 0 0 8 13.95 16 16 0 0 0 8.21 2.24h136.65a16.19 16.19 0 0 0 16.2-16.19V242h36.69a35.66 35.66 0 0 1 35.67 35.61Z" class="colorfff svgShape"/><path d="M944.46 844.19H702a38.4 38.4 0 0 1-37.73-32.41 39.12 39.12 0 0 1-.43-5.75V277.61A38.2 38.2 0 0 1 702 239.46h39.2v12.36a13.72 13.72 0 0 0 6.75 11.79 13.49 13.49 0 0 0 6.94 1.9h136.67a13.71 13.71 0 0 0 13.7-13.69v-12.36h39.2a38.2 38.2 0 0 1 38.16 38.15V806a38.21 38.21 0 0 1-38.16 38.19ZM702 244.46a33.19 33.19 0 0 0-33.16 33.15V806A33.17 33.17 0 0 0 702 839.19h242.46A33.2 33.2 0 0 0 977.62 806V277.61a33.19 33.19 0 0 0-33.16-33.15h-34.2v7.36a18.71 18.71 0 0 1-18.7 18.69H754.84a18.69 18.69 0 0 1-18.69-18.69v-7.36Z" fill="#000000" class="color000 svgShape"/><path fill="#ffffff" d="M708 374h231v173H708z" class="colorfff svgShape"/><path d="M941.5 549.5h-236v-178h236Zm-231-5h226v-168h-226Z" fill="#000000" class="color000 svgShape"/><path d="M792.24 417.31v30.51a6.91 6.91 0 0 0 3.18 5.81c6.86 4.4 24.26 12.63 46.59 1.61a6.85 6.85 0 0 0 3.79-6.15v-31.78Z" fill="#000000" class="color000 svgShape"/><path d="M819.74 463.22a48 48 0 0 1-25.67-7.49 9.34 9.34 0 0 1-4.33-7.91v-33h58.55v34.28a9.42 9.42 0 0 1-5.17 8.4 52.48 52.48 0 0 1-23.38 5.72Zm-25-43.41v28a4.4 4.4 0 0 0 2 3.71c6.16 4 22.79 12 44.14 1.47a4.36 4.36 0 0 0 2.38-3.91v-29.27Z" fill="#000000" class="color000 svgShape"/><ellipse cx="819.02" cy="416.68" fill="#ffffff" rx="26.78" ry="14.18" class="colorfff svgShape"/><path d="M819 433.35c-16.42 0-29.28-7.32-29.28-16.67S802.6 400 819 400s29.27 7.33 29.27 16.68-12.83 16.67-29.27 16.67Zm0-28.35c-14.31 0-24.28 6.15-24.28 11.68s10 11.67 24.28 11.67 24.27-6.15 24.27-11.67S833.33 405 819 405Z" fill="#000000" class="color000 svgShape"/><ellipse cx="819.18" cy="415.57" rx="13.22" ry="6.77" fill="#000000" class="color000 svgShape"/><path d="M736.51 426.3v30.51a6.88 6.88 0 0 0 3.17 5.81c6.86 4.4 24.26 12.63 46.6 1.62a6.86 6.86 0 0 0 3.78-6.16V426.3Z" fill="#000000" class="color000 svgShape"/><path d="M764 472.21a48.15 48.15 0 0 1-25.67-7.48 9.37 9.37 0 0 1-4.32-7.92v-33h58.55v34.28a9.4 9.4 0 0 1-5.18 8.4 52.45 52.45 0 0 1-23.38 5.72Zm-25-43.41v28a4.37 4.37 0 0 0 2 3.71c6.16 4 22.79 12 44.14 1.47a4.36 4.36 0 0 0 2.39-3.91V428.8Z" fill="#000000" class="color000 svgShape"/><ellipse cx="763.28" cy="425.67" fill="#ffffff" rx="26.78" ry="14.18" class="colorfff svgShape"/><path d="M763.28 442.34c-16.41 0-29.27-7.32-29.27-16.67S746.87 409 763.28 409s29.28 7.33 29.28 16.68-12.86 16.66-29.28 16.66Zm0-28.35C749 414 739 420.15 739 425.67s10 11.67 24.27 11.67 24.28-6.15 24.28-11.67S777.59 414 763.28 414Z" fill="#000000" class="color000 svgShape"/><ellipse cx="762.66" cy="424.57" rx="13.22" ry="6.77" fill="#000000" class="color000 svgShape"/><path d="M780.61 451.5V482a6.88 6.88 0 0 0 3.17 5.8c6.86 4.4 24.26 12.63 46.6 1.62a6.86 6.86 0 0 0 3.78-6.16V451.5Z" fill="#000000" class="color000 svgShape"/><path d="M808.11 497.42a48.18 48.18 0 0 1-25.68-7.49 9.36 9.36 0 0 1-4.32-7.91V449h58.55v34.28a9.4 9.4 0 0 1-5.18 8.4 52.47 52.47 0 0 1-23.37 5.74Zm-25-43.42v28a4.37 4.37 0 0 0 2 3.7c6.16 3.95 22.79 12 44.14 1.48a4.39 4.39 0 0 0 2.39-3.92V454Z" fill="#000000" class="color000 svgShape"/><ellipse cx="807.38" cy="450.87" fill="#ffffff" rx="26.78" ry="14.18" class="colorfff svgShape"/><path d="M807.38 467.54c-16.41 0-29.27-7.32-29.27-16.67s12.86-16.68 29.27-16.68 29.28 7.33 29.28 16.68-12.86 16.67-29.28 16.67Zm0-28.35c-14.3 0-24.27 6.16-24.27 11.68s10 11.67 24.27 11.67 24.28-6.15 24.28-11.67-9.97-11.68-24.28-11.68Z" fill="#000000" class="color000 svgShape"/><ellipse cx="806.76" cy="450.55" rx="13.22" ry="6.77" fill="#000000" class="color000 svgShape"/><rect width="3.93" height="12.44" x="838.82" y="435.62" fill="#ffffff" rx="1.77" class="colorfff svgShape"/><rect width="3.93" height="3.53" x="838.82" y="429.21" fill="#ffffff" rx="1.77" class="colorfff svgShape"/><rect width="3.93" height="12.44" x="826.25" y="473.33" fill="#ffffff" rx="1.77" class="colorfff svgShape"/><rect width="3.93" height="3.53" x="826.25" y="466.91" fill="#ffffff" rx="1.77" class="colorfff svgShape"/><rect width="3.93" height="12.44" x="739.06" y="435.49" fill="#ffffff" rx="1.77" class="colorfff svgShape"/><rect width="3.93" height="3.53" x="739.06" y="450.81" fill="#ffffff" rx="1.77" class="colorfff svgShape"/><path fill="#ffffff" d="m739.36 526.94 150.75-28.39a7.35 7.35 0 0 0 5.83-8.78 7.36 7.36 0 0 0-8.94-5.58l-149 36.57a3.18 3.18 0 0 0-2.34 3.75 3.17 3.17 0 0 0 3.7 2.43Z" class="colorfff svgShape"/><path d="M738.75 529.5a5.66 5.66 0 0 1-1.33-11.16l149-36.58a9.85 9.85 0 1 1 4.16 19.24l-150.76 28.4a5.61 5.61 0 0 1-1.07.1Zm150-43a4.62 4.62 0 0 0-1.16.15l-149 36.57a.67.67 0 0 0 .28 1.3l150.78-28.42a4.86 4.86 0 0 0-.89-9.63Z" fill="#000000" class="color000 svgShape"/><path fill="#ffffff" d="m761.87 512.5 147.32-42.77a7.34 7.34 0 0 0 4.95-9.3 7.34 7.34 0 0 0-9.43-4.7l-144.77 50.75a3.17 3.17 0 0 0-2 3.95 3.16 3.16 0 0 0 3.93 2.07Z" class="colorfff svgShape"/><path d="M761 515.13a5.66 5.66 0 0 1-1.84-11l144.76-50.75a9.85 9.85 0 1 1 6 18.76L762.57 514.9a5.64 5.64 0 0 1-1.57.23Zm146.19-57.32a4.71 4.71 0 0 0-1.61.28l-144.81 50.75a.66.66 0 0 0 .4 1.26l147.32-42.77a4.86 4.86 0 0 0 .81-9 4.79 4.79 0 0 0-2.15-.52ZM707.83 316h32v5h-32zM707.83 325.5h32v5h-32zM707.83 335.5h32v5h-32zM862.07 329.16a6.83 6.83 0 0 0 4.26-6.44 6.92 6.92 0 0 0-6.73-6.72 6.83 6.83 0 0 0-2.67 13.16 16.51 16.51 0 0 0-13.65 13.21 2.13 2.13 0 0 0 2.1 2.51h28.24a2.13 2.13 0 0 0 2.1-2.51 16.51 16.51 0 0 0-13.65-13.21ZM920.76 322H899l-1-4.44a2 2 0 0 0-2-1.56h-6a2 2 0 0 0-2 2 2 2 0 0 0 2 2h4.41l1.15 5 2.07 11a2.41 2.41 0 0 0 2.38 2h1a3.5 3.5 0 1 0 4.88 0h5.12a3.5 3.5 0 1 0 4.88 0h2a2.41 2.41 0 0 0 2.38-2l2.22-11.83a1.87 1.87 0 0 0-1.73-2.17ZM723.5 559.57l4.09 8.3 9.16 1.33-6.62 6.45 1.56 9.12-8.19-4.3-8.19 4.3 1.57-9.12-6.63-6.45 9.16-1.33 4.09-8.3zM763.5 559.57l4.09 8.3 9.16 1.33-6.62 6.45 1.56 9.12-8.19-4.3-8.19 4.3 1.57-9.12-6.63-6.45 9.16-1.33 4.09-8.3zM803.5 559.57l4.09 8.3 9.16 1.33-6.62 6.45 1.56 9.12-8.19-4.3-8.19 4.3 1.57-9.12-6.63-6.45 9.16-1.33 4.09-8.3zM842.5 559.57l4.09 8.3 9.16 1.33-6.62 6.45 1.56 9.12-8.19-4.3-8.19 4.3 1.57-9.12-6.63-6.45 9.16-1.33 4.09-8.3zM881.5 559.57l4.09 8.3 9.16 1.33-6.62 6.45 1.56 9.12-8.19-4.3-8.19 4.3 1.57-9.12-6.63-6.45 9.16-1.33 4.09-8.3zM934.23 608.28q-3.78 3.6-11 4.36v7.13H918v-7.06a36.18 36.18 0 0 1-8.91-1.72 19.35 19.35 0 0 1-6.68-3.57l2.89-6.42a20.94 20.94 0 0 0 5.73 3.22 25.38 25.38 0 0 0 7 1.62V593.1a46.59 46.59 0 0 1-7.54-2.39 13 13 0 0 1-5.06-3.81 10.26 10.26 0 0 1-2-6.66 11.75 11.75 0 0 1 3.76-8.78q3.75-3.63 10.88-4.33v-7.19h5.22V567a30.39 30.39 0 0 1 7 1.21 22.75 22.75 0 0 1 5.95 2.68l-2.61 6.43a26.33 26.33 0 0 0-10.31-3.44v12.86a48.74 48.74 0 0 1 7.61 2.35 13.08 13.08 0 0 1 5.09 3.79 10.13 10.13 0 0 1 2.07 6.65 11.63 11.63 0 0 1-3.86 8.75Zm-21-25a14.4 14.4 0 0 0 4.77 2.12v-11.33a8.76 8.76 0 0 0-4.83 2 5 5 0 0 0-1.6 3.75 4 4 0 0 0 1.69 3.42Zm15 20.49a4.69 4.69 0 0 0 1.62-3.63 4.14 4.14 0 0 0-1.72-3.47 14.6 14.6 0 0 0-4.9-2.19v11.22a9.38 9.38 0 0 0 5.02-1.97ZM708 600h180v8H708z" fill="#000000" class="color000 svgShape"/><path fill="#ffffff" d="M710 638.15h229v58H710z" class="colorfff svgShape"/><path d="M941.5 698.65h-234v-63h234Zm-229-5h224v-53h-224Z" fill="#000000" class="color000 svgShape"/><path d="M762.28 670.21h-10.83v10.7h-6.54v-10.7h-10.83v-6.12h10.83v-10.7h6.54v10.7h10.83ZM802.56 674.67h-10.4l-1.94 4.78h-7.1l10.88-24.6h6.86l10.89 24.6h-7.24Zm-2-5.13-3.16-7.87-3.16 7.87ZM813.7 654.85h11.63a16.22 16.22 0 0 1 7.17 1.51 11.34 11.34 0 0 1 4.85 4.29 13.08 13.08 0 0 1 0 13 11.34 11.34 0 0 1-4.85 4.29 16.22 16.22 0 0 1-7.17 1.51H813.7Zm11.35 19a7.12 7.12 0 0 0 5.08-1.8 7.35 7.35 0 0 0 0-9.91 7.16 7.16 0 0 0-5.08-1.79h-4.39v13.5ZM842.73 654.85h11.63a16.22 16.22 0 0 1 7.17 1.51 11.34 11.34 0 0 1 4.85 4.29 13.08 13.08 0 0 1 0 13 11.34 11.34 0 0 1-4.85 4.29 16.22 16.22 0 0 1-7.17 1.51h-11.63Zm11.35 19a7.12 7.12 0 0 0 5.08-1.8 7.35 7.35 0 0 0 0-9.91 7.16 7.16 0 0 0-5.08-1.79h-4.39v13.5Z" fill="#000000" class="color000 svgShape"/><path fill="#ffffff" d="M1153.6 1003.5h-195s-.19-15.94-1.83-37.22c-2.18-28.12-6.92-65.57-17.17-87.78 0 0-44.32-33.65-56-91-6.78-33.27-12-92-34-131 0 0-53-77-6-117l105 116 44.9 49V453.62S1032.1 499 1048.1 608l35.5 196.5 69.26 196.89Z" class="colorfff svgShape"/><path d="M1157.12 1006h-201v-2.47c0-.16-.21-16.11-1.82-37.06-2.12-27.3-6.73-64.34-16.7-86.38-5-4-45.38-37.83-56.43-92.09-1.52-7.48-3-16.32-4.53-25.69-5.49-33.24-12.31-74.59-29.15-104.49a177.86 177.86 0 0 1-20.89-44.09C816.62 581 822 554.65 842 537.6l1.85-1.58 106.62 117.8L991 698.08V446.82l4.4 5.18c1.6 1.88 39.25 47.17 55.17 155.64L1086 803.86Zm-196.07-5h189l-68.9-195.86v-.2l-35.5-196.5c-12.5-85.16-39.12-131.55-49.64-147.15v249.65l-49.24-53.75L843.41 543c-41.55 38.56 7.74 111.33 8.25 112.07l.12.19c17.3 30.74 24.22 72.58 29.77 106.23 1.54 9.32 3 18.13 4.5 25.51 11.35 55.71 54.63 89.18 55.06 89.51l.5.38.26.56c10.45 22.65 15.23 60.7 17.39 88.64 1.26 16.3 1.67 29.61 1.79 34.91Z" fill="#000000" class="color000 svgShape"/><circle cx="926.25" cy="319.77" r="9.25" fill="#ffffff" class="colorfff svgShape"/><path d="M926.25 330.52A10.75 10.75 0 1 1 937 319.77a10.76 10.76 0 0 1-10.75 10.75Zm0-18.5a7.75 7.75 0 1 0 7.75 7.75 7.76 7.76 0 0 0-7.75-7.77Z" fill="#000000" class="color000 svgShape"/><path d="M929.5 322.71V324h-6.19v-1l3.34-3.17a3.88 3.88 0 0 0 .76-.94 1.85 1.85 0 0 0 .2-.8 1.07 1.07 0 0 0-.4-.9 1.82 1.82 0 0 0-1.16-.31 2.36 2.36 0 0 0-2 .87l-1.05-.85a3.22 3.22 0 0 1 1.32-1 4.52 4.52 0 0 1 1.87-.37 3.41 3.41 0 0 1 2.18.65 2.11 2.11 0 0 1 .82 1.76 3 3 0 0 1-.29 1.29 5 5 0 0 1-1.1 1.36l-2.25 2.14ZM1153.5 999.5h-195s-.19-15.94-1.83-37.22c35 12.84 96.37 28.67 196.09 35.11Z" fill="#000000" class="color000 svgShape"/><path d="M1157 1002H956v-2.47c0-.16-.21-16.11-1.82-37.06l-.3-3.88 3.65 1.34c33.66 12.37 94.89 28.48 195.39 35l1.65.1Zm-196-5h155.48c-76.78-7.35-126.82-20.37-157-31.06 1 14.53 1.36 26.18 1.52 31.06Z" fill="#000000" class="color000 svgShape"/></g></g></svg>