<svg xmlns="http://www.w3.org/2000/svg" xmlns:xlink="http://www.w3.org/1999/xlink" enable-background="new 0 0 2854.327 2354.325" viewBox="0 0 2854.327 2354.325"><path fill="#ad263d" d="M1556.37 859.514s-129.266 333.228-184.981 721.943a63.558 63.558 0 0 0-.289 2.325c-4.107 38.949 46.259 58.32 70.116 27.26 8.332-10.847 17.007-21.357 22.558-35.424 23.355-59.188 44.479-107.899 74.212-196.684 4.176-12.469 17.012-78.266 21.059-90.458 23.238-69.998 173.915-334.163 146.206-372.082s-148.881-56.88-148.881-56.88z" class="colorad263d svgShape"/><path fill="#ff6161" d="M1780.377 1594.963c5.546-54.004 18.324-171.027 4.072-280.464-4.515-34.672 103.87-362.016 25.779-428.222-78.09-66.206-172.486-9.982-172.486-9.982s-8.193 313.498-2.521 432.719c2.408 50.624 38.646 217.767 66.26 292.566 6.844 18.539 77.632 5.692 78.896-6.617zM1923.179 837.796s-30.31 25.976-21.148 44.682c9.162 18.706 24.432-7.463 26.723-19.002 2.29-11.538-5.575-25.68-5.575-25.68z" class="colorff6161 svgShape"/><path fill="#8e4c42" d="M288.201 1703.02c47.587 230.536 251.729 403.85 496.359 403.85h1304.98c244.63 0 448.772-173.314 496.359-403.85H288.201z" class="color8e4c42 svgShape"/><path fill="#7c3d37" d="M721.051 1766.512s-116.558-7.485-156.123 16.04c-39.565 23.526 38.496 55.222 150.777 55.949s125.113-33.493 111.211-54.879c-13.902-21.387-105.865-17.11-105.865-17.11zM787.082 1858.475s55.338-14.436 76.992-32.08c21.654-17.644 44.11-5.984 28.872 23.073-15.238 29.057-72.982 36.054-94.636 31.353s-26.466-13.524-11.228-22.346zM1661.266 1742.185s164.411-15.238 194.887 8.02-60.15 36.09-101.052 34.486c-40.902-1.604-179.649-33.684-93.835-42.506zM1807.231 1797.523s52.932-3.208 67.368-17.644c14.436-14.436 38.496 1.604 26.466 17.644-12.03 16.04-66.394 23.542-85.327 20.593-18.933-2.949-35.9-17.331-8.507-20.593zM2010.326 1899.869a112.722 112.722 0 0 1-4.729-.736c-11.366-1.956-52.956-7.221-75.659 15.482-26.466 26.466 157.995 45.714 132.331 16.04-21.815-25.223-45.368-29.939-51.943-30.786zM2224.273 1795.804s-47.318-6.018-59.348 22.312c-12.03 28.329 146.767 29.07 140.351.63-6.416-28.441-81.003-22.942-81.003-22.942zM2211.441 1871.307s-77.794-13.634-74.586 20.05c3.208 33.684 137.143 26.466 121.103 9.624-16.041-16.842-46.517-29.674-46.517-29.674zM2298.86 1861.683s-23.681 16.842 6.605 26.466c30.287 9.624 102.467.157 100.863-19.571-1.604-19.727-47.318-41.381-107.468-6.895zM2049.436 2106.87s-23.258-39.072-72.982-42.28c-49.724-3.208-90.626 42.28-90.626 42.28h163.608zM2095.953 2041.747s-32.781 2.469-31.227 22.681c1.553 20.212 92.179 32.242 107.417 3.37 15.238-28.872-76.19-26.051-76.19-26.051zM853.649 2026.935s-64.962-17.683-79.398 5.575 102.656 31.677 103.458 22.254 4.932-22.431-24.06-27.829z" class="color7c3d37 svgShape"/><path fill="#ad263d" d="M1780.377 1594.963c5.546-54.004 18.324-171.027 4.072-280.464-3.013-23.139 44.25-176.616 52.822-295.844-29.524 37.789-95.359 129.784-108.303 213.799-16.797 109.022-2.036 184.355 0 250.017.816 26.303 2.785 78.728 1.597 128.375 22.252-.624 49.039-8.353 49.812-15.883z" class="colorad263d svgShape"/><path fill="#7c3d37" d="M743.436 1969.629a88.559 88.559 0 0 1-3.649-.63c-5.644-1.108-24.286-3.748-20.875 10.578 4.01 16.842 68.972 26.446 62.556 10.015-5.453-13.966-30.608-18.821-38.032-19.963zM1042.922 1904.945s-82.339-9.36-75.923 16.463c6.416 25.823 78.062 19.407 91.963 12.991 13.901-6.417 25.595-28.072-16.04-29.454z" class="color7c3d37 svgShape"/><path fill="#ad263d" d="M1426.302 601.242s-83.753 412.848 9.111 456.084c90.558 42.163 95.608-78.27 96.566-139.904s-12.098-255.575-105.677-316.18z" class="colorad263d svgShape"/><path fill="#1e1240" d="M1309.367 1698.375c4.159-16.943 15.02-14.917 37.562-22.3 11.353-4.277 14.532-9.396 14.67-9.647 6.112-11.074 3.936-98.951 3.936-98.951s28.548-1.872 45.811-3.054c16.67-1.142 56.245 8.653 56.245 8.653.485 9.207-30.825 115.207-31.242 121.319-.44 6.456-2.776 11.752-7.528 14.198-17.685 9.103-120.647 5.594-120.262-4.558a27.59 27.59 0 0 1 .808-5.66zM1705.251 916.393c-27.708-37.919-148.881-56.879-148.881-56.879s-67.899 175.041-126.488 419.379c44.451 13.966 122.335 23.061 155.104 25.905 1.438-6.176 2.657-11.024 3.495-13.55 23.238-69.999 144.478-336.936 116.77-374.855z" class="color1e1240 svgShape"/><path fill="#1e1240" d="M1806.337 1311.954c-2.192-40.24 81.176-360.155 3.892-425.677-78.09-66.206-172.486-9.982-172.486-9.982s-8.18 312.995-2.535 432.431c28.67 3.884 108.709 8.385 171.129 3.228zM1645.538 1698.375c4.159-16.943 15.02-14.917 37.562-22.3 11.353-4.277 14.532-9.396 14.67-9.647 6.112-11.074-9.014-86.389-9.014-86.389s34.616-4.308 51.919-4.418c24.432-.154 48.356 4.418 48.356 4.418.485 9.207-16.093 108.245-16.51 114.357-.44 6.456-2.776 11.752-7.528 14.198-17.686 9.103-120.647 5.594-120.262-4.558.081-2.153.393-3.977.807-5.661z" class="color1e1240 svgShape"/><path fill="#fff5f5" d="M1468.266 551.252c60.307-51.01 173.641-78.172 267.721-20.117 72.655 44.835 118.063 198.069 124.72 341.466 1.028 22.154.634 44.153-1.379 65.585-1.829 19.473-4.994 38.479-9.643 56.707-22.815 89.459-320.311 73.351-352.038 10.899-31.777-62.551-10.29-179.948-21.609-221.891-35.36-131.013-107.83-148.016-7.772-232.649z" class="colorfff5f5 svgShape"/><path fill="#311e69" d="M1683.861 507.762c-63.964 48.353-131.026 79.285-180.366 97.749-34.686 12.98-64.726 21.429-85.876 26.604 1.038 13.571 6.656 27.414 14.397 43.665 22.046-5.511 51.926-14.097 86.36-26.925 57.884-21.563 138.679-59.23 213.211-120.365a217.073 217.073 0 0 0-47.726-20.728zM1559.222 742.153c66.856-17.682 162.328-51.18 250.495-111.906-6.44-14.886-13.434-28.712-20.956-41.214-83.774 58.986-175.947 91.474-240.183 108.548-39.551 10.513-73.394 16.568-96.535 19.944 5.826 12.912 11.744 27.331 17.191 43.75 23.436-3.736 54.383-9.705 89.988-19.122zM1580.816 824.799c68.819-9.837 168.218-32.183 263.303-82.8-3.321-15.729-7.096-31.119-11.311-45.996-91.871 51.256-190.081 73.584-257.38 83.289-40.655 5.862-75.08 7.934-98.461 8.588 2.342 11.513 2.82 27.442 2.751 45.787 24.497-.726 59.55-2.928 101.098-8.868zM1857.646 830.354c-100.113 34.434-202.127 41.083-271.917 40.312-44.671-.481-81.849-3.96-106.369-7.01-.206 14.914-.338 30.577.123 46.198 25.475 2.998 61.577 6.098 104.657 6.608 3.827.045 7.737.069 11.745.069 70.39 0 167.713-7.486 265.01-38.982-.061-1.649-.113-3.297-.19-4.948a825.573 825.573 0 0 0-3.059-42.247zM1849.684 994.893c4.022-15.769 6.928-32.122 8.825-48.854-101.994 25.376-203.352 23.396-272.382 16.821-43.674-4.16-79.903-10.593-104.089-15.655 2.073 17.69 5.556 34.435 11.294 48.951 23.379 4.324 53.083 8.901 87.36 12.203 27.222 2.622 59.217 4.563 94.29 4.563 53.147 0 113.347-4.465 174.631-17.777.022-.083.049-.166.071-.252z" class="color311e69 svgShape"/><path fill="#ad263d" d="M1395.828 978.76c12.663 74.32 64.711 291.217 145.051 264.389 80.34-26.828-39.978-280.68-59.532-345.527-14.377-47.679-97.106 13.131-85.519 81.138z" class="colorad263d svgShape"/><path fill="#ad263d" d="M1519.034 1229.027s12.05-11.741 28.116-13.286 23.173 30.371 20.083 42.066c-3.09 11.695-22.215 29.848-35.207 33.439-12.992 3.591-21.232-24.216-16.649-38.429 4.584-14.212 3.657-23.79 3.657-23.79z" class="colorad263d svgShape"/><path fill="#5e2d28" d="m1211.473 1576.089 22.729 22.409 766.04-775.68c6.157-6.245 6.121-16.289-.081-22.49-6.264-6.263-16.429-6.226-22.648.081l-766.04 775.68z" class="color5e2d28 svgShape"/><path fill="#e5e5e5" d="M1308.854 1609.725c-16.979-10.407-95.553-64.895-126.225-86.212a19.461 19.461 0 0 0-24.053 1.423c-50.062 44.469-137.085 151.703-70.559 202.154 86.391 65.517 194.618-54.882 225.081-93.68 5.957-7.587 3.981-18.643-4.244-23.685z" class="colore5e5e5 svgShape"/><path fill="#c8c8ce" d="M1218.292 1581.457s-89.622 73.749-91.031 100.487c-1.409 26.738 76.736-48.896 91.031-100.487z" class="colorc8c8ce svgShape"/><path fill="#311e69" d="M1647.028 559.151s4.57 45.79 54.962 61.823c50.392 16.034 87.422 4.963 87.422 4.963l-3.054-19.47-139.33-47.316z" class="color311e69 svgShape"/><path fill="#ff6161" d="M1656.975 575.617c-22.938-30.23-20.648-63.061 6.038-72.991 68.265-25.402 315.35-1.379 376.36 88.572 47.834 70.526-41.883 296.304-110.239 270.284-40.092-15.262 28.377-204.622 19.724-221.928-12.452-24.908-248.179-6.341-291.883-63.937z" class="colorff6161 svgShape"/><path fill="#ad263d" d="M1521.506 1225.011s-19.465 8.033-19.156 26.263c.309 18.229-20.434 37.047-8.209 39.688 12.225 2.641 11.364-13.172 19.614-20.958 8.547-8.067 21.773-11.252 23.318-23.611 1.543-12.36-8.634-25.452-15.567-21.382z" class="colorad263d svgShape"/><path fill="#ff6161" d="M1934.437 833.831c-7.953.122-15.028 5.28-16.432 11.836-2.988 13.958-1.017 28.22-.985 36.689.026 6.834.145 45.324 17.749 26.057 7.206-7.887 20.603-8.677 23.271-20.022s15.987-41.835 1.485-49.808c-7.276-4-17.102-4.875-25.088-4.752z" class="colorff6161 svgShape"/><path fill="#8e4c42" d="M1003.191 1703.02s1.854 55.049 103.815 71.229c101.961 16.181 160.356-71.229 160.356-71.229h-264.171z" class="color8e4c42 svgShape"/><path fill="#ffbf80" d="m1462.612 411.812 7.137-17.054c1.874-2.437 4.626-4.052 7.678-4.422 5.96-.723 16.705-.792 29.377 4.745 2.865 1.252 5.062 3.661 6.133 6.597 1.705 4.673.803 24.176 2.578 26.139 2.13 2.355-27.571 7.84-47.249 2.071-7.695-2.256-10.543-11.719-5.654-18.076z" class="colorffbf80 svgShape"/><path fill="#ffbf80" d="M1396.753 462.768s-5.71-9.343 3.329-23.296 31.747-25.639 77.289-22.254c45.542 3.385 92.067 20.451 94.721 41.022 1.315 10.191 3.133 18.187-9.608 24.889-8.128 4.276-165.731-20.361-165.731-20.361z" class="colorffbf80 svgShape"/><path fill="#e8a35f" d="M1568.62 460.527c-17.032-25.117-92.188-43.86-151.761-25.394-35.781 11.091-15.941 34.292-15.941 34.292s14.27 22.332 72.513 27.928c67.539 6.49 109.498-15.725 95.189-36.826z" class="colore8a35f svgShape"/><path fill="#311e69" d="M1457.29 479.621s-17.058-5.173-20.364-15.241c-5.11-15.564 38.283-19.401 38.283-19.401s22.491-2.088 36.183 9.131c13.692 11.219 25.954 22.133 8.702 34.109-17.252 11.977-62.804-8.598-62.804-8.598z" class="color311e69 svgShape"/><path fill="#ff6161" d="m1507.515 465.449 38.719 44.852c4.481 6.826-12.625 41.891-29.054 40.184-4.809-.5-8.159-7.646-9.76-16.698l-7.224-50.258 7.319-18.08z" class="colorff6161 svgShape"/><path fill="#311e69" d="M1501.648 493.63c6.704-6.211 15.766-14.824 15.766-14.824s7.098 12.474 2.386 28.33a37.274 37.274 0 0 1-13.436 19.308l-4.716-32.814z" class="color311e69 svgShape"/><path fill="#ff6161" d="m1485.734 454.653 27.705 19.706c8.607 7.215 9.947 19.976 2.966 28.775-5.578 7.03-10.088 10.375-19.802 15.88-8.094 4.586-17.17.271-24.36-9.466-9.328-12.633-14.329-26.919-16.576-34.713-5.125-17.77 11.069-31.703 30.067-20.182z" class="colorff6161 svgShape"/><path fill="#ff6161" d="M1494.963 467.792c-.866-1.921-2.01-3.686-3.26-5.382-2.376-3.224-5.159-8.565 1.357-9.737 9.478-1.705 21.194 16.161 14.192 23.342-5.201 5.331-10.108-3.383-12.289-8.223z" class="colorff6161 svgShape"/><path fill="#fff5f5" d="M1482.768 486.053s-5.027 6.058-14.501 11.4c0 0 3.945 5.835 8.827 5.265 4.883-.569 8.609-8.392 5.674-16.665z" class="colorfff5f5 svgShape"/><path fill="#ad263d" d="M1487.158 511.054c7.082-7.804 22.695.124 28.663-22.72 1.113-4.261-1.381-10.683-2.989-14.405l.606.431c8.607 7.215 9.947 19.976 2.966 28.774-5.578 7.031-10.088 10.375-19.802 15.88-4.937 2.798-10.238 2.269-15.255-.768 1.657-.856 3.648-4.809 5.811-7.192zM1562.341 1272.252s9.066-18.166 1.672-21.378c-.668-.29-22.863 16.797-28.593 23.923s-13.365 22.591-5.984 25.421c7.38 2.829 32.905-27.966 32.905-27.966zM1972.806 848.973c55.867-48.09 104.525-201.811 66.567-257.775-56.677-83.563-273.914-110.22-359.215-93.221 65.362 10.83 200.688 29.946 265.392 65.205 88.27 48.101 73.297 85.279 63.372 144.833-5.427 32.566-26.103 96.926-36.116 140.958z" class="colorad263d svgShape"/><path fill="#a7f955" d="M1040.693 1203.209a3.053 3.053 0 0 1-1.639-5.632c36.791-23.345 90.871-13.025 93.155-12.573a3.053 3.053 0 0 1 2.405 3.586 3.048 3.048 0 0 1-3.587 2.405c-.535-.104-53.991-10.284-88.702 11.737a3.029 3.029 0 0 1-1.632.477z" class="colora7f955 svgShape"/><path fill="#a7f955" d="M1128.691 1186.722s14.504-14.398 30.924-6.034 22.096 15.618 26.097 17.541c4.001 1.923-9.789 10.674-28.782 6.373s-27.037-13.663-28.239-17.88zM1103.691 1186.27s-1.939-15.244 10.571-21.201c12.51-5.958 19.435-6.018 22.415-7.522 2.98-1.504 1.879 10.727-9.387 20.08-11.267 9.352-20.535 9.858-23.599 8.643z" class="colora7f955 svgShape"/><path fill="#a7f955" d="M1133.639 1218.756s-15.205 2.22-21.393-10.178c-6.188-12.398-6.376-19.32-7.935-22.272-1.559-2.951 10.691-2.077 20.25 9.015s10.237 20.348 9.078 23.435zM1077.612 1186.73s-6.101-11.432 1.971-19.88c8.072-8.448 13.512-10.573 15.409-12.652 1.897-2.079 4.699 7.891-1.375 18.641-6.073 10.751-13.225 13.93-16.005 13.891z" class="colora7f955 svgShape"/><path fill="#a7f955" d="M1106.165 1210.787s-12.389 3.798-19.135-5.742c-6.745-9.541-7.79-15.286-9.467-17.547-1.677-2.26 8.644-3.101 18.033 4.919 9.388 8.02 11.139 15.649 10.569 18.37zM1053.179 1192.741s-3.985-7.468 1.288-12.986c5.273-5.518 8.826-6.906 10.065-8.264 1.239-1.358 3.069 5.154-.898 12.176s-8.639 9.099-10.455 9.074z" class="colora7f955 svgShape"/><path fill="#a7f955" d="M1071.829 1208.455s-8.093 2.481-12.499-3.751c-4.406-6.232-5.088-9.985-6.184-11.462-1.096-1.476 5.647-2.025 11.779 3.213 6.133 5.24 7.277 10.222 6.904 12zM1078.247 1151.32a3.055 3.055 0 0 1-2.188-5.185c10.111-10.377 32.659-13.007 33.614-13.112 1.669-.197 3.186 1.017 3.374 2.695a3.054 3.054 0 0 1-2.694 3.375c-.213.024-21.336 2.496-29.919 11.305a3.047 3.047 0 0 1-2.187.922zM1071.964 1148.315a3.054 3.054 0 0 1-2.873-4.091l9.035-25.074a3.054 3.054 0 1 1 5.746 2.07l-9.035 25.074a3.054 3.054 0 0 1-2.873 2.021zM1061.067 1159.443a3.054 3.054 0 0 1-3.046-3.32c1.285-14.757-5.211-28.222-5.277-28.356a3.054 3.054 0 0 1 5.48-2.696c.3.608 7.318 15.079 5.882 31.583a3.054 3.054 0 0 1-3.039 2.789z" class="colora7f955 svgShape"/><path fill="#a7f955" d="M1095.764 1717.663a3.818 3.818 0 0 1-3.813-4.073c.04-.603 3.847-61.019-11.096-121.788-4.145-16.857-10.395-38.641-17.633-63.864-19.578-68.233-43.944-153.151-47.81-212.941-4.897-75.752 33.257-143.558 45.067-162.536l.195-.312a3.817 3.817 0 1 1 6.489 4.024l-.2.324c-11.506 18.488-48.682 84.526-43.931 158.008 3.813 58.968 28.053 143.448 47.53 211.328 7.259 25.299 13.528 47.147 17.708 64.147 15.235 61.957 11.342 123.506 11.301 124.12a3.821 3.821 0 0 1-3.807 3.563z" class="colora7f955 svgShape"/><path fill="#ffcce8" d="M1065.677 1159.753c-4.258-7.272-11.135-28.358 9.479-29.121s28.441 33.109 15.652 40.172c-9.321 5.147-21.426-4.723-25.131-11.051z" class="colorffcce8 svgShape"/><path fill="#ffdd92" d="M1077.943 1151.266c-.429-2.465.807-4.92 3.016-6.095 4.662-2.48 13.542-6.365 16.641-1.942 4.279 6.108-13.323 13.552-17.12 11.834-1.575-.712-2.267-2.245-2.537-3.797z" class="colorffdd92 svgShape"/><path fill="#ffcce8" d="M1077.985 1127.361c-6.377-3.873-20.61-17.403-4.872-26.674 15.737-9.271 36.09 13.821 29.1 24.705-5.094 7.933-18.678 5.34-24.228 1.969z" class="colorffcce8 svgShape"/><path fill="#ffdd92" d="M1083.969 1115.588c-1.372-1.739-1.442-4.173-.216-6.017 2.588-3.894 7.87-10.658 12.146-8.517 5.904 2.957-4.674 16.164-8.355 16.424-1.528.108-2.712-.795-3.575-1.89z" class="colorffdd92 svgShape"/><path fill="#ffcce8" d="M1055.872 1131.814c-4.601 3.853-18.589 11.187-21.573-3.197s19.87-23.902 26.348-15.761c4.721 5.933-.772 15.605-4.775 18.958z" class="colorffcce8 svgShape"/><path fill="#ffdd92" d="M1048.456 1124.209c-1.679.594-3.551.018-4.638-1.394-2.295-2.979-6.078-8.753-3.34-11.454 3.781-3.73 11.098 7.745 10.343 10.615-.313 1.191-1.308 1.859-2.365 2.233z" class="colorffdd92 svgShape"/><path fill="#ffcce8" d="M1106.182 1138.216c-2.196-3.997-5.606-15.505 5.557-15.614 11.163-.109 14.898 18.33 7.875 21.962-5.118 2.647-11.521-2.87-13.432-6.348z" class="colorffcce8 svgShape"/><path fill="#ffdd92" d="M1112.943 1133.806a3.139 3.139 0 0 1 1.721-3.253c2.559-1.273 7.419-3.244 9.031-.805 2.225 3.367-7.407 7.135-9.436 6.15-.842-.409-1.193-1.249-1.316-2.092z" class="colorffdd92 svgShape"/><path fill="#a7f955" d="M1023.394 1259.396a3.044 3.044 0 0 1-2.098-.835c-53.887-50.969-151.461-51.463-153.043-51.463h-.019a3.054 3.054 0 0 1-.008-6.109h.133c5.716 0 101.82.814 157.136 53.133a3.054 3.054 0 0 1-2.101 5.274z" class="colora7f955 svgShape"/><path fill="#a7f955" d="M869.188 1205.288s-6.108-26.739-30.731-29.044c-24.623-2.305-36.267 1.844-42.184 1.152-5.917-.692 3.436 19.132 28.059 27.891 24.622 8.76 40.465 3.92 44.856.001zM917.752 1210.534s8.595-26.046-11.291-40.749c-19.886-14.703-31.998-17.171-36.705-20.822-4.708-3.651-6.95 18.153 9.599 38.381s32.613 24.275 38.397 23.19z" class="colora7f955 svgShape"/><path fill="#a7f955" d="M854.205 1257.239s25.883 9.074 40.95-10.537c15.068-19.611 17.759-31.675 21.496-36.315s-18.022-7.284-38.552 8.889c-20.529 16.174-24.871 32.16-23.894 37.963zM963.285 1220.233s14.587-17.949 3.325-35.502-20.067-23.131-22.682-27.421c-2.615-4.29-10.923 12.222-3.948 33.128 6.974 20.907 18.421 28.915 23.305 29.795z" class="colora7f955 svgShape"/><path fill="#a7f955" d="M905.058 1252.645s20.411 10.879 35.482-3.536c15.071-14.415 18.86-24.126 22.569-27.514s-14.088-8.38-33.271 2.47-24.852 23.618-24.78 28.58zM1004.042 1239.095s9.528-11.724 2.172-23.19c-7.356-11.465-13.108-15.109-14.816-17.911-1.708-2.802-7.135 7.983-2.579 21.639 4.556 13.657 12.033 18.888 15.223 19.462z" class="colora7f955 svgShape"/><path fill="#a7f955" d="M966.008 1260.267s13.332 7.106 23.176-2.31c9.844-9.416 12.319-15.759 14.742-17.972 2.423-2.213-9.202-5.474-21.732 1.613-12.53 7.088-16.232 15.428-16.186 18.669zM894.395 1510.544a3.054 3.054 0 0 1-1.075-5.912c3.853-1.448 95.18-35.12 165.922-5.149a3.054 3.054 0 0 1-2.383 5.625c-68.463-29.008-160.469 4.897-161.391 5.242a3.09 3.09 0 0 1-1.073.194z" class="colora7f955 svgShape"/><path fill="#a7f955" d="M895.722 1508.322s-15.063-22.921-38.941-16.479c-23.877 6.441-33.338 14.396-39.124 15.815-5.786 1.419 9.902 16.727 36.034 16.333s39.287-10.464 42.031-15.669zM943.06 1496.274s-1.044-27.408-24.814-34.238c-23.769-6.83-35.98-4.912-41.666-6.689s-.171 19.437 22.401 32.61c22.573 13.172 39.038 11.353 44.079 8.317z" class="colora7f955 svgShape"/><path fill="#a7f955" d="M899.831 1562.234s27.422-.539 34.69-24.177 5.575-35.883 7.457-41.536c1.881-5.653-19.431-.53-33.018 21.796-13.587 22.324-12.072 38.821-9.129 43.917zM989.113 1489.457s7.398-21.914-9.286-34.427c-16.684-12.513-26.883-14.664-30.832-17.77-3.949-3.106-5.966 15.268 7.873 32.421 13.838 17.151 27.361 20.657 32.245 19.776z" class="colora7f955 svgShape"/><path fill="#a7f955" d="M945.875 1540.166s22.925 3.064 32.012-15.707c9.086-18.772 9.244-29.194 11.536-33.664 2.292-4.47-16.127-2.931-30.312 13.936s-15.036 30.811-13.236 35.435zM1033.891 1492.894s4.833-14.314-6.065-22.488-17.56-9.579-20.139-11.608c-2.579-2.029-3.897 9.973 5.142 21.177s17.872 13.494 21.062 12.919z" class="colora7f955 svgShape"/><path fill="#a7f955" d="M1005.649 1526.017s14.975 2.002 20.91-10.26c5.935-12.262 6.038-19.069 7.536-21.99 1.497-2.92-10.534-1.914-19.8 9.103-9.266 11.018-9.822 20.126-8.646 23.147zM1029.977 1384.272a3.052 3.052 0 0 1-2.758-4.359c32.839-69.453 123.407-105.123 127.246-106.607a3.055 3.055 0 0 1 2.204 5.696c-.918.355-92.144 36.301-123.928 103.52a3.055 3.055 0 0 1-2.764 1.75z" class="colora7f955 svgShape"/><path fill="#a7f955" d="M1149.932 1277.017s8.149-35.555 40.898-38.598c32.75-3.042 48.231 2.487 56.101 1.573 7.87-.914-4.587 25.441-37.343 37.067-32.756 11.627-53.822 5.174-59.656-.042zM1111.783 1300.18s-17.465-21.148-4.274-42.068 23.58-27.616 26.641-32.728c3.061-5.111 13.066 14.391 4.991 39.247-8.077 24.857-21.575 34.46-27.358 35.549z" class="colora7f955 svgShape"/><path fill="#a7f955" d="M1187.95 1320.626s-20.822 17.852-41.982 5.05c-21.159-12.802-28.047-23.066-33.214-26.032-5.167-2.966 14.147-13.33 39.148-5.714 25.001 7.615 34.852 20.934 36.048 26.696zM1072.878 1325.749s-20.108-11.428-15.988-31.872c4.12-20.444 10.3-28.839 11.179-33.785.879-4.946 14.615 7.422 15.706 29.434 1.092 22.012-6.666 33.629-10.897 36.223z" class="colora7f955 svgShape"/><path fill="#a7f955" d="M1138.899 1334.809s-15.068 17.547-34.344 9.588c-19.276-7.96-26.332-15.632-31.018-17.442s10.084-12.923 31.897-9.778c21.814 3.143 31.731 12.983 33.465 17.632zM1041.751 1358.121s-13.135-7.465-10.443-20.819 6.728-18.837 7.302-22.068c.574-3.231 9.546 4.848 10.259 19.226.713 14.379-4.355 21.967-7.118 23.661z" class="colora7f955 svgShape"/><path fill="#a7f955" d="M1084.875 1364.039s-9.842 11.462-22.433 6.263-17.2-10.211-20.261-11.393c-3.061-1.182 6.587-8.441 20.835-6.387 14.248 2.053 20.726 8.48 21.859 11.517zM1042.934 1438.358a3.054 3.054 0 0 1-2.24-5.129c49.042-52.979 140.27-59.381 144.13-59.629a3.044 3.044 0 0 1 3.242 2.853 3.053 3.053 0 0 1-2.852 3.243c-.922.06-92.672 6.514-140.037 57.681a3.047 3.047 0 0 1-2.243.981z" class="colora7f955 svgShape"/><path fill="#a7f955" d="M1179.73 1375.833s17.324-29.538 47.507-23.026 42.485 15.829 49.79 17.231c7.305 1.401-11.283 21.486-43.892 22.658-32.609 1.172-49.652-10.547-53.405-16.863zM1139.038 1385.814s-9.674-23.862 8.037-38.873 28.903-18.078 33.085-21.791c4.182-3.713 7.641 16.571-6.6 36.55-14.242 19.978-29.037 24.769-34.522 24.114z" class="colora7f955 svgShape"/><path fill="#a7f955" d="M1201.472 1425.603s-23.679 10.112-39.015-7.319c-15.336-17.431-18.608-28.564-22.398-32.677-3.79-4.113 16.427-7.945 36.665 5.925 20.239 13.871 25.303 28.575 24.748 34.071zM1096.991 1397.736s-14.782-15.904-5.327-33.048c9.455-17.144 17.356-22.917 19.538-27.098 2.182-4.181 10.993 10.768 5.762 30.785-5.23 20.017-15.453 28.232-19.973 29.361z" class="colora7f955 svgShape"/><path fill="#a7f955" d="M1153.552 1424.469s-18.441 11.462-33.456-1.102c-15.015-12.564-19.169-21.424-22.855-24.366-3.686-2.943 12.674-8.727 31.319.241 18.645 8.967 24.75 20.574 24.992 25.227zM1059.989 1417.943s-9.656-10.389-3.479-21.587c6.176-11.198 11.337-14.969 12.762-17.7 1.425-2.731 7.181 7.034 3.764 20.109-3.417 13.075-10.095 18.441-13.047 19.178z" class="colora7f955 svgShape"/><path fill="#a7f955" d="M1096.934 1435.405s-12.046 7.487-21.853-.719c-9.808-8.207-12.521-13.994-14.929-15.916-2.407-1.922 8.279-5.701 20.458.157 12.178 5.857 16.166 13.439 16.324 16.478zM1089.069 1608.214a3.054 3.054 0 0 1-2.524-4.769c49.025-72.201 143.397-81.207 144.345-81.289 1.666-.166 3.159 1.096 3.307 2.777a3.053 3.053 0 0 1-2.776 3.307c-.919.081-92.456 8.879-139.822 78.635a3.05 3.05 0 0 1-2.53 1.339z" class="colora7f955 svgShape"/><path fill="#a7f955" d="M1225.866 1524.085s17.324-40.269 47.507-31.39c30.182 8.878 42.485 21.58 49.79 23.49 7.305 1.91-11.283 29.292-43.892 30.889-32.608 1.598-49.651-14.378-53.405-22.989zM1185.175 1537.692s-9.674-32.53 8.037-52.995c17.711-20.464 28.903-24.645 33.085-29.707 4.182-5.062 7.641 22.591-6.6 49.827-14.242 27.236-29.037 33.768-34.522 32.875z" class="colora7f955 svgShape"/><path fill="#a7f955" d="M1247.609 1591.936s-23.679 13.786-39.015-9.977c-15.336-23.763-18.608-38.94-22.398-44.548-3.79-5.607 16.427-10.832 36.665 8.077s25.302 38.955 24.748 46.448zM1143.128 1553.944s-14.782-21.682-5.326-45.053c9.455-23.371 17.356-31.243 19.538-36.943 2.182-5.7 10.993 14.68 5.762 41.969-5.231 27.29-15.454 38.489-19.974 40.027z" class="colora7f955 svgShape"/><path fill="#a7f955" d="M1199.689 1590.389s-18.441 15.626-33.456-1.502c-15.015-17.128-19.169-29.207-22.855-33.218s12.674-11.897 31.319.328c18.645 12.226 24.75 28.049 24.992 34.392zM1106.126 1581.493s-9.656-14.162-3.479-29.428 11.337-20.407 12.762-24.13c1.425-3.723 7.18 9.589 3.764 27.414s-10.095 25.139-13.047 26.144z" class="colora7f955 svgShape"/><path fill="#a7f955" d="M1143.071 1605.298s-12.045 10.207-21.853-.981c-9.808-11.188-12.521-19.078-14.929-21.698-2.407-2.62 8.279-7.771 20.457.214 12.179 7.986 16.167 18.322 16.325 22.465z" class="colora7f955 svgShape"/><path fill="#ffc688" d="M1198.458 1821.357c-8.327-13.162-22.652-21.428-38.211-22.121-17.159-.764-39.615 1.437-49.836 16.128-17.705 25.45 3.521 102.557 60.86 87.927 46.853-11.954 46.916-50.749 27.187-81.934z" class="colorffc688 svgShape"/><path fill="#ffb66e" d="M1198.458 1821.357c-8.327-13.162-22.652-21.428-38.211-22.121-4.75-.212-9.908-.18-15.098.265 8.262 6.192 24.012 20.54 27.618 42.077 3.332 19.899 4.995 44.87 5.491 59.591 39.789-13.912 38.89-50.269 20.2-79.812z" class="colorffb66e svgShape"/><path fill="#ffc688" d="M1042.599 1758.166c7.419-2.961 12.665-9.089 14.033-16.342 1.509-7.998 1.809-18.696-5.21-24.551-12.16-10.142-53.838-5.73-49.897 22.234 3.221 22.851 23.497 25.673 41.074 18.659z" class="colorffc688 svgShape"/><path fill="#ffb66e" d="M1042.599 1758.166c7.419-2.961 12.665-9.089 14.033-16.341.418-2.214.734-4.637.837-7.105-3.771 3.432-12.289 9.791-23.78 9.933-10.618.131-23.778-.886-31.506-1.712 4.701 19.675 23.765 21.87 40.416 15.225z" class="colorffb66e svgShape"/><path fill="#ffc688" d="M1008.211 1776.248s-73.155-21.455-88.242 17.229c-15.087 38.685 61.773 71.237 96.895 45.035 0 0 51.373-11.116 54.936-48.159 3.563-37.043-63.589-14.105-63.589-14.105z" class="colorffc688 svgShape"/><path fill="#ffb66e" d="M1016.864 1838.512s51.373-11.116 54.936-48.159c.585-6.083-.745-10.54-3.363-13.755-2.925 2.471-6.977 5.278-12.57 7.971-15.461 7.444-43.902 11.834-43.902 10.975s-16.415 10.785-44.284 8.494c-21.501-1.767-38.786-10.914-45.568-15.004a32.13 32.13 0 0 0-2.144 4.442c-15.087 38.685 61.773 71.238 96.895 45.036z" class="colorffb66e svgShape"/><path fill="#ffc688" d="M1066.363 1783.042a1.527 1.527 0 0 1-1.365-2.21c8.494-16.987 6.717-48.343 6.699-48.658a1.526 1.526 0 0 1 1.432-1.616c.832-.04 1.565.59 1.616 1.432.08 1.318 1.847 32.485-7.015 50.208a1.523 1.523 0 0 1-1.367.844zM1231.665 1826.562a1.51 1.51 0 0 1-.632-.137c-36.129-16.457-93.51-52.014-94.084-52.372a1.527 1.527 0 1 1 1.611-2.595c.574.356 57.79 35.812 93.74 52.187a1.527 1.527 0 0 1-.635 2.917z" class="colorffc688 svgShape"/><path fill="#ffc688" d="M1145.148 1805.948a1.527 1.527 0 0 1-1.52-1.397c-1.35-15.823-17.644-58.079-17.809-58.503a1.527 1.527 0 0 1 2.848-1.104c.678 1.752 16.617 43.091 18.005 59.347a1.527 1.527 0 0 1-1.524 1.657zM1166.006 1756.319a1.71 1.71 0 0 1-.201-.013c-1.28-.167-31.541-4.223-49.903-14.17-18.682-10.12-21.748-20.602-21.869-21.043a1.527 1.527 0 0 1 2.943-.819c.028.097 2.983 9.753 20.381 19.177 17.87 9.678 48.538 13.786 48.845 13.827a1.528 1.528 0 0 1-.196 3.041z" class="colorffc688 svgShape"/><path fill="#ffc688" d="m1050.247 1737.233-.502-.001a1.527 1.527 0 0 1 .013-3.055c.171.005.321.002.48.002 20.684 0 45.519-12.128 45.77-12.25a1.527 1.527 0 0 1 1.351 2.738c-1.048.517-25.732 12.566-47.112 12.566zM1119.24 1831.795c-.491 0-.972-.236-1.268-.673-.683-1.012-16.712-24.945-15.15-38.708 1.505-13.264 9.027-53.33 9.103-53.732a1.526 1.526 0 0 1 1.783-1.218 1.526 1.526 0 0 1 1.219 1.782c-.076.403-7.578 40.359-9.07 53.512-1.437 12.656 14.487 36.417 14.648 36.656a1.529 1.529 0 0 1-1.265 2.381zM1178.024 1729.596s-27.061 6.681-20.4 30.159c6.661 23.478 48.273 46.765 90.266 37.03s64.326-24.623 45.238-39.894c-19.087-15.269-69.489-45.237-115.104-27.295z" class="colorffc688 svgShape"/><path fill="#ffb66e" d="M1293.128 1756.892a137.799 137.799 0 0 0-7.205-5.354c-17.151 6.007-54.724 16.749-88.912 10.013-26.436-5.209-35.312-12.623-38.188-18.149-2.229 4.219-3.12 9.585-1.199 16.354 6.661 23.478 48.273 46.765 90.266 37.03s64.326-24.624 45.238-39.894z" class="colorffb66e svgShape"/><path fill="#ffc688" d="M1231.631 1812.387s-11.35 3.738-8.556 16.875c2.794 13.137 20.247 26.168 37.86 20.721 17.613-5.447 26.98-13.778 18.974-22.323-8.006-8.544-29.146-25.312-48.278-15.273z" class="colorffc688 svgShape"/><path fill="#ffb66e" d="M1279.909 1827.661a63.004 63.004 0 0 0-3.022-2.996c-7.194 3.361-22.953 9.372-37.292 5.603-11.088-2.915-14.811-7.064-16.017-10.156-.935 2.361-1.309 5.363-.503 9.151 2.794 13.137 20.247 26.168 37.86 20.721 17.613-5.448 26.98-13.779 18.974-22.323z" class="colorffb66e svgShape"/><path fill="#efa15b" d="M2338.081 1312.595s-60.282 2.804-151.405-4.206c-91.124-7.01-126.171-3.738-127.573 36.917-1.402 40.655-3.739 41.122-12.15 60.749s-146.265 293.465-48.132 355.148c98.133 61.684 399.542 57.486 483.656 7.01 84.114-50.477-55.914-368.267-55.141-376.177 1.405-14.392 23.365-47.665-15.888-77.572-35.91-27.359-73.367-1.869-73.367-1.869z" class="colorefa15b svgShape"/><path fill="#e89143" d="M2427.335 1392.036c-19.626 14.954-65.422 33.646-126.171 42.057s-123.367-20.561-115.891 0c7.477 20.561 125.237 25.234 151.406 51.403s26.169 63.553 24.3 138.321c-1.869 74.768-53.272 133.648-128.975 149.536-69.73 14.635-210.03-35.751-266.062-67.166 4.106 23.869 14.217 43.285 32.879 55.016 98.133 61.684 399.542 57.486 483.656 7.01 84.114-50.477-55.914-368.267-55.142-376.177zM2086.037 1347.076s56.256 27.868 151.626 41.993c95.37 14.125 165.614-17.561 174.776-27.105 9.162-9.544 0-41.23-36.267-43.902s-34.74 2.291-79.787 3.818c-45.047 1.527-184.026-16.011-211.112-5.726-14.753 5.602-16.837 20.597.764 30.922z" class="colore89143 svgShape"/><defs><path id="a" d="M2086.037 1347.076s56.256 27.868 151.626 41.993c95.37 14.125 165.614-17.561 174.776-27.105 9.162-9.544 39.067-65.789-5.981-90.731-31.814-17.615-132.851-25.196-177.899-23.669-45.047 1.527-125.872 29.164-152.957 39.448-14.754 5.603-7.166 49.739 10.435 60.064z" fill="#000000" class="color000 svgShape"/></defs><clipPath id="b"><use overflow="visible" xlink:href="#a"/></clipPath><g clip-path="url(#b)" fill="#000000" class="color000 svgShape"><path fill="#ffc688" d="M2094.587 1294.283s-15.6 11.851-4.259 30.724 45.348 29.759 69.743 11.917c24.396-17.842 34.47-35.753 17.501-44.727-16.969-8.972-58.685-23.685-82.985 2.086z" class="colorffc688 svgShape"/><path fill="#ffb66e" d="M2177.572 1292.199a103.272 103.272 0 0 0-6.283-3.032c-9.358 9.048-30.578 26.775-54.817 28.583-18.743 1.398-26.727-3.047-30.247-7.196-.19 4.158.833 9.012 4.103 14.454 11.341 18.873 45.348 29.759 69.743 11.917 24.396-17.841 34.471-35.753 17.501-44.726z" class="colorffb66e svgShape"/></g><g clip-path="url(#b)" fill="#000000" class="color000 svgShape"><path fill="#ffc688" d="M2261.114 1338.135c10.8-4.31 18.439-13.232 20.43-23.791 2.196-11.644 2.634-27.219-7.585-35.742-17.703-14.765-78.381-8.342-72.642 32.37 4.689 33.266 34.207 37.374 59.797 27.163z" class="colorffc688 svgShape"/><path fill="#ffb66e" d="M2261.114 1338.135c10.8-4.31 18.439-13.232 20.43-23.791.608-3.224 1.069-6.751 1.219-10.344-5.49 4.996-17.891 14.254-34.621 14.461-15.458.191-34.618-1.29-45.867-2.493 6.844 28.645 34.597 31.841 58.839 22.167z" class="colorffb66e svgShape"/></g><g clip-path="url(#b)" fill="#000000" class="color000 svgShape"><path fill="#ffc688" d="M2289.891 1310.318s-19.713 20.373.339 43.196c20.052 22.823 70.668 28.685 101.64-2.229 30.972-30.913 41.568-58.115 15.574-65.888s-88.367-16.824-117.553 24.921z" class="colorffc688 svgShape"/><path fill="#ffb66e" d="M2407.445 1285.397a146.402 146.402 0 0 0-9.564-2.48c-11.421 14.876-37.903 44.787-71.989 53.708-26.357 6.898-38.634 2.936-44.502-1.809.596 5.744 3.06 12.116 8.842 18.697 20.052 22.823 70.668 28.685 101.64-2.229 30.971-30.912 41.567-58.114 15.573-65.887z" class="colorffb66e svgShape"/></g><g clip-path="url(#b)" fill="#000000" class="color000 svgShape"><path fill="#ffc688" d="M2159.598 1332.296s-75.777-8.35-83.877 32.375 73.264 59.355 103.271 27.422c0 0 48.643-19.917 45.682-57.013-2.96-37.096-65.076-2.784-65.076-2.784z" class="colorffc688 svgShape"/><path fill="#ffb66e" d="M2178.992 1392.093s48.643-19.916 45.682-57.012c-.486-6.091-2.574-10.247-5.714-12.956-2.449 2.944-5.948 6.415-10.985 10.043-13.923 10.03-41.161 19.319-41.311 18.474-.15-.846-14.28 13.486-42.12 16.097-21.479 2.015-40.096-3.973-47.488-6.816a32.191 32.191 0 0 0-1.335 4.748c-8.099 40.724 73.265 59.354 103.271 27.422z" class="colorffb66e svgShape"/></g><g clip-path="url(#b)" fill="#000000" class="color000 svgShape"><path fill="#ffc688" d="M2301.664 1350.334c-8.327-13.162-22.652-21.428-38.211-22.121-17.159-.765-39.615 1.437-49.835 16.128-17.705 25.451 3.521 102.557 60.86 87.927 46.852-11.954 46.915-50.749 27.186-81.934z" class="colorffc688 svgShape"/><path fill="#ffb66e" d="M2301.664 1350.334c-8.327-13.162-22.652-21.428-38.211-22.121-4.75-.212-9.908-.18-15.098.265 8.262 6.192 24.012 20.54 27.618 42.077 3.332 19.899 4.995 44.87 5.491 59.591 39.789-13.912 38.89-50.269 20.2-79.812z" class="colorffb66e svgShape"/></g><g clip-path="url(#b)" fill="#000000" class="color000 svgShape"><path fill="#ffc688" d="M2314.055 1343.262s-18.607 6.128-14.027 27.665 33.192 42.898 62.067 33.969c28.874-8.93 44.23-22.587 31.105-36.595-13.124-14.008-47.78-41.498-79.145-25.039z" class="colorffc688 svgShape"/><path fill="#ffb66e" d="M2393.2 1368.3a103.081 103.081 0 0 0-4.954-4.912c-11.793 5.51-37.628 15.364-61.135 9.185-18.177-4.778-24.28-11.58-26.258-16.649-1.533 3.87-2.146 8.792-.825 15.002 4.58 21.537 33.192 42.898 62.067 33.969 28.874-8.93 44.23-22.587 31.105-36.595z" class="colorffb66e svgShape"/></g></svg>