<svg xmlns="http://www.w3.org/2000/svg" enable-background="new 0 0 1997 1794.158" viewBox="0 0 1997 1794.158"><path fill="#e9f9ff" d="M308.15 1602.344s-142.809-711.673-44.775-796.51 318.099 275.748 297.873-13.197c-13.197-188.527-188.527-284.676 35.82-399.678C860.76 257.789 1513.31 70.577 1660.362 368.45s36.191 1233.893 36.191 1233.893H308.15z" class="colore9f9ff svgShape"/><path fill="#daecf2" d="m373.362 1241.83-19.433 363.345 955.888-.969.006-.55 132.884-.284.06-19.114h-31.381l2.461-22.151h-35.073l-3.692-352.274-13.046-11.163.203-.393-16.395-13.461-279.032-229.105-424.456 27.569 2.357-69.409c-15.998-5.538-35.688 0-35.688 0l-3.419 71.796-88.262 5.733-209.82 250.43h65.838zm538.395-42.456 435.905 7.215 10.193 355.52-47.572-.587 2.549-337.115-401.075-25.033zm-249.2 234.624 2.993-163.897 129.471-6.735-5.239 173.626h-53.136v-151.923l-19.25 1.68s-.208 51.456.54 55.198c.748 3.742-44.155 0-44.155 0v17.961h44.155v74.09h-55.379zm-215.973 3.85 2.975-162.866 128.657-6.693-5.206 172.534h-52.801v-150.967l-19.129 1.669s-.207 51.132.537 54.85c.744 3.718-43.877 0-43.877 0v17.848h43.877v73.624h-55.033z" class="colordaecf2 svgShape"/><path fill="#c3dce2" d="M750.726 1605.816v-100.033l25.855-.094v100.127h56.987v-100.069h25.312v100.069h57.53v-100.069h24.771v100.069h56.446v-100.069h29.644v100.069h56.447v-100.033l25.855-.094v100.127h56.986v-100.069h25.313v100.069h57.529v-100.069h24.772v100.069h56.446v-100.069h26.396v100.069h56.446v-100.033l25.855-.094v100.127h56.987v-100.069h25.312v100.069h57.53v-100.069h24.771v100.069h56.446v-245.855l-24.365-24.365-32.081 30.874v94.201h-24.771v-100.71l-24.366-24.365-33.164 30.874v94.201h-25.312v-100.71l-24.366-24.365-32.621 30.874v94.201h-25.855v-100.71l-24.366-24.365-32.08 30.874v97.856h-26.396v-104.365l-24.365-24.365-32.081 30.874v94.201h-24.772v-100.71l-24.365-24.365-33.164 30.874v94.201h-25.313v-100.71l-24.365-24.365-32.621 30.874v94.201h-25.855v-100.71l-24.366-24.365-32.081 30.874v97.856h-29.644v-104.365l-24.365-24.365-32.081 30.874v94.201H916.41v-100.71l-24.366-24.365-33.164 30.874v94.201h-25.312v-100.71l-24.366-24.365-32.621 30.874v94.201h-25.855v-100.71l-24.365-24.365-32.081 30.874v239.346z" class="colorc3dce2 svgShape"/><path fill="#ffffff" d="M985.092 682.474c-3.184 9.072.347 31.222.347 35.696 0 5.656 7.541 9.426 7.541 9.426s16.968 28.279 22.623 33.935c5.656 5.656 49.017 7.541 49.017 7.541 20.593 32.605 72.416 87.064 100.038 105.111.18 20.12.631 46.076 1.766 49.482 1.885 5.656 35.82 15.082 35.82 15.082s-30.164 209.265-33.935 254.512c-3.771 45.246 24.509 275.25 24.509 275.25s-5.656-1.885-9.426 1.885c-3.771 3.771 5.656 30.164 5.656 30.164h5.656c5.656 11.312-7.541 50.902-7.541 50.902-15.082-3.771-56.558-9.426-77.296 5.656-20.738 15.082-13.197 47.132-13.197 47.132s160.248 1.885 167.789-1.885c7.541-3.771 1.885-103.69 1.885-103.69 7.541-1.885 5.656-28.279 5.656-28.279l-9.426-5.656s11.312-118.772 16.967-154.592c5.656-35.82 46.654-156.992 46.654-156.992s11.79 79.696 15.56 102.32c3.771 22.623 43.361 213.036 43.361 213.036s-11.312-1.885-13.197 1.885 5.656 30.164 5.656 30.164h3.771l1.885 62.214c-16.968 18.853-16.025 42.419-16.025 42.419h111.231c1.885-32.05-24.508-49.017-24.508-49.017v-56.558s1.885 0 5.656-1.885 3.771-28.279 3.771-28.279l-9.426-3.771s20.738-307.299 24.508-382.71c3.771-75.411 3.771-141.395 3.771-141.395s18.853-3.771 22.623-5.656c2.857-1.429 2.467-27.742 2.11-40.413 14.735-8.823 31.511-20.701 42.194-34.055 22.623-28.279 15.082-107.461 15.082-107.461l10.369-.943s-12.254-72.583-31.107-114.059-117.83-102.747-117.83-102.747c7.541-47.132-16.025-48.074-16.025-48.074v-51.428c.816-.349 1.633-.695 2.447-1.051 13.619-1.993 50.411-9.761 70.136-37.072 24.509-33.935-5.656-79.181-54.673-116.887 0 0-9.426-20.738-26.394-39.591-16.968-18.853-30.164-47.132-43.361-47.132s-52.788 33.935-52.788 33.935-65.984-18.853-105.575 22.623c-39.591 41.476-5.656 99.919 39.591 128.199 0 0 3.771 11.312 9.426 11.312h6.82l.837 1.108.827 28.113s-15.082 9.426-24.509 30.164 5.656 28.279 5.656 28.279-9.426 22.623-7.541 47.132c1.885 24.509 50.902 16.967 50.902 16.967l-1.885 7.541c-13.197 7.541-56.558 39.591-71.64 60.329s-32.05 133.854-32.05 133.854h7.541l-7.541 56.558-92.378-50.902s-9.426-39.591-11.312-45.246c-1.885-5.656-22.623-22.623-32.05-30.164a29.394 29.394 0 0 0-2.546-1.826c-.339-.833-.973-1.593-1.983-2.161-13.58-7.637-16.526-24.744-25.284-36.512-6.009-8.074-15.743-11.569-24.792-6.241-20.401 12.01-13.3 38.368-.414 54.404zm509.043 144.003c-2.241-.22-4.479-.469-6.719-.699-.012-3.961-.76-8.354-4.149-10.598-2.289-1.515-5.039-2.194-7.799-2.262-.194-19.379-.653-43.256-1.743-47.616l24.509 58.443-4.099 2.732zm-484.957-124.93c6.498 1.764 13.309 1.877 19.931.184.492.51 1.01.979 1.577 1.356 5.656 3.771 18.853 5.656 16.967 15.082s-7.541 7.541-11.312 7.541-20.738-11.312-20.738-11.312l-6.425-12.851z" class="colorfff svgShape"/><path fill="#e6e6e6" d="M1414.339 375.992s13.197-11.312 3.771-26.394c-9.426-15.082-63.35-40.132-63.35-40.132s-4.52 15.623 6.791 21.279c0 0-3.771 11.312 5.656 15.082 9.426 3.771 11.312 3.771 11.312 3.771l-3.771 37.705s-13.197 35.82-30.164 35.82c-16.968 0-90.034-3.642-90.034-3.642s-24.968 20.609-24.968 35.691 7.541 22.623 7.541 22.623-20.738 58.443 15.082 62.214c35.82 3.771 79.181-15.082 79.181-15.082s24.508 3.771 33.935-13.197c9.426-16.967 5.656-28.279 5.656-28.279s18.853 0 22.623-24.509c3.771-24.509 2.828-76.354 2.828-76.354s11.312-7.538 17.911-6.596z" class="colore6e6e6 svgShape"/><path fill="#666666" d="M1567.046 751.162s-18.853-94.264-35.82-120.658c-16.968-26.394-109.346-90.493-109.346-90.493s10.807-23.047 3.518-38.86c-7.289-15.813-14.83-15.813-14.83-15.813l.803 20.912s-40.394 88.434-91.296 97.86c0 0-22.623-30.164-18.853-69.755l-16.967 3.771-1.795 12.033s-60.419 25.672-81.157 63.378c-20.738 37.705-33.935 130.084-33.935 130.084l54.673 3.771-7.541 60.329 182.871 43.361 69.755-22.623.943-65.042 98.977-12.255z" class="color666 svgShape"/><path fill="#efdeb4" d="M1410.568 436.321s67.87-15.082 73.526-64.099c5.656-49.017-88.515-113.559-161.144-136.903 0 0 38.601 4.934 93.274 36.984 0 0-30.164-37.705-35.82-47.132-5.656-9.426-16.968-33.935-33.935-30.164-16.968 3.771-36.15 25.386-50.125 31.546 0 0-79.959-10.808-112.009 30.668s9.426 109.346 69.755 133.854l2.02-2.259-1.078-59.013s-13.197-18.853 0-32.05 43.361-7.541 77.296 3.771c33.935 11.312 107.969 37.879 83.206 73.612 0 0 14.828 1.799 18.598 20.651 0 0 5.656 24.509-24.509 35.82l.945 4.714zM1453.929 1465.68s7.541-1.885 9.426 3.771c1.885 5.656 0 26.394-3.771 28.279-3.771 1.885-5.656 1.885-5.656 1.885v56.558s20.141 14.14 22.325 32.521l-108.173-1.414s10.437-19.795 16.093-23.566l-1.885-62.214h-3.77s-11.312-28.279-5.656-32.05c5.657-3.77 81.067-3.77 81.067-3.77zM1095.439 1587.28l171.849.943-1.885-88.608s7.388-3.445 6.522-11.149c-.866-7.704 4.789-20.901-2.752-22.786-7.541-1.885-84.837-1.885-86.723 5.656s6.598 29.222 6.598 29.222h5.656s1.885 32.05-7.541 50.902c0 0-35.695-10.369-59.324-4.242-23.628 6.127-29.861 23.094-32.4 40.062z" class="colorefdeb4 svgShape"/><path fill="#408ab2" d="M1456.757 565.462s-27.336 185.699-23.566 212.093 39.591 45.246 39.591 45.246l-209.243 14.591-41.498-29.674s18.853-35.82 18.853-45.247c0-9.426 15.474-199.839 15.474-199.839l12.805-7.541s-12.254 183.814 2.828 191.355c15.082 7.541 110.435 12.528 118.374-4.105s53.181-186.854 53.181-186.854l13.201 9.975zM1474.796 944.826s1.757 72.159-2.014 128.717c-3.771 56.558-25.208 391.089-25.208 391.089l-67.811 3.348s-31.409-132.384-38.95-173.86c-7.541-41.476-20.738-137.625-20.738-137.625s-35.82 90.493-45.247 141.395c-9.426 50.902-19.272 167.488-19.272 167.488l-67.086 2.602s-32.414-213.451-28.644-275.665c3.771-62.214 37.705-277.135 37.705-277.135l146.851 52.931s30.366-1.329 42.149-17.232c11.783-15.903 88.265-6.053 88.265-6.053z" class="color408ab2 svgShape"/><path fill="#a67c52" d="M1501.061 898.213s0 35.82-1.885 37.705c-1.885 1.885-125.262 24.897-128.616 25.645 0 0 23.04-10.563 30.582-29.416 0 .001 30.164.001 99.919-33.934zM1493.52 826.572l-103.69 79.182s-18.853-15.082-24.508-15.082c-5.656 0-24.509-3.771-32.05-11.312-7.541-7.541-11.312-13.197-16.968-3.771-5.656 9.426-5.656 16.968 3.771 24.509 9.426 7.541 22.623 7.541 22.623 7.541s-24.508 9.426-39.591 9.426c-15.082 0-37.705-3.771-39.591 3.771-1.885 7.541 3.771 18.853 30.164 16.967 0 0 0 13.197 18.853 13.197 0 0 1.885 11.312 20.738 7.541l6.358 8.631s-70.458-10.516-111.934-21.828-65.984-18.853-67.87-24.508c-1.885-5.656-2.393-86.403-2.393-86.403l-5.148-2.205s-3.771-16.967 0-18.853c3.771-1.885 165.801-18.086 178.107-15.641 12.307 2.445 163.129 28.838 163.129 28.838z" class="colora67c52 svgShape"/><path fill="#e6e6e6" d="M1254.09 332.631s-10.259-16.412-3.244-29.887c7.015-13.474 18.473-12.652 18.473-12.652s-13.343 29.342-15.229 42.539zM1254.09 336.402c1.885 0 30.164-3.771 30.164-3.771s0-15.082-5.656-15.082-22.623 11.312-22.623 11.312l-1.885 7.541zM1344.584 328.861s-32.05-15.082-37.705-11.312c-5.656 3.771 0 13.197 0 13.197l35.82 3.771 1.885-5.656z" class="colore6e6e6 svgShape"/><path fill="#efdeb4" d="M1484.094 832.228s5.656-15.082-1.885-16.967-16.968-1.885-16.968-1.885 0-11.312-9.426-11.312-15.082 5.656-15.082 5.656-3.771-9.426-16.968-9.426-35.82 3.771-37.705 1.885c-1.885-1.885-5.656-13.197-7.541-15.082-1.885-1.885-18.853-1.885-26.394 7.541l-13.197-1.885s-5.656-7.541-16.968-5.656c-11.312 1.885-28.279 9.426-28.279 9.426s-3.771-20.738-20.738-22.623c-16.968-1.885-20.738 20.738-20.738 20.738s-11.312-3.771-16.968-1.885c-5.656 1.885-8.615 8.923-8.615 8.923s-15.894-8.923-27.205-3.267c-11.312 5.656-13.197 22.623-13.197 22.623s141.395 33.935 158.363 33.935c16.967 0 135.115-16.523 135.115-16.523l4.396-4.216zM1010.89 702.144s26.394 1.885 28.279-15.082c1.885-16.968-18.853-26.394-22.623-37.705-3.771-11.312-3.771-26.394-22.623-26.394-18.853 0-21.829 26.456-19.398 39.622 2.431 13.166 9.839 22.28 9.839 22.28s-.809-10.057 4.846-8.172c5.656 1.885 7.541 11.312 7.541 11.312s1.885-7.541 7.541-1.885c5.656 5.656 3.771 13.197 3.771 13.197l2.827 2.827z" class="colorefdeb4 svgShape"/><path fill="#a67c52" d="M1423.434 1578.693c-1.48-1.811-4.02-2.361-6.359-2.373s-4.698.394-7.003.002c-.865-.147-1.732-.417-2.426-.953-1.784-1.376-1.915-3.956-2.683-6.074-1.15-3.172-4.12-5.609-7.456-6.117-4.665-.711-9.151 2.086-13.86 2.385-.875.056-1.788.031-2.583.401-.838.39-1.424 1.162-1.974 1.904-4.216 5.687-8.597 11.803-9.059 18.868 17.351-.15 34.764.64 52.101.257 2.35-.052 2.482-.751 2.604-3.113.095-1.84-.124-3.7-1.302-5.187zM1443.814 1523.787c-2.862 1.593-6.341 2.992-9.312 1.612-1.513-.703-2.636-2.034-3.582-3.408a28.025 28.025 0 0 1-4.484-10.879c-.27-1.493-.436-3.059-1.233-4.35-.542-.877-1.341-1.565-2.177-2.168-5.348-3.854-12.821-4.525-18.77-1.687-1.943.927-3.771 2.248-4.867 4.101-1.462 2.469-1.444 5.509-1.385 8.378.052 2.502.163 5.184 1.655 7.193 1.108 1.492 2.825 2.389 4.506 3.179 2.528 1.187 5.171 2.279 7.22 4.176.633.586 1.212 1.251 1.961 1.679.659.377 1.412.548 2.152.715 5.197 1.171 10.423 2.346 15.742 2.63 1.754.094 3.982.443 4.39 2.151.404 1.69-1.408 3.026-2.996 3.731-3.637 1.615-7.58 2.709-11.556 2.537-2.74-.118-5.419-.832-8.043-1.63-1.342-.408-2.753-.843-4.123-.541-1.942.429-3.307 2.29-3.754 4.227-.447 1.938-.154 3.961.141 5.927.922-.811 2.257-.894 3.484-.936 12.388-.428 25.226-.778 36.665 3.995 2.381.993 4.705 2.21 7.242 2.677-.309-4.067.8-8.091 1.235-12.147.433-4.037.197-8.112-.039-12.165l-.377-6.459c-.074-1.266.319-3.875-.546-4.925-1.911-2.32-7.279 1.346-9.149 2.387zM1110.261 1555.904a7.948 7.948 0 0 1 2.015.992 48.792 48.792 0 0 0-.271 13.921c.168 1.347.415 2.744 1.217 3.84.765 1.046 1.975 1.707 3.236 2.004 4.113.968 8.691-2.342 9.059-6.551.111-1.266-.101-2.577.286-3.787.953-2.981 4.747-3.734 7.867-3.983 3.56-.284 7.227-.556 10.63.528s6.519 3.872 6.868 7.427c.128 1.297-.102 2.67.428 3.86.942 2.115 3.682 2.583 5.99 2.763l24.564 1.918c6.102.476 13.485.347 16.719-4.85 2.06-3.31 1.589-7.561.767-11.372-.823-3.811-1.927-7.772-.918-11.538s5.155-7.013 8.732-5.462c3.316 1.439 4.06 5.757 4.088 9.372a78.805 78.805 0 0 1-.653 10.747c3.335 1.927 7.845.107 10.092-3.021 2.248-3.128 2.762-7.151 3.008-10.995.247-3.844.321-7.813 1.885-11.333 3.685-8.297 14.258-11.144 23.3-10.332 4.402.395 8.858 1.483 12.698 3.729 1.526.892 2.951 2.008 4.328 3.201l1.09 51.24-171.849-.943c1.741-11.62 5.219-23.237 14.824-31.375zM1184.861 1484.67c-.043-.682-.041-1.414.338-1.982.357-.536.98-.82 1.574-1.067a53.397 53.397 0 0 1 5.55-1.956c1.199-.349 2.456-.659 3.685-.44 1.457.259 2.715 1.234 4.177 1.46 1.515.235 3.046-.371 4.333-1.204 1.287-.834 2.412-1.898 3.693-2.741 4.841-3.186 11.244-2.8 16.785-1.104.974.298 1.958.644 2.757 1.276.799.632 1.392 1.606 1.324 2.622-.082 1.216-1.059 2.187-2.105 2.812-1.684 1.007-3.645 1.421-5.51 2.031-1.865.61-3.759 1.51-4.843 3.146-.919 1.386-1.133 3.159-.839 4.797.294 1.637 1.056 3.156 1.961 4.552.317.489.66.984.776 1.555s-.062 1.25-.575 1.527c-.357.193-.788.156-1.192.125a22.588 22.588 0 0 0-5.551.258c-.835.143-1.72.366-2.283 1-.365.411-.549.948-.694 1.478-.601 2.204-.652 4.523-1.155 6.751s-1.59 4.497-3.597 5.587c-2.185 1.187-4.894.708-7.282 1.403a23.2 23.2 0 0 0-.266-15.197l-3.597-.633c-.912-.16-1.874-.345-2.565-.961-.475-.424-.77-1.01-1.038-1.588a35.362 35.362 0 0 1-2.408-7.137c-.488-2.185-1.307-4.077-1.453-6.37zM1388.629 1405.335a89.063 89.063 0 0 1 15.351-12.279c3.267-2.067 6.766-4.004 9.075-7.105 2.672-3.587 3.397-8.258 5.568-12.169 2.444-4.404 6.789-8.065 7.186-13.086.262-3.32-1.312-6.489-2.993-9.364a95.221 95.221 0 0 0-10.878-15.025c-3.464-3.915-7.359-7.719-9.052-12.665-2.977-8.701 1.639-18.499-.777-27.372-.369-1.354-.936-2.718-2.004-3.629-1.094-.933-2.563-1.267-3.974-1.542a102.867 102.867 0 0 0-27.249-1.61c-.612.046-1.252.106-1.763.445-.769.51-1.037 1.495-1.247 2.394-1.018 4.354-2.043 8.762-1.962 13.233.081 4.471 1.386 9.083 4.472 12.319 3.569 3.742 9.553 5.941 10.365 11.048.26 1.636-.103 3.305-.045 4.96.152 4.334 3.083 7.979 5.338 11.683 2.256 3.704 3.882 8.597 1.49 12.214-2.372 3.585-7.368 4.027-11.666 4.106l-13.218.243c-.753.014-1.543.038-2.193.417-1.838 1.071-1.254 3.845-.367 5.778a91.288 91.288 0 0 0 9.919 16.66c.944 1.258 1.927 2.503 2.632 3.909 2.426 4.835 1.209 10.584.842 15.98a48.065 48.065 0 0 0 2.069 17.541c.878 2.81 2.613 6.742 5.672 7.768 3.931 1.319 4.564-1.499 3.669-4.491-1.101-3.678-2.638-5.552-1.444-9.771 1.177-4.163 4.191-7.596 7.184-10.59zM1198.693 1166.936a89.041 89.041 0 0 1-10.588 16.563c-2.429 3.007-5.119 5.967-6.309 9.645-1.377 4.256-.562 8.911-1.359 13.313-.899 4.956-3.836 9.82-2.597 14.702.819 3.228 3.329 5.722 5.845 7.904a95.143 95.143 0 0 0 15.132 10.729c4.539 2.593 9.451 4.943 12.643 9.082 5.616 7.281 4.396 18.044 9.536 25.669.784 1.163 1.761 2.273 3.065 2.792 1.336.531 2.835.376 4.259.182a102.884 102.884 0 0 0 26.32-7.237c.564-.24 1.151-.503 1.526-.988.564-.73.501-1.749.412-2.668-.436-4.45-.883-8.954-2.397-13.161-1.514-4.207-4.233-8.155-8.196-10.227-4.582-2.396-10.957-2.554-13.366-7.129-.772-1.465-.965-3.162-1.552-4.711-1.537-4.055-5.484-6.564-8.811-9.346s-6.44-6.893-5.338-11.087c1.093-4.158 5.682-6.182 9.726-7.639l12.438-4.479c.708-.255 1.449-.532 1.943-1.1 1.396-1.605-.049-4.044-1.511-5.589a91.28 91.28 0 0 0-14.749-12.586c-1.298-.888-2.629-1.75-3.749-2.855-3.852-3.798-4.547-9.633-5.935-14.861a48.058 48.058 0 0 0-7.599-15.944c-1.735-2.378-4.642-5.543-7.869-5.532-4.146.015-3.84 2.887-2.03 5.432 2.225 3.129 4.283 4.409 4.509 8.787.223 4.322-1.527 8.542-3.399 12.339z" class="colora67c52 svgShape"/><path d="M1324.267 995.539c-67.277-1.421-69.386-5.638-70.399-7.665-.907-1.812-1.692-6.479-.644-27.339.066-1.301 1.185-2.312 2.472-2.236a2.356 2.356 0 0 1 2.236 2.472c-.961 19.133-.268 23.716.076 24.797 8.76 6.106 125.738 6.448 136.469 4.709.756-1.27 2.696-7.006 4.578-32.723a2.346 2.346 0 0 1 2.522-2.178 2.356 2.356 0 0 1 2.178 2.522c-2.603 35.591-5.428 36.297-7.697 36.865-2.822.705-19.316 1.112-39.407 1.112-10.302 0-21.551-.107-32.384-.336zm-66.405-10.082zM1418.118 372.69c.624 0 1.245-.248 1.708-.738.202-.215 4.932-5.355 3.859-13.754-1.228-9.611-9.342-19.201-24.115-28.503-36.718-23.118-115.907-55.31-143.016-37.165-7.698 5.151-10.576 13.704-8.556 25.42a2.358 2.358 0 0 0 4.645-.801c-1.698-9.852.438-16.623 6.532-20.702 23.305-15.598 97.226 11.638 137.884 37.236 16.759 10.553 21.18 19.417 21.937 24.995.84 6.189-2.473 9.903-2.614 10.058a2.365 2.365 0 0 0 .134 3.324c.454.42 1.029.63 1.602.63z" fill="#000000" class="color000 svgShape"/><path d="M1212.38 358.91c-14.569-15.116-30.41-36.132-33.497-58.328-1.867-13.422 3.637-34.55 20.141-51.494 14.107-14.484 41.026-30.613 89.15-25.207 39.218 4.407 83.435 20.069 121.312 42.972 40.49 24.479 68.781 54.151 79.664 83.549 5.682 15.346 4.802 30.682-2.548 44.348-10.222 19.009-32.765 34.196-60.305 40.627a2.354 2.354 0 0 1-2.829-1.758 2.355 2.355 0 0 1 1.759-2.831c26.241-6.129 47.633-20.435 57.224-38.271 6.786-12.618 7.553-26.238 2.281-40.48-23.068-62.305-122.378-115.079-197.082-123.472-46.232-5.195-71.877 10.082-85.25 23.811-15.309 15.717-20.501 35.669-18.848 47.557 5.564 40.007 57.06 77.783 57.581 78.161a2.345 2.345 0 0 1 .523 3.29 2.356 2.356 0 0 1-3.292.523c-1.032-.747-13.003-9.529-25.984-22.997z" fill="#000000" class="color000 svgShape"/><path d="M1313.414 222.839a2.357 2.357 0 0 1 .424-3.62c6.747-4.327 16.268-10.701 23.32-16.495 13.474-11.072 24.345-12.216 34.212-3.602 5.188 4.542 11.779 13.778 19.401 24.476 5.409 7.592 11.003 15.443 16.516 22.153 7.479 9.1 16.246 22.112 22.337 33.154a2.356 2.356 0 0 1-4.128 2.276c-5.962-10.808-14.54-23.542-21.85-32.436-5.616-6.835-11.258-14.753-16.713-22.41-7.142-10.023-13.884-19.489-18.664-23.66-5.664-4.945-13.433-8.373-28.12 3.693-7.229 5.94-16.914 12.426-23.768 16.82a2.36 2.36 0 0 1-2.967-.349z" fill="#000000" class="color000 svgShape"/><path fill="#ffffff" d="M1282.46 451.696c1.885 1.885 18.853 20.738 37.705 13.197 18.853-7.541 15.082-18.853 15.082-18.853l-52.787 5.656z" class="colorfff svgShape"/><path d="M1337.985 881.58c.781 0 1.414-.633 1.414-1.414v-6.508a1.414 1.414 0 1 0-2.828 0v6.508c0 .781.633 1.414 1.414 1.414zM1343.641 867.765c.781 0 1.414-.633 1.414-1.414v-8.672a1.414 1.414 0 1 0-2.828 0v8.672c0 .781.633 1.414 1.414 1.414zM1343.641 854.38c19.584 0 93.104-9.892 135.184-15.788a2.357 2.357 0 0 0-.653-4.667c-41.96 5.88-115.233 15.742-134.531 15.742-27.678 0-182.642-37.264-184.204-37.64a2.357 2.357 0 0 0-1.105 4.583c6.401 1.541 157.075 37.77 185.309 37.77z" fill="#000000" class="color000 svgShape"/><path d="M1157.83 812.21c1.512-.756 13.728-2.377 31.087-4.296a42.91 42.91 0 0 0-1.385 5.089c-14.21 1.562-24.387 2.8-27.025 3.295-.296 1.158-.861 4.473-1.341 13.707 70.446 17.152 176.772 41.737 186.026 40.425 8.338-1.192 71.003-10.8 107.614-16.421a2.34 2.34 0 0 1 2.687 1.972 2.355 2.355 0 0 1-1.972 2.686c-36.62 5.623-99.303 15.234-107.663 16.428a8.667 8.667 0 0 1-1.202.068c-19.597-.004-170.912-36.752-188.498-41.04a2.355 2.355 0 0 1-1.796-2.399c.848-18.204 2.063-18.811 3.468-19.514zM1384.523 959.625a2.356 2.356 0 0 1 1.901-2.737c62.922-11.331 111.611-21.115 117.552-23.601.447-1.638 1.37-8.574 1.049-37.811a2.356 2.356 0 0 1 2.331-2.382c1.318.008 2.368 1.028 2.382 2.331.422 38.497-1.151 40.069-2.299 41.217-3.441 3.441-76.774 17.068-120.181 24.884a2.356 2.356 0 0 1-2.735-1.901z" fill="#000000" class="color000 svgShape"/><path d="M1328.039 968.112a2.355 2.355 0 0 0 2.323-1.982 2.355 2.355 0 0 0-1.951-2.701c-18.856-3.033-57.634-10.714-92.365-18.975-61.303-14.581-66.931-20.612-67.436-21.673-2.239-5.597-2.865-53.059-1.715-85.756a2.355 2.355 0 0 0-2.272-2.438c-1.273-.027-2.392.971-2.438 2.272-.907 25.752-1.003 80.042 2.052 87.681.925 2.313 3.384 8.459 70.304 24.401 34.949 8.325 74.062 16.076 93.12 19.141.127.02.253.03.378.03zM1464.297 1110.777a2.357 2.357 0 0 0 1.586-4.1c-.409-.372-40.981-37.502-46.413-62.849a2.356 2.356 0 1 0-4.608.986c5.748 26.827 46.134 63.789 47.851 65.349a2.34 2.34 0 0 0 1.584.614zM1454.198 1467.98a2.356 2.356 0 0 0 2.348-2.196c.261-3.846 26.152-385.182 28.017-437.404.728-20.381.762-34.398.504-75.458-.008-1.301-1.009-2.371-2.371-2.342a2.356 2.356 0 0 0-2.342 2.371c.258 40.982.225 54.966-.5 75.261-1.863 52.146-27.748 433.406-28.009 437.251a2.356 2.356 0 0 0 2.353 2.517zM1448.297 802.635c-1.505.641-3.045 1.288-4.314 2.293-7.974-9.109-14.09-21.41-14.09-37.741 0-28.183 23.53-194.968 24.531-202.054a2.356 2.356 0 1 1 4.667.659c-.245 1.732-24.486 173.541-24.486 201.395 0 15.413 5.988 26.958 13.692 35.448zM1340.785 754.736c14.187 0 27.324-.734 36-2.388 7.939-1.514 12.435-3.617 14.149-6.616 7.604-13.308 54.783-189.149 56.788-196.627a2.358 2.358 0 0 0-1.666-2.887 2.363 2.363 0 0 0-2.887 1.666c-16.926 63.149-50.483 185.28-56.328 195.509-.336.589-2.12 2.642-10.939 4.324-12.87 2.455-36.102 3.078-60.631 1.63-25.096-1.483-40.972-4.455-43.684-6.625-6.083-7.007-3.853-117.019-1.002-184.702a2.358 2.358 0 0 0-2.255-2.454 2.335 2.335 0 0 0-2.454 2.255c-.018.448-1.894 45.33-2.594 90.556-1.431 92.591 3.329 96.399 5.362 98.026 6.162 4.93 41.584 8.332 72.141 8.333zM1222.91 798.875c5.898-8.7 12.733-21.072 14.712-33.932 3.132-20.358 11.852-147.494 14.451-185.975a2.365 2.365 0 0 1 2.509-2.193 2.357 2.357 0 0 1 2.193 2.509c-2.601 38.528-11.335 165.832-14.495 186.374-2.055 13.356-8.937 26.094-15.004 35.174-1.393-.803-2.86-1.431-4.366-1.957z" fill="#000000" class="color000 svgShape"/><path d="M1190.931 1463.323a2.36 2.36 0 0 0 2.342-2.643c-.226-1.847-22.606-185.412-22.606-254.225 0-50.01 20.071-186.169 33.561-265.487a2.356 2.356 0 1 0-4.646-.789c-13.517 79.475-33.627 215.973-33.627 266.276 0 69.1 22.414 252.95 22.641 254.798a2.354 2.354 0 0 0 2.335 2.07zM1262.281 1467.98a2.357 2.357 0 0 0 2.344-2.142c.107-1.167 10.744-117.231 18.182-160.002 4.975-28.604 26.886-96.369 39.505-134.216a2.36 2.36 0 0 0-1.49-2.982 2.36 2.36 0 0 0-2.982 1.49c-15.464 46.384-34.901 107.44-39.676 134.899-7.471 42.959-18.125 159.213-18.231 160.382a2.356 2.356 0 0 0 2.348 2.571zM1384.172 1462.381a2.358 2.358 0 0 0 2.303-2.869c-.312-1.403-31.3-140.75-38.213-185.94-6.926-45.279-22.873-143.8-23.033-144.79a2.35 2.35 0 0 0-2.703-1.95 2.357 2.357 0 0 0-1.95 2.703c.16.99 16.103 99.49 23.026 144.749 6.936 45.346 37.959 184.848 38.272 186.252a2.359 2.359 0 0 0 2.298 1.845zM1197.306 1546.134zM1105.42 1588.694h160.248a1.414 1.414 0 1 0 0-2.828H1105.42a1.414 1.414 0 1 0 0 2.828z" fill="#000000" class="color000 svgShape"/><path d="M1095.967 1606.604a2.358 2.358 0 0 1-2.266-1.811c-.278-1.168-6.606-28.812 11.302-46.733 15.158-15.17 42.652-18.331 81.739-9.4 1.96-6.841 7.847-29.01 6.977-45.746h-5.347a2.356 2.356 0 0 1-2.219-1.564c-3.708-10.382-9.301-28.425-5.103-32.623 4.784-4.784 75.148-6.966 88.009-3.929 1.885.446 3.895 1.145 4.501 2.964 1.697 5.093 2.176 25.115-2.105 31.056-1.316 1.827-2.848 2.211-3.901 2.211-5.551 0-59.701 1.865-60.248 1.883-1.285.073-2.392-.972-2.436-2.274a2.355 2.355 0 0 1 2.274-2.436c2.218-.077 54.037-1.861 60.284-1.887 2.686-1.937 3.502-20.385 1.806-26.581-7.746-3.945-78.289-.496-84.868 2.402-1.049 2.394 1.477 13.945 5.675 26.064h5.872c1.219 0 2.237.93 2.347 2.143 1.906 20.965-7.247 50.569-7.639 51.819a2.358 2.358 0 0 1-2.793 1.59c-38.521-9.14-65.257-6.581-79.468 7.616-13.606 13.589-11.43 34.366-10.411 40.544 63.344.71 157.537.872 166.271-1.51 2.693-5.689 1.681-51.839-.903-94.046a2.356 2.356 0 0 1 2.208-2.496 2.336 2.336 0 0 1 2.495 2.208c.015.231 1.424 23.401 2.125 46.733 1.453 48.438-1.441 50.367-3.169 51.52-3.327 2.218-46.233 2.789-89.561 2.789-32.347.002-64.929-.317-81.448-.506zm168.111-5.944zm-79.91-128.426zM1381.706 1561.124c-.652-15.41-1.908-42.802-3.197-58.21h-1.61a2.356 2.356 0 0 1-2.219-1.564c-3.708-10.382-9.301-28.425-5.103-32.623 4.952-4.951 78.383-7.069 91.838-3.891 1.861.439 3.843 1.13 4.443 2.926 1.698 5.093 2.176 25.115-2.105 31.056-1.316 1.827-2.848 2.211-3.901 2.211-5.557 0-69.045 1.865-69.686 1.884-1.319.078-2.387-.985-2.425-2.286a2.357 2.357 0 0 1 2.287-2.425c2.6-.076 63.33-1.86 69.696-1.886 2.263-1.703 3.833-19.419 1.821-26.547-2.622-1.151-16.058-2.405-44.356-1.465-23.172.769-41.264 2.578-44.298 3.841-1.038 2.415 1.486 13.951 5.679 26.055h2.102c1.219 0 2.237.93 2.347 2.143 1.362 14.98 2.715 44.386 3.399 60.582a2.358 2.358 0 0 1-2.255 2.454l-.101.002a2.357 2.357 0 0 1-2.356-2.257zm-9.025-88.88z" fill="#000000" class="color000 svgShape"/><path d="M1364.714 1604.765c-.028-1.025-.486-25.276 15.917-42.126 9.961-10.233 23.929-15.421 41.515-15.421 46.602 0 58.915 37.601 58.915 57.483a2.357 2.357 0 0 1-2.357 2.357H1367.07a2.357 2.357 0 0 1-2.356-2.293zm57.432-52.834c-16.248 0-29.071 4.699-38.109 13.967-12.23 12.54-14.234 30.201-14.554 36.447h106.772c-.691-10.37-6.447-50.414-54.109-50.414z" fill="#000000" class="color000 svgShape"/><path d="M1380.67 1588.694h92.378a1.414 1.414 0 1 0 0-2.828h-92.378a1.414 1.414 0 1 0 0 2.828zM1453.254 1558.529c1.28 0 2.33-1.025 2.356-2.311l.943-48.074a2.358 2.358 0 0 0-2.311-2.403c-1.299.015-2.377 1.009-2.403 2.31l-.943 48.075a2.358 2.358 0 0 0 2.311 2.403h.047zM1398.624 935.05a2.354 2.354 0 0 1 2.276-3.942c4.344-.057 40.036-7.859 77.216-24.665 33.38-15.088 74.701-40.731 81.997-77.211 1.879-9.395 4.309-41.495 2.061-66.82a2.356 2.356 0 1 1 4.694-.416c2.287 25.76-.21 58.539-2.135 68.16-11.183 55.911-95.306 87.052-130.956 97.846-8.324 2.52-16.652 4.729-23.447 6.218-5.385 1.181-8.097 1.596-9.586 1.596-1.354 0-1.697-.343-2.12-.766zm3.332-3.333-.005-.005.005.005zm-.007-.006-.002-.003c.002.001.002.002.002.003zM1389.349 905.185c52.176-43.761 97.371-77.398 106.077-83.826l-2.002-4.708c-8.585-20.163-16.687-39.217-21.666-57.237 1.643.027 3.285.043 4.928.068 4.926 17.338 12.762 35.803 21.073 55.322l2.734 6.427a2.356 2.356 0 0 1-.78 2.823c-.489.358-49.628 36.34-107.336 84.74a2.344 2.344 0 0 1-1.513.551 2.355 2.355 0 0 1-1.515-4.16z" fill="#000000" class="color000 svgShape"/><path d="M1293.09 940.574c8.955.001 19.444-.928 30.988-2.81a2.277 2.277 0 0 0-.732-4.494c-26.65 4.343-47.82 3.543-55.251-2.092-1.55-1.176-2.387-2.491-2.558-4.022-.344-3.071.468-4.351 1.108-5.046 3.332-3.612 14.571-3.275 30.122-2.801 23.431.698 46.904-8.344 47.891-8.729a2.278 2.278 0 0 0-.429-4.363c-17.937-3.198-28.309-9.205-29.994-17.37-1.422-6.889 3.835-13.609 6.966-15.676a2.776 2.776 0 0 1 3.417.27l.79.731c7.047 6.529 20.158 18.681 39.573 17.667 2.215-.097 7.988 2.515 23.095 15.703l1.164 1.012a2.278 2.278 0 0 0 2.966-3.456l-1.135-.986c-13.784-12.035-21.676-17.076-26.327-16.82-17.491.923-29.227-9.962-36.241-16.459l-.797-.738a7.32 7.32 0 0 0-9.013-.723c-4.798 3.167-10.735 11.588-8.917 20.396 1.287 6.238 6.902 14.265 25.482 19.152-8.774 2.635-23.761 6.282-38.352 5.838-18.006-.544-28.871-.875-33.608 4.266-1.952 2.118-2.7 4.944-2.286 8.64.314 2.798 1.771 5.2 4.332 7.142 5.037 3.82 14.781 5.768 27.746 5.768z" fill="#000000" class="color000 svgShape"/><path d="M1316.876 952.938c5.419 0 11.629-.523 18.619-1.57a2.277 2.277 0 1 0-.674-4.504c-25.505 3.819-34.538-.517-37.652-3.442-2.286-2.147-2.219-4.213-2.218-4.233a2.275 2.275 0 0 0-2.073-2.463c-1.245-.129-2.357.819-2.463 2.073-.037.429-.248 4.294 3.636 7.942 4.394 4.127 12.041 6.197 22.825 6.197z" fill="#000000" class="color000 svgShape"/><path d="m1348.786 969.708.085-.001c1.96-.041 33.814-1.23 52.459-34.262a2.278 2.278 0 0 0-.863-3.102 2.28 2.28 0 0 0-3.102.864c-17.505 31.013-47.155 31.922-48.594 31.947-11.235-.158-13.529-6.332-13.621-6.595-.351-1.001-1.355-1.659-2.413-1.541-16.794 1.879-18.137-5.333-18.186-5.641-.194-1.222-1.328-2.089-2.558-1.927-1.225.166-2.099 1.253-1.961 2.482.053.482 1.515 11.462 21.614 9.769 1.646 2.765 6.162 7.868 17.111 8.007h.029zM1312.035 369.546c-.115-7.728 2.775-14.038 6.455-14.092 3.68-.055 6.757 6.166 6.871 13.894.115 7.728-2.775 14.038-6.455 14.092-3.68.055-6.756-6.166-6.871-13.894zM1265.153 369.358c-.109-7.295 2.62-13.25 6.093-13.302 3.474-.052 6.378 5.82 6.486 13.115.108 7.295-2.62 13.25-6.093 13.302-3.473.051-6.377-5.82-6.486-13.115z" fill="#000000" class="color000 svgShape"/><path d="M1243.75 426.387c.715-.753 1.372-1.5 2.002-2.215 3.171-3.598 6.175-6.995 12.242-6.59 24.649 1.636 77 3.756 88.571 2.311 11.589-1.449 22.255-25.965 25.474-35.524.325-1.931 3.205-19.452 3.28-33.366-3.804-.661-11.598-2.682-14.997-8.421-1.953-3.297-2.163-7.187-.631-11.582-4.381-3.27-10.055-10.239-7.994-19.513.196-.88.491-1.696.832-2.484 1.416.616 2.849 1.194 4.274 1.799.022.01.046.015.068.024a8.923 8.923 0 0 0-.573 1.683c-2.173 9.781 7.074 15.318 7.463 15.545a2.358 2.358 0 0 1 .976 2.999c-1.638 3.686-1.76 6.754-.364 9.119 2.688 4.553 10.651 6.184 13.491 6.428a2.361 2.361 0 0 1 2.158 2.311c.241 15.357-3.22 35.581-3.367 36.434-.02.117-.05.232-.087.344-.5 1.5-12.44 36.757-29.418 38.879-12.361 1.547-65.586-.7-89.469-2.286-3.59-.232-5.266 1.455-8.394 5.005a80.607 80.607 0 0 1-2.121 2.344c-10.63 11.192-15.74 21.7-15.183 31.232.543 9.321 6.385 14.29 6.625 14.491.676.552.991 1.434.818 2.29-.441 2.182-.889 4.351-1.333 6.5-4.404 21.303-8.564 41.425.282 48.06 10.62 7.964 28.998 6.82 41.895 5.262 18.039-2.175 34.988-7.345 47.726-14.558.437-.248.718-.395.83-.445.641-.279 1.115-.25 2.691-.154 5.218.318 21.104 1.284 30.423-8.562 5.91-6.244 8.153-15.886 6.668-28.656a2.355 2.355 0 0 1 .571-1.827 2.354 2.354 0 0 1 1.738-.802c5.855-.08 11.679-3.034 15.2-7.711 9.018-11.974 8.734-76.957 7.609-91.59a2.364 2.364 0 0 1 .902-2.041c.56-.436 13.845-10.661 25.953-6.887 6.834 2.133 11.838 8.14 14.874 17.856 2.982 9.542 2.482 18.021-1.485 25.2-5.831 10.553-17.399 15.099-21.971 16.535l-.629 72.424c-1.45 1.731-3.055 3.276-4.755 4.709l.684-78.617c0-1.239.833-2.327 2.033-2.648 1.486-.393 14.687-4.141 20.512-14.683 3.32-6.01 3.694-13.249 1.112-21.514-2.548-8.151-6.511-13.119-11.78-14.763-8.055-2.511-17.469 3.205-20.669 5.401.666 12.45 2.13 79.169-8.626 93.453-3.865 5.133-9.963 8.598-16.347 9.408 1.084 13.031-1.661 23.113-8.173 29.993-10.828 11.442-28.367 10.375-34.132 10.026-.333-.02-.612-.04-.83-.051a2.994 2.994 0 0 1-.082.047c-19.67 11.114-46.263 14.748-49.484 15.137-13.701 1.651-33.31 2.809-45.287-6.171-11.238-8.429-6.99-28.984-2.069-52.785.355-1.72.714-3.456 1.07-5.2-2.133-2.185-6.704-7.853-7.261-16.727-.685-10.919 4.855-22.653 16.464-34.876zM1412.014 432.366v.036-.036zM1266.915 290.601c2.17-.217 4.339-.42 6.517-.51-16.882 18.933-15.828 45.797-15.812 46.146l.21 12.984a2.357 2.357 0 0 1-2.319 2.394h-.039a2.358 2.358 0 0 1-2.356-2.319l-.207-12.906c-.054-1.13-1.057-25.892 14.006-45.789z" fill="#000000" class="color000 svgShape"/><path d="M1256.148 392.586h.023a1.415 1.415 0 0 0 1.391-1.437l-.675-41.912a1.415 1.415 0 0 0-1.414-1.391h-.023a1.415 1.415 0 0 0-1.391 1.437l.675 41.912a1.415 1.415 0 0 0 1.414 1.391z" fill="#000000" class="color000 svgShape"/><path d="M1256.586 420.663h.039a2.358 2.358 0 0 0 2.319-2.394l-.438-27.134c-.021-1.302-1.138-2.288-2.394-2.319a2.358 2.358 0 0 0-2.319 2.394l.438 27.134a2.355 2.355 0 0 0 2.355 2.319zM1289.068 414.236c5.588.001 11.805-1.234 14.418-1.814a2.358 2.358 0 0 0 1.79-2.811 2.351 2.351 0 0 0-2.811-1.789c-7.78 1.726-17.267 2.407-19.306.728-1.154-3.179 4.677-21.298 10.93-36.442a2.356 2.356 0 1 0-4.357-1.798c-6.865 16.624-14.174 37.315-10.01 41.479 1.846 1.845 5.443 2.447 9.346 2.447zM1312.566 469.002c3.914 0 7.503-.816 10.747-2.448 11.56-5.818 14.144-19.772 14.248-20.363a2.358 2.358 0 0 0-3.375-2.518c-6.016 3.008-25.586 5.03-53.692 5.548a2.357 2.357 0 0 0-2.313 2.4c.025 1.302 1.124 2.325 2.4 2.313 14.681-.271 39.013-1.211 51.113-4.417-1.501 4.002-4.609 9.876-10.529 12.841-6.667 3.339-15.442 2.335-26.083-2.985a2.357 2.357 0 0 0-2.108 4.216c7.213 3.606 13.764 5.413 19.592 5.413zM1470.352 1237.081zM1159.271 1211.951z" fill="#000000" class="color000 svgShape"/><path d="M1242.522 390.356c-7.982-8.371-6.82-37.849-6.661-41.183a2.355 2.355 0 0 1 2.354-2.244h115.784c.355 0 .707.08 1.026.236l53.832 26.058a2.354 2.354 0 0 1 1.094 3.147 2.354 2.354 0 0 1-3.147 1.095l-53.346-25.822h-63.859l-.003.016c-5.805 32.898-9.742 39.502-10.172 40.147a2.358 2.358 0 0 1-1.961 1.049h-29.437c-2.042-.002-3.946-.865-5.504-2.499zm42.29-38.714h-44.325c-.261 9.791.292 30.058 5.446 35.462.886.929 1.619 1.036 2.093 1.036h27.978c1.217-2.809 4.425-11.847 8.808-36.498z" fill="#000000" class="color000 svgShape"/><path d="M1330.164 397.763c13.646 0 15.673-2.029 16.481-2.837 3.891-3.89 6.964-32.159 8.104-44.132a2.357 2.357 0 0 0-4.691-.447c-1.712 17.964-4.787 38.852-6.771 41.274-3.086 2.509-30.665 1.33-38.57-.648-2.951-.737-5.639-17.341-5.639-34.834a2.357 2.357 0 1 0-4.714 0c0 11.156.898 37.33 9.209 39.408 4.003 1 13.597 1.928 22.319 2.157 1.538.039 2.959.059 4.272.059zM1182.794 683.423c8.302-42.171 18.073-70.217 29.045-83.358 25.836-30.944 56.957-47.542 57.269-47.706a2.357 2.357 0 0 1 2.196 4.17c-.303.159-30.601 16.32-55.848 46.557-22.98 27.524-34.954 121.315-36.891 137.696l50.014 3.285a524.774 524.774 0 0 0-.456 4.694l-52.337-3.438a2.354 2.354 0 0 1-2.189-2.603c.032-.278 3.052-28.077 9.197-59.297zM1338.788 336.325a2.355 2.355 0 0 0 2.336-2.081 2.354 2.354 0 0 0-2.064-2.616l-30.696-3.612c-.676-1.808-1.454-4.833-.528-6.716.184-.374.742-1.51 3.132-1.988 7.088-1.418 26.639 7.46 33.58 10.999a2.356 2.356 0 1 0 2.14-4.197c-2.703-1.379-26.694-13.403-36.643-11.422-3.868.773-5.639 2.898-6.444 4.544-2.393 4.895.67 11.302 1.027 12.017a2.353 2.353 0 0 0 1.832 1.287l32.05 3.771c.092.008.186.014.278.014zM1257.009 338.109c.247 0 .497-.039.746-.121.162-.053 16.496-5.428 25.186-3.695a2.357 2.357 0 0 0 2.729-1.663c.247-.865 2.312-8.574-1.116-13.118-1.061-1.407-3.104-3.084-6.807-3.084-8.231 0-16.163 5.877-16.496 6.127a2.356 2.356 0 0 0-.471 3.296 2.36 2.36 0 0 0 3.297.477c.068-.052 7.027-5.186 13.67-5.186 1.909 0 2.649.687 3.042 1.204 1.245 1.644 1.105 4.787.762 7.003-10.039-.874-24.623 3.945-25.287 4.168a2.356 2.356 0 0 0 .745 4.592zM1035.88 671.985a24.45 24.45 0 0 0-3.436-5.584c2.553-.284 5.118.623 7.355 2.722 6.468 6.069 12.673 11.683 17.66 16.193 5.149 4.658 9.216 8.336 11.665 10.774 9.236 9.192 15.34 43.745 16.49 50.709 8.472 4.491 66.459 35.33 96.969 53.961a2.356 2.356 0 1 1-2.456 4.023c-32.676-19.955-97.106-54.025-97.753-54.366a2.36 2.36 0 0 1-1.228-1.721c-1.74-11.187-7.89-41.844-15.346-49.264-2.369-2.359-6.4-6.005-11.502-10.62-5-4.524-11.223-10.154-17.723-16.251a7.956 7.956 0 0 0-.695-.576zM1013.756 710.676a2.355 2.355 0 0 1 3.318-.315c10.347 8.556 19.667 13.287 24.305 12.348 1.344-.272 2.29-1.01 2.975-2.323 1.428-2.735 1.877-4.828 1.374-6.4-.785-2.452-4.128-4.151-7.999-6.118-3.159-1.605-6.634-3.371-9.618-5.984 1.686-.519 3.294-1.271 4.727-2.265 2.178 1.576 4.625 2.827 7.026 4.048 4.611 2.344 8.967 4.557 10.352 8.882.907 2.832.355 6.109-1.684 10.016-1.339 2.565-3.49 4.211-6.221 4.764-.694.14-1.419.206-2.166.206-8.373 0-19.731-8.295-26.075-13.542a2.357 2.357 0 0 1-.314-3.317z" fill="#000000" class="color000 svgShape"/><path d="M1016.19 750.527a2.356 2.356 0 0 0 1.544-4.137c-5.266-4.565-11.303-10.78-11.877-12.865-2.262-8.213-5.237-31.9-1.994-33.739.687-.218 1.66-.327 3.006.87 4.916 4.372 7.699 19.231 6.95 23.025-1.687 8.552 20.026 19.54 25.491 21.801a2.356 2.356 0 1 0 1.802-4.354c-10.755-4.451-23.255-13.568-22.668-16.534.945-4.784-1.88-21.624-8.443-27.46-2.918-2.593-5.744-2.425-7.598-1.827-9.819 3.167-1.188 39.11-1.089 39.47 1.245 4.524 11.325 13.433 13.333 15.174.447.387.996.576 1.543.576z" fill="#000000" class="color000 svgShape"/><path d="M1153.895 867.086a2.355 2.355 0 0 0 1.365-4.278c-44.182-31.323-88.565-96.201-89.008-96.853a2.358 2.358 0 0 0-1.795-1.026c-20.562-1.343-44.356-4.388-46.945-6.965-5.272-5.245-19.667-24.95-20.536-28.111-.435-1.582-1.157-12.356-.67-23.442.853-19.417 4.419-20.621 4.455-20.631 1.054-.289 1.575-.035 1.947.254 2.307 1.795 2.93 8.494 2.87 11.457a2.355 2.355 0 0 0 2.308 2.404c1.336.093 2.377-1.006 2.404-2.308.024-1.172.094-11.553-4.688-15.273-1.71-1.332-3.816-1.706-6.092-1.078-11.162 3.075-7.607 47.944-7.076 49.868 1.329 4.829 17.053 25.522 21.755 30.201 4.882 4.858 37.225 7.465 48.824 8.251 5.712 8.216 47.616 67.387 89.523 97.096.412.293.888.434 1.359.434z" fill="#000000" class="color000 svgShape"/><path d="M993.581 728.768a2.357 2.357 0 0 0 1.286-4.333c-3.887-2.528-6.875-5.784-6.758-6.794.284-1.433.039-4.701-.496-11.367-.603-7.51-2.015-25.099-.094-27.549.255-.145.657-.259 1.336.048 2.274 1.034 4.778 5.375 5.254 9.109a2.356 2.356 0 0 0 4.674-.596c-.61-4.788-3.76-10.885-7.977-12.803-2.069-.938-4.218-.782-6.05.446-3.562 2.388-3.446 11.716-1.841 31.723.343 4.276.733 9.122.569 10.086-.964 4.878 6.505 10.151 8.818 11.651.396.257.84.379 1.279.379zM1175.854 801.593a2.356 2.356 0 0 0 2.329-2.015l7.98-54.535a2.356 2.356 0 0 0-1.99-2.673 2.35 2.35 0 0 0-2.673 1.99l-7.98 54.535a2.355 2.355 0 0 0 2.334 2.698zM1220.604 796.949c3.813-41.605 8.225-86.465 13.143-133.581a2.357 2.357 0 0 1 4.688.49c-4.996 47.863-9.47 93.399-13.322 135.551-1.434-.943-2.949-1.747-4.509-2.46zM1472.736 813.55l-.805-33.655a2.357 2.357 0 0 1 2.299-2.412c1.307-.068 2.382.998 2.412 2.299l.814 34.037c-1.56-.289-3.137-.322-4.72-.269zM1467.125 762.945c.065 0 .132-.003.198-.008 22.371-1.864 106.625-9.352 107.473-9.427a2.36 2.36 0 0 0 2.13-2.64c-.076-.607-7.824-61.22-28.678-109.462-8.857-20.488-30.771-44.067-65.134-70.085-25.466-19.281-48.679-32.798-48.911-32.931a2.356 2.356 0 0 0-2.365 4.076c.915.531 91.671 53.592 112.083 100.81 18.231 42.175 26.332 94.042 27.996 105.755-13.69 1.216-80.492 7.143-102.978 9.039-2.122-8.752-10.6-44.266-10.676-53.076-.011-1.301-1.154-2.381-2.377-2.336a2.356 2.356 0 0 0-2.336 2.377c.092 10.567 10.832 54.261 11.289 56.116a2.355 2.355 0 0 0 2.286 1.792zM1369.092 646.058c.763 0 1.481-.37 1.924-.996.137-.194 13.896-19.701 27.93-44.26 18.935-33.136 29.343-59.23 30.937-77.554 2.395-27.532-8.07-36.31-17.269-38.826a2.356 2.356 0 0 0-1.243 4.545c10.711 2.93 15.489 14.642 13.817 33.871-3.268 37.575-46.23 102.291-56.038 116.635-12.093-17.575-31.873-29.808-41.139-34.888 28.255-10.515 50.004-36.922 63.562-57.876 15.512-23.973 23.945-46.183 24.029-46.404a2.357 2.357 0 0 0-4.411-1.661c-.326.865-33.263 86.76-89.887 103.2a2.355 2.355 0 0 0-.347 4.395c.315.148 31.601 15.087 46.129 38.694a2.358 2.358 0 0 0 1.931 1.12c.025.005.05.005.075.005z" fill="#000000" class="color000 svgShape"/><path d="m1288.967 635.689.097-.002a2.356 2.356 0 0 0 2.215-1.893c3.462-17.312 30.214-26.416 30.485-26.505a2.358 2.358 0 0 0 .746-4.06c-15.214-12.448-18.77-50.76-19.592-66.654a2.341 2.341 0 0 0-2.475-2.232 2.356 2.356 0 0 0-2.232 2.475c.997 19.255 4.74 52.478 18.474 67.367-6.693 2.776-20.879 9.767-27.261 21.266-3.591-15.513-10.718-53.089-4.167-84.241a2.357 2.357 0 0 0-4.612-.97c-8.686 41.307 5.452 91.618 6.059 93.739a2.352 2.352 0 0 0 2.263 1.71z" fill="#000000" class="color000 svgShape"/><path d="M1314.168 695.927c.771 0 1.402-.62 1.414-1.393.572-38.715 5.845-87.894 5.899-88.387a1.415 1.415 0 0 0-2.811-.304c-.053.493-5.342 49.803-5.915 88.648a1.415 1.415 0 0 0 1.413 1.436zM1020.404 704.516c4.985 0 11.015-.972 15.43-4.802 4.627-4.013 6.538-10.254 5.679-18.55-.825-7.974-5.861-12.948-11.194-18.213-5.645-5.573-11.481-11.336-13.34-21.557-1.981-10.894-9.439-18.816-19.002-20.182-9.044-1.289-17.547 3.672-22.188 12.951-9.84 19.68 1.402 42.617 1.885 43.584a2.353 2.353 0 0 0 3.159 1.054 2.359 2.359 0 0 0 1.058-3.16c-.108-.216-10.661-21.822-1.886-39.37 3.76-7.519 10.241-11.406 17.305-10.393 7.52 1.074 13.42 7.495 15.031 16.359 2.125 11.686 8.787 18.264 14.665 24.068 4.919 4.857 9.167 9.051 9.818 15.343.69 6.678-.682 11.558-4.079 14.505-6.944 6.021-20.209 2.795-20.342 2.762a2.358 2.358 0 0 0-1.143 4.573c.32.08 4.222 1.028 9.144 1.028zM1313.061 824.061a2.357 2.357 0 0 0 1.954-3.672c-2.073-3.083-4.738-5.714-7.56-8.5-5.645-5.573-11.481-11.336-13.34-21.558-1.981-10.894-9.439-18.816-19.002-20.182-9.042-1.288-17.547 3.671-22.188 12.951-3.724 7.449-4.859 16.221-3.374 26.074a2.35 2.35 0 0 0 2.682 1.978 2.356 2.356 0 0 0 1.978-2.682c-1.337-8.873-.352-16.701 2.93-23.263 3.76-7.519 10.242-11.402 17.305-10.393 7.519 1.074 13.42 7.495 15.031 16.359 2.126 11.686 8.788 18.265 14.666 24.068 2.649 2.616 5.151 5.086 6.961 7.778a2.354 2.354 0 0 0 1.957 1.042z" fill="#000000" class="color000 svgShape"/><path d="M1322.342 830.048a2.357 2.357 0 0 0 1.474-4.197c-10.628-8.499-29.691-12.651-41.082-15.132l-2.682-.587c-4.453-.99-9.372-.757-14.616.693a2.355 2.355 0 0 0-1.643 2.899 2.349 2.349 0 0 0 2.899 1.643c4.494-1.242 8.647-1.456 12.338-.634l2.701.592c10.988 2.393 29.376 6.398 39.141 14.207.435.348.955.516 1.47.516z" fill="#000000" class="color000 svgShape"/><path d="M1270.116 841.182c.922 0 1.798-.545 2.174-1.449.202-.487 4.912-12.025.307-21.44-2.406-4.92-6.839-8.291-13.174-10.019-15.542-4.237-30.312-.324-38.237 4.317-4.425 2.591-7.277 5.68-8.032 8.696a2.357 2.357 0 0 0 4.573 1.143c.431-1.726 2.614-3.884 5.84-5.773 7.136-4.179 20.483-7.692 34.614-3.837 4.963 1.353 8.385 3.885 10.172 7.524 3.675 7.483-.376 17.477-.417 17.578a2.358 2.358 0 0 0 2.18 3.26z" fill="#000000" class="color000 svgShape"/><path d="M1187.163 822.329a2.358 2.358 0 0 0 2.357-2.352c0-.173.179-17.378 11.768-22.345 9.824-4.211 29.161 7.236 35.783 12.001a2.355 2.355 0 1 0 2.752-3.826c-1.06-.763-26.135-18.618-40.392-12.507-14.459 6.197-14.626 25.842-14.626 26.675a2.355 2.355 0 0 0 2.354 2.355l.004-.001zM1357.52 851.836a2.358 2.358 0 0 0 1.748-3.937c-5.018-5.555-4.96-13.132-4.908-19.816.045-5.874.088-11.422-3.355-14.893-2.08-2.096-5.105-3.115-9.249-3.115-16.104 0-22.19 20.266-24.059 28.979a2.358 2.358 0 0 0 1.81 2.799 2.358 2.358 0 0 0 2.798-1.81c1.629-7.594 6.785-25.254 19.451-25.254 2.822 0 4.754.563 5.902 1.721 2.062 2.078 2.028 6.461 1.988 11.536-.055 7.171-.124 16.096 6.123 23.012a2.353 2.353 0 0 0 1.751.778z" fill="#000000" class="color000 svgShape"/><path d="M1406.652 840.774a2.356 2.356 0 0 0 2.34-2.656c-.877-6.839-4.206-11.885-9.624-14.595-16.019-8.009-46.181 8.763-47.456 9.481a2.355 2.355 0 0 0-.898 3.208 2.359 2.359 0 0 0 3.209.9c.291-.165 29.249-16.271 43.037-9.373 4.062 2.031 6.37 5.622 7.058 10.979a2.356 2.356 0 0 0 2.334 2.056zM1425.157 845.192a2.35 2.35 0 0 0 1.861-.91c6.646-8.538 10.459-15.97 11.334-22.09 1.07-7.483 3.949-13.089 8.11-15.787 3.145-2.04 7.026-2.421 11.533-1.132 1.592.455 2.787 1.458 3.657 3.067 3.749 6.945.196 22.494-1.489 27.899a2.356 2.356 0 0 0 4.498 1.405c.272-.871 6.597-21.426 1.14-31.54-1.483-2.749-3.674-4.554-6.512-5.364-5.792-1.658-11.115-1.063-15.392 1.709-5.32 3.45-8.947 10.224-10.211 19.076-.747 5.222-4.339 12.091-10.387 19.863a2.356 2.356 0 0 0 1.858 3.804z" fill="#000000" class="color000 svgShape"/><path d="M1428.475 829.872a2.355 2.355 0 0 0 2.351-2.552c-.084-1.002-2.261-24.579-20.941-26.654-4.915-.552-9.039.666-12.266 3.598-7.091 6.444-6.985 18.941-6.978 19.47.019 1.3 1.043 2.309 2.389 2.319a2.357 2.357 0 0 0 2.324-2.387c-.002-.109-.073-10.923 5.444-15.924 2.211-2.005 5.02-2.783 8.566-2.393 14.869 1.652 16.747 22.156 16.765 22.363a2.358 2.358 0 0 0 2.346 2.16z" fill="#000000" class="color000 svgShape"/><path d="M1364.378 827.986a2.358 2.358 0 0 0 1.587-4.1c-5.348-4.869-18.076-19.233-12.822-27.114 4.924-7.385 15.975-11.804 21.851-10.55 2.349.504 3.667 1.804 4.028 3.975 2.046 12.28 16.068 20.339 16.665 20.676a2.356 2.356 0 0 0 2.323-4.101c-.127-.072-12.664-7.304-14.338-17.35-.686-4.119-3.416-6.891-7.688-7.808-8.433-1.807-21.181 4.171-26.762 12.544-8.568 12.851 12.665 32.39 13.573 33.215a2.34 2.34 0 0 0 1.583.613zM1334.588 816.555c.586 0 1.174-.217 1.63-.655 7.144-6.843 7.944-19.119 1.902-29.189-6.429-10.717-38.202 3.638-44.505 6.623a2.357 2.357 0 0 0 2.018 4.26c16.299-7.718 35.634-13.143 38.447-8.459 4.841 8.069 4.359 18.111-1.121 23.36a2.357 2.357 0 0 0 1.629 4.06z" fill="#000000" class="color000 svgShape"/><path d="M1352.31 795.352a1.41 1.41 0 0 0 1.087-.508 1.41 1.41 0 0 0-.172-1.982c-.222-.186-5.536-4.546-15.517-2.554a1.412 1.412 0 0 0-1.109 1.663 1.41 1.41 0 0 0 1.663 1.109c8.568-1.713 12.964 1.797 13.147 1.949.264.217.583.323.901.323zM1440.582 810.433a1.415 1.415 0 0 0 1.318-1.929c-.05-.126-5.077-12.568-19.077-12.568-6.379 0-13.431 1.282-19.653 2.414-6.46 1.176-12.559 2.281-15.391 1.404a1.414 1.414 0 1 0-.839 2.701c3.494 1.088 9.63-.029 16.736-1.322 6.104-1.11 13.023-2.368 19.147-2.368 12.091 0 16.401 10.662 16.443 10.769.218.559.751.899 1.316.899zM1226.729 801.888c.68 0 1.28-.492 1.394-1.187.036-.205.996-5.272 7.455-8.212 5.025-2.285 12.295.529 15.191 1.845a1.413 1.413 0 1 0 1.17-2.573c-4.03-1.836-11.67-4.515-17.533-1.845-7.893 3.592-9.031 10.058-9.075 10.331a1.415 1.415 0 0 0 1.398 1.641zM1485.036 832.7c.592 0 1.144-.375 1.341-.967.112-.336 2.704-8.281-.316-13.924-1.303-2.435-3.426-4.069-6.309-4.855-4.077-1.113-8.799-1.232-14.034-.357a1.414 1.414 0 0 0 .465 2.79c4.828-.808 9.142-.707 12.824.296 2.133.582 3.625 1.714 4.559 3.46 2.452 4.582.15 11.626.127 11.695a1.415 1.415 0 0 0 1.343 1.862z" fill="#000000" class="color000 svgShape"/><path fill="#a67c52" d="M1228.018 1453.367c-5.939-1.915-11.164-6.327-17.399-6.57 2.519-1.926 1.924-6.043-.033-8.538-1.957-2.495-4.861-4.071-7.024-6.39-5.971-6.402-4.756-17.101.287-24.256 3.165-4.491 7.666-8.224 9.355-13.453 2.972-9.201-3.82-18.547-4.902-28.155-.807-7.167 1.616-14.292 1.895-21.499.112-2.885.002-6.121 1.985-8.22 2.672-2.828 7.77-1.628 10.192 1.417 2.422 3.045 2.862 7.176 3.057 11.062.712 14.18-.273 29.473 7.519 41.343 1.541 2.348 3.682 4.649 6.476 4.935 2.016.206 4.194-.664 6.006.244 1.156.58 1.878 1.774 2.34 2.982 1.735 4.53.391 10.068-3.227 13.299-3.392 3.029-8.355 4.033-11.331 7.471-2.41 2.783-3.031 7.062-1.288 10.304s5.85 5.091 9.37 4.016c3.91-1.193 7.334-5.517 11.156-4.067 6.972 2.646 2.475 14.246-1.172 17.892-5.99 5.988-15.043 8.833-23.262 6.183zM1424.133 1398.823c-.779 1.087-1.461 2.306-1.562 3.639-.1 1.321.377 2.615.478 3.937.282 3.712-2.345 6.921-4.601 9.883s-4.366 6.783-2.965 10.232c.862 2.122 2.941 3.573 5.15 4.175s4.551.462 6.822.162a50.658 50.658 0 0 0 13.557-3.759c.459-.2.93-.416 1.263-.79.485-.544.594-1.32.648-2.047.16-2.161.029-4.343-.388-6.47-.825-4.198-2.759-8.486-1.512-12.579 1.401-4.599 10.359-13.22.557-14.284-6.544-.709-13.641 2.592-17.447 7.901zM1195.522 1334.341c-1.277-3.265-3.562-6.312-3.5-9.817.038-2.172.989-4.206 1.629-6.282a22.657 22.657 0 0 0 .16-12.729c-.566-2.011-1.475-4.025-3.123-5.308-1.648-1.283-4.178-1.608-5.793-.284-1.325 1.086-1.726 2.925-1.907 4.629-.761 7.135.841 14.421-.405 21.487-.506 2.873-1.482 5.773-.951 8.641.45 2.429 1.941 4.551 2.525 6.952.935 3.842-.52 8.083.956 11.752 2.34 5.815 7.343-.67 8.874-3.22 2.826-4.709 3.553-10.663 1.535-15.821zM1451.919 1204.257c-1.277-3.265-3.562-6.312-3.5-9.818.038-2.172.989-4.206 1.629-6.281a22.657 22.657 0 0 0 .16-12.729c-.565-2.011-1.475-4.025-3.123-5.309-1.648-1.283-4.178-1.608-5.793-.284-1.325 1.086-1.726 2.925-1.907 4.629-.761 7.135.841 14.421-.405 21.487-.507 2.873-1.482 5.773-.951 8.641.45 2.429 1.941 4.551 2.525 6.952.935 3.842-.52 8.083.956 11.752 2.34 5.815 7.343-.67 8.874-3.22 2.826-4.707 3.553-10.662 1.535-15.82z" class="colora67c52 svgShape"/><path fill="#ffffff" d="M987.469 1584.445c-4.029-.495-8.23-.32-11.987-1.859-4.257-1.744-7.341-5.431-10.601-8.677-13.458-13.398-32.745-20.724-51.704-19.639-10.933.626-21.908 3.89-32.67 1.867-6.933-1.303-13.079-4.652-19.025-8.548l-9.818-2.095c8.397-20.891 16.884-76.045 16.884-76.045h-65.985l11.312-49.017-4.043-2.425c22.662-89.069 147.755-582.089 142.61-592.378-10.153-20.305-22.623-9.426-24.509 1.885-1.617 9.701-108.926 461.783-138.748 587.243-2.537.552-5.006 1.436-6.418 2.848-3.771 3.771-11.312 52.788-11.312 52.788l-70.698.943-6.25 40.623-.896-.191c-8.178 3.373-15.72 7.842-21.603 14.394-4.295 4.783-7.982 10.84-14.143 12.678-5.774 1.722-11.826-.849-17.703-2.179-13.84-3.13-28.578.846-40.702 8.218-12.124 7.373-21.988 17.903-31.113 28.77-3.888 4.631-7.811 9.465-13.115 12.369-7.598 4.161-16.761 3.726-25.29 5.244-8.529 1.518-17.855 6.597-18.833 15.205l504.625-.854c-4.882-11.311-16.037-19.665-28.265-21.168z" class="colorfff svgShape"/><path fill="#a67c52" d="M517.247 1606.1s9.619-13.719 29.638-17.683c20.019-3.964 20.019-3.964 29.445-17.161 9.426-13.197 40.254-36.738 59.718-34.394 19.464 2.344 27.005 6.115 32.661.459 5.656-5.656 15.082-16.968 24.509-20.738v13.372l39.591-5.831 121.913 14.233s25.998 19.937 41.593 20.762c15.595.826 40.103-4.83 51.415-2.945 11.312 1.885 24.509 28.279 39.591 28.279s30.164 3.771 35.82 20.738l-505.894.909z" class="colora67c52 svgShape"/><path fill="#efdeb4" d="M810.231 1416.441c23.68-93.085 147.327-580.581 142.212-590.812-10.153-20.305-22.623-9.426-24.509 1.885-1.611 9.668-108.179 458.635-138.431 585.91 6.931.852 13.828 1.937 20.728 3.017z" class="colorefdeb4 svgShape"/><path fill="#666666" d="M699.816 1528.836s2.828-48.075 8.484-59.386h62.214l-6.109 50.294s21.191-104.967 26.847-106.852c5.656-1.885 26.394 9.426 26.394 9.426l-9.426 47.132h65.984s-7.541 71.64-24.508 90.493c0 0-8.484-4.713-16.025-4.713-7.541 0-9.426-3.771-15.082-3.771-5.656 0-22.623 1.885-28.279 0-5.656-1.885-11.312-1.885-16.967 1.885-5.656 3.771-18.853 15.082-24.509 5.656-5.656-9.426-1.885-16.967-5.656-18.853-3.771-1.885-7.541-1.885-15.082-7.541-7.542-5.655-28.28-3.77-28.28-3.77z" class="color666 svgShape"/><path fill="#a67c52" d="M848.171 1534.109c.638-5.476-.97-11.794-5.793-14.466-3.398-1.883-7.576-1.534-11.377-.729-3.851.815-7.603 2.04-11.332 3.3-2.1.71-4.271 1.442-6.479 1.254-3.329-.283-6.095-2.574-8.622-4.761-.888-.768-1.795-1.559-2.364-2.587-.882-1.592-.833-3.515-.762-5.333.023-.592.055-1.212.358-1.72.51-.855 1.593-1.12 2.51-1.508 2.737-1.16 4.515-3.937 5.245-6.818.73-2.881.571-5.903.442-8.872-.049-1.139-.046-2.413.74-3.239.705-.741 1.819-.88 2.839-.952a66.613 66.613 0 0 1 19.44 1.495c.556.127 1.138.274 1.554.664.514.48.67 1.222.787 1.916.473 2.804.901 5.931 3.1 7.733 2.11 1.728 5.125 1.625 7.846 1.434.598-.042 1.238-.1 1.699-.483.504-.417.663-1.111.786-1.754a91.54 91.54 0 0 0 1.309-9.558c.085-1.015.288-2.231 1.229-2.623.35-.146.742-.141 1.121-.133 3.87.081 7.738.264 11.598.55.789 3.478-.379 7.334-2.965 9.79-1.391 1.321-3.122 2.231-4.565 3.496-1.442 1.265-2.63 3.088-2.357 4.987.28 1.945 1.955 3.333 3.059 4.958 1.834 2.7 2.131 6.196 3.85 8.97.501.809 1.128 1.567 1.386 2.484.287 1.021.08 2.11-.15 3.145a77.828 77.828 0 0 1-11.582 26.826c-.632.93-1.396 1.921-2.503 2.123-7.805 1.421-.4-16.554-.047-19.589zM748.196 1541.645c.486-5.977 4.332-11.535 3.671-17.495-.399-3.6-2.399-6.786-3.913-10.077-1.514-3.291-2.55-7.193-1.001-10.468.63-1.331 1.67-2.856.901-4.112-.298-.488-.816-.792-1.318-1.065a34.683 34.683 0 0 0-8.333-3.204c-2.287-.555-5.086-.718-6.598 1.085-1.436 1.712-.942 4.271-1.483 6.439-.713 2.855-3.27 4.938-6.019 5.987-2.75 1.05-5.733 1.262-8.646 1.68-1.823.262-3.915.822-4.63 2.518-.867 2.055.862 4.492.105 6.59-.76 2.108-3.457 2.631-5.197 4.043-1.53 1.242-2.289 3.176-2.985 5.02-.529 1.401-1.059 2.806-1.412 4.262-.243 1.002-.399 2.062-.133 3.058.563 2.109 2.756 3.271 4.711 4.241a120.111 120.111 0 0 1 26.903 18.29c1.549 1.395 3.101 2.857 5.012 3.69 1.903.83 4.023.975 6.095 1.109 2.324.15 4.779.239 7.046-.391 1.027-.285 2.543-.748 3.243-1.62 1.087-1.355.432-1.689-.468-3.118-3.11-4.931-6.041-10.44-5.551-16.462z" class="colora67c52 svgShape"/><path d="M695.422 1527.899c1.131-27.915 5.726-49.644 7.152-55.805l54.333-.306a2.362 2.362 0 0 0 2.344-2.371 2.359 2.359 0 0 0-2.371-2.344l-56.179.316a2.36 2.36 0 0 0-2.267 1.765c-.076.291-6.722 26.307-7.928 60.799 1.531-.956 3.187-1.609 4.916-2.054zM870.57 1467.226a2.352 2.352 0 0 0-1.768-.784l-64.797.365a2.362 2.362 0 0 0-2.344 2.371 2.358 2.358 0 0 0 2.371 2.344l62.13-.351c-3.142 25.856-9.585 56.826-22.395 87.068 1.397.725 2.808 1.423 4.19 2.172 13.548-31.866 20.125-64.501 23.199-91.344a2.358 2.358 0 0 0-.586-1.841z" fill="#000000" class="color000 svgShape"/><path d="M814.48 1417.088c-.966-.578-23.721-13.97-32.946-.412-6.626 9.737-24.019 108.371-26.346 143.086 1.609.179 3.193.102 4.756-.159 2.641-32.087 18.457-129.945 25.487-140.273 5.644-8.302 20.433-1.483 25.159.995l-10.528 47.748a2.357 2.357 0 1 0 4.603 1.015l10.907-49.469a2.359 2.359 0 0 0-1.092-2.531z" fill="#000000" class="color000 svgShape"/><path d="M798.206 1476.183a2.364 2.364 0 0 0-2.98 1.495c-10.452 31.502-22.886 64.577-30.821 80.753 2.16-.743 4.292-1.677 6.413-2.578 3.183-6.891 7.164-16.466 12.204-29.758 8.753-23.085 16.6-46.696 16.679-46.932a2.36 2.36 0 0 0-1.495-2.98zM789.464 1415.282a2.357 2.357 0 0 1-2.295-2.902c22.822-95.956 136.754-575.135 138.44-585.252 1.122-6.735 5.815-14.087 12.613-15.109 4.261-.639 10.558 1.018 16.328 12.557 1.174 2.348 3.923 7.847-67.455 296.194-35.18 142.116-71.517 284.683-71.88 286.106a2.364 2.364 0 0 1-2.866 1.702 2.357 2.357 0 0 1-1.702-2.866c39.668-155.581 141.861-562.098 139.592-579.216-3.494-6.905-7.512-10.389-11.317-9.817-3.908.588-7.714 5.518-8.665 11.223-1.711 10.268-115.675 489.585-138.504 585.567a2.354 2.354 0 0 1-2.289 1.813z" fill="#000000" class="color000 svgShape"/><path d="M511.111 1608.824a2.355 2.355 0 0 1-2.341-2.622c1.162-10.218 11.911-15.683 20.762-17.258 2.621-.467 5.301-.755 7.893-1.033 6.046-.65 11.756-1.263 16.678-3.958 4.686-2.566 8.372-6.962 11.936-11.214l.506-.604c8.482-10.1 18.879-21.475 31.693-29.268 13.992-8.51 29.062-11.532 42.447-8.504 1.329.301 2.667.663 4.009 1.026 4.445 1.206 8.643 2.345 12.5 1.193 4.129-1.233 7.099-4.843 10.243-8.666.933-1.132 1.861-2.261 2.82-3.328 5.504-6.13 12.85-11.036 22.458-14.999a2.358 2.358 0 0 1 1.796 4.358c-8.94 3.687-15.727 8.197-20.748 13.79-.914 1.017-1.799 2.094-2.686 3.174-3.456 4.201-7.028 8.545-12.536 10.188-5.139 1.534-10.195.164-15.08-1.16-1.278-.346-2.551-.692-3.817-.979-12.179-2.754-26.016.063-38.958 7.933-12.23 7.438-22.297 18.465-30.533 28.272l-.503.601c-3.845 4.586-7.82 9.329-13.283 12.32-5.748 3.148-12.2 3.84-18.439 4.511-2.512.271-5.11.55-7.57.987-6.824 1.215-13.977 4.87-16.24 10.523l497.802-.842c-5.141-8.892-14.501-15.22-24.738-16.479-1.098-.135-2.208-.218-3.32-.302-3.062-.23-6.229-.468-9.274-1.716-4.007-1.641-6.945-4.66-9.788-7.579-.527-.54-1.051-1.08-1.581-1.608-12.972-12.915-31.617-20.003-49.907-18.956-3.553.203-7.217.707-10.759 1.195-7.341 1.009-14.933 2.055-22.48.635-7.792-1.465-14.422-5.316-19.881-8.892a2.355 2.355 0 1 1 2.583-3.941c5.069 3.32 11.191 6.891 18.169 8.202 6.793 1.276 13.678.331 20.967-.672 3.634-.5 7.392-1.017 11.133-1.232 19.592-1.126 39.593 6.475 53.501 20.322.548.545 1.09 1.102 1.634 1.66 2.621 2.693 5.097 5.236 8.197 6.505 2.355.965 5.02 1.165 7.841 1.378 1.185.089 2.37.179 3.54.323 13.085 1.609 24.916 10.469 30.142 22.573a2.356 2.356 0 0 1-2.159 3.291l-504.625.854c-.001-.002-.003-.002-.004-.002z" fill="#000000" class="color000 svgShape"/><path d="M858.797 1570.217a2.353 2.353 0 0 1-1.923-.991c-.637-.897-1.624-1.645-2.67-2.438-3.292-2.496-6.696-5.078-10.387-6.836-3.458-1.645-7.319-2.442-11.43-2.374-3.904.058-7.538-.954-11.072-1.94-2.497-.697-4.858-1.354-7.252-1.64-3.225-.386-6.493-.095-9.952.215-2.809.249-5.715.51-8.643.385-1.934-.082-3.85-.329-5.702-.566-3.397-.437-6.603-.85-9.667-.269-3.323.63-6.359 2.399-9.574 4.271-1.264.736-2.529 1.472-3.815 2.144-6.545 3.416-12.634 3.888-17.141 1.334-6.146-3.487-7.553-10.977-8.119-17.845-.021-.25-.068-.832-.156-.998a32.898 32.898 0 0 0-.861-.261l-.24-.072c-3.484-1.054-6.385-3.073-9.191-5.025-1.025-.713-2.049-1.426-3.099-2.085-12.256-7.694-29.147-7.355-41.083.825a2.356 2.356 0 1 1-2.664-3.888c13.434-9.209 32.456-9.592 46.253-.928 1.112.698 2.198 1.453 3.284 2.207 2.621 1.824 5.095 3.545 7.865 4.384l.215.064c.922.273 2.185.648 3.136 1.762 1.04 1.218 1.163 2.729 1.237 3.631.466 5.638 1.512 11.728 5.748 14.13 4.139 2.348 9.693.123 12.635-1.412 1.222-.638 2.422-1.338 3.622-2.038 3.418-1.991 6.951-4.049 11.07-4.829 3.804-.719 7.534-.24 11.143.224 1.835.236 3.569.459 5.3.532 2.627.111 5.248-.122 8.026-.37 3.547-.316 7.216-.642 10.928-.2 2.754.329 5.401 1.067 7.961 1.78 3.356.937 6.518 1.832 9.726 1.766 4.861-.072 9.414.872 13.535 2.832 4.129 1.966 7.729 4.696 11.21 7.336 1.222.927 2.608 1.978 3.664 3.463a2.357 2.357 0 0 1-1.917 3.72zM1742.371 1608.489H269.974a2.357 2.357 0 1 1 0-4.714h1472.398a2.357 2.357 0 1 1-.001 4.714z" fill="#000000" class="color000 svgShape"/></svg>